<?xml version="1.0" encoding="UTF-8" standalone="no"?>
<!-- Created with Inkscape (http://www.inkscape.org/) -->

<svg
   version="1.1"
   id="svg1115"
   width="880"
   height="880"
   viewBox="0 0 880 880"
   sodipodi:docname="fish-black-clipart-pdv.svg"
   inkscape:version="1.2 (dc2aedaf03, 2022-05-15)"
   xmlns:inkscape="http://www.inkscape.org/namespaces/inkscape"
   xmlns:sodipodi="http://sodipodi.sourceforge.net/DTD/sodipodi-0.dtd"
   xmlns="http://www.w3.org/2000/svg"
   xmlns:svg="http://www.w3.org/2000/svg">
  <defs
     id="defs1119">
    <clipPath
       clipPathUnits="userSpaceOnUse"
       id="clipPath1131">
      <path
         d="M 0,660 H 660 V 0 H 0 Z"
         id="path1129" />
    </clipPath>
  </defs>
  <sodipodi:namedview
     id="namedview1117"
     pagecolor="#ffffff"
     bordercolor="#000000"
     borderopacity="0.25"
     inkscape:showpageshadow="2"
     inkscape:pageopacity="0.0"
     inkscape:pagecheckerboard="0"
     inkscape:deskcolor="#d1d1d1"
     showgrid="false"
     inkscape:zoom="0.95113636"
     inkscape:cx="441.05137"
     inkscape:cy="440.52569"
     inkscape:window-width="1920"
     inkscape:window-height="1017"
     inkscape:window-x="-8"
     inkscape:window-y="-8"
     inkscape:window-maximized="1"
     inkscape:current-layer="g1123">
    <inkscape:page
       x="0"
       y="0"
       id="page1121"
       width="880"
       height="880" />
  </sodipodi:namedview>
  <g
     id="g1123"
     inkscape:groupmode="layer"
     inkscape:label="Page 1"
     transform="matrix(1.3333333,0,0,-1.3333333,0,880)">
    <g
       id="g1125">
      <g
         id="g1127"
         clip-path="url(#clipPath1131)">
        <g
           id="g1133"
           transform="translate(240.4678,431.3774)">
          <path
             d="M 0,0 C -0.102,0.103 -0.206,0.2 -0.309,0.303 L 2.458,0.969 C 2.91,1.072 3.35,1.187 3.798,1.277 l 1.391,0.185 c 0.927,0.12 1.845,0.281 2.772,0.369 l 2.792,0.116 C 11.681,2.022 12.612,1.941 13.539,1.899 14.466,1.832 15.396,1.86 16.316,1.712 L 19.073,1.348 C 19.992,1.23 20.894,0.993 21.804,0.83 22.712,0.656 23.62,0.475 24.508,0.206 l 2.675,-0.739 c 1.751,-0.603 3.51,-1.169 5.211,-1.899 3.418,-1.39 6.744,-3.038 9.831,-5.032 1.538,-1 3.049,-2.036 4.458,-3.18 0.721,-0.554 1.347,-1.189 2.027,-1.778 l 0.894,-0.961 0.442,-0.479 0.338,-0.473 c 0.879,-1.306 1.392,-3.011 1.742,-4.733 0.343,-1.739 0.519,-3.55 0.599,-5.372 0.152,-3.65 -0.05,-7.355 -0.412,-11.042 -0.067,-0.635 -0.141,-1.272 -0.214,-1.908 -0.116,4.452 -0.906,8.922 -2.576,13.155 -1.187,3.094 -2.882,6.011 -4.94,8.642 -2.091,2.612 -4.579,4.89 -7.279,6.834 -2.734,1.904 -5.677,3.471 -8.733,4.71 -3.07,1.201 -6.216,2.16 -9.42,2.791 C 12.82,0.061 6.366,0.391 0,0 m 2.536,-0.386 c 2.275,-0.315 4.538,-0.64 6.782,-1.047 3.141,-0.553 6.241,-1.255 9.284,-2.09 3.032,-0.875 6.025,-1.846 8.871,-3.134 2.858,-1.248 5.6,-2.737 8.105,-4.54 5.077,-3.515 9.173,-8.327 11.812,-13.958 2.354,-4.943 3.607,-10.411 4.238,-16.012 -0.011,-0.079 -0.024,-0.157 -0.034,-0.236 -0.237,1.324 -0.521,2.644 -0.88,3.95 -0.914,3.038 -2.138,6.005 -3.699,8.798 -3.126,5.602 -7.538,10.422 -12.515,14.407 -2.525,1.952 -5.17,3.738 -7.928,5.314 -2.773,1.548 -5.612,2.969 -8.552,4.135 -4.999,2.021 -10.191,3.57 -15.484,4.413 M 0.115,-0.114 C 5.97,-1.996 11.63,-4.263 17.07,-6.919 c 2.75,-1.384 5.47,-2.813 8.064,-4.443 2.608,-1.6 5.137,-3.321 7.511,-5.227 2.406,-1.869 4.643,-3.94 6.713,-6.155 2.092,-2.198 3.986,-4.583 5.662,-7.12 1.651,-2.553 3.104,-5.246 4.309,-8.076 0.744,-1.762 1.358,-3.578 1.914,-5.426 -2.322,3.983 -4.989,7.782 -7.937,11.351 -0.96,1.174 -1.983,2.295 -2.995,3.424 -0.996,1.149 -2.061,2.229 -3.127,3.308 -2.113,2.182 -4.391,4.188 -6.639,6.225 -4.62,3.93 -9.491,7.561 -14.619,10.782 -5.017,3.153 -10.239,6.026 -15.78,8.133 -0.011,0.011 -0.02,0.019 -0.031,0.029 m -0.172,0.051 c -0.045,0.017 -0.089,0.037 -0.135,0.053 0.044,-0.013 0.086,-0.029 0.129,-0.043 0.003,-0.003 0.004,-0.007 0.006,-0.01 m -0.252,0.366 c 0.068,-0.104 0.145,-0.203 0.212,-0.307 -0.031,-0.003 -0.064,-0.004 -0.095,-0.006 0.061,-0.037 0.118,-0.077 0.177,-0.115 3.146,-4.794 6.827,-9.211 10.701,-13.426 3.997,-4.345 8.252,-8.449 12.703,-12.327 4.491,-3.829 9.091,-7.54 13.973,-10.859 3.945,-2.776 8.06,-5.302 12.292,-7.61 -4.716,1.666 -9.339,3.581 -13.807,5.808 -5.398,2.727 -10.578,5.901 -15.329,9.644 -4.738,3.749 -9.061,8.049 -12.648,12.943 -3.616,4.869 -6.384,10.381 -8.179,16.255 M 12.334,-11.915 C 8.311,-8.145 4.331,-4.32 0.398,-0.392 5.285,-3.5 9.993,-6.796 14.616,-10.196 c 2.39,-1.788 4.78,-3.568 7.097,-5.441 1.144,-0.951 2.342,-1.839 3.478,-2.798 l 3.405,-2.886 c 2.234,-1.96 4.483,-3.909 6.609,-5.986 2.229,-1.978 4.228,-4.178 6.36,-6.26 3.33,-3.483 6.468,-7.135 9.557,-10.89 -0.014,-0.089 -0.03,-0.177 -0.045,-0.264 -4.108,3.322 -8.264,6.52 -12.313,9.849 l -3.401,2.762 -3.358,2.808 c -2.245,1.862 -4.466,3.754 -6.657,5.678 l -3.307,2.866 -3.25,2.928 c -2.183,1.936 -4.31,3.934 -6.457,5.915 m -79.397,124.183 c -1.921,0.623 -2.975,2.686 -2.351,4.609 0.622,1.922 2.686,2.976 4.609,2.352 1.921,-0.624 2.975,-2.687 2.353,-4.609 -0.624,-1.923 -2.689,-2.975 -4.611,-2.352 m 0.105,10.176 c -5.103,1.654 -10.58,-1.142 -12.235,-6.243 -1.654,-5.103 1.141,-10.58 6.244,-12.235 5.102,-1.654 10.578,1.14 12.233,6.244 1.655,5.102 -1.14,10.579 -6.242,12.234 M 320.11,56.859 c -0.961,-1.991 -2.07,-4.023 -3.28,-6.078 l -37.699,-16.04 c 15.667,8.109 31.019,16.474 40.979,22.118 M 254.325,1.979 283.76,6.354 c -1.735,-2.423 -3.187,-4.629 -4.337,-6.655 z m 21.972,-10.99 -26.469,6.274 28.844,1.065 c -1.43,-2.754 -2.237,-5.162 -2.375,-7.339 m 2.748,-19.759 -26.436,15.188 25.546,-5.639 c 0.347,-2.734 0.629,-6.013 0.89,-9.549 m 0.625,-9.063 -24.797,18.109 24.198,-9.396 c 0.15,-2.049 0.294,-4.176 0.439,-6.334 0.054,-0.785 0.106,-1.58 0.16,-2.379 m -12.223,-19.3 16.273,-16.797 c 0.364,-1.876 0.76,-3.733 1.195,-5.559 -0.885,0.795 -1.753,1.604 -2.621,2.412 z m 14.789,-7.83 c 0.323,-2.286 0.68,-4.56 1.084,-6.812 l -18.406,22.808 z M 227.967,2.48 c 0.314,-0.107 0.482,-0.45 0.374,-0.766 -0.108,-0.314 -0.45,-0.482 -0.765,-0.374 -0.314,0.108 -0.483,0.45 -0.376,0.765 0.109,0.316 0.451,0.483 0.767,0.375 m 54.027,-65.678 -19.627,22.116 18.811,-15.162 c 0.241,-2.314 0.509,-4.637 0.816,-6.954 m -0.959,8.336 -21.215,21.326 20.556,-13.952 c 0.195,-2.432 0.411,-4.894 0.659,-7.374 m -0.74,8.388 -22.99,20.08 22.412,-12.105 c 0.176,-2.595 0.364,-5.261 0.578,-7.975 m -3.429,33.559 c 0.519,-1.331 0.929,-3.496 1.276,-6.201 l -28.741,11.636 26.878,-2.56 c 0.039,-1.003 0.231,-1.959 0.587,-2.875 m 7.991,20.785 -25.638,-0.789 30.779,7.518 C 288.104,12.186 286.386,9.95 284.857,7.87 m 10.393,13.335 c -1.409,-1.759 -2.745,-3.434 -4.014,-5.034 l -26.812,-3.584 32.406,10.592 c -0.53,-0.664 -1.059,-1.323 -1.58,-1.974 m 2.828,3.535 -28.209,-6.261 33.928,13.533 c -1.91,-2.477 -3.833,-4.908 -5.719,-7.272 m 6.876,8.786 -29.462,-8.798 34.846,16.103 c -1.734,-2.451 -3.545,-4.893 -5.384,-7.305 m 6.418,8.789 -30.121,-11.023 34.659,17.959 c -1.403,-2.296 -2.929,-4.615 -4.538,-6.936 M 216.856,-4.208 c -0.468,0.161 -0.719,0.671 -0.558,1.141 0.161,0.468 0.671,0.717 1.139,0.558 0.469,-0.161 0.719,-0.672 0.559,-1.14 -0.161,-0.469 -0.671,-0.72 -1.14,-0.559 m 3.062,17.741 c -0.756,0.258 -1.156,1.078 -0.899,1.832 0.259,0.754 1.08,1.157 1.833,0.899 0.755,-0.259 1.157,-1.079 0.899,-1.833 -0.259,-0.755 -1.079,-1.157 -1.833,-0.898 M 201.746,-6.892 c -0.928,0.318 -1.424,1.328 -1.105,2.257 0.318,0.928 1.328,1.423 2.256,1.105 0.929,-0.317 1.423,-1.329 1.106,-2.257 -0.317,-0.928 -1.329,-1.423 -2.257,-1.105 m 8.498,35.019 c 0.38,1.114 1.592,1.706 2.706,1.325 1.112,-0.38 1.706,-1.592 1.325,-2.706 -0.381,-1.113 -1.592,-1.706 -2.706,-1.325 -1.113,0.38 -1.706,1.592 -1.325,2.706 m -14.531,-24.042 -0.197,1.585 5.917,0.602 0.182,-0.996 z m -9.07,-13.108 c -1.305,0.447 -2,1.866 -1.553,3.169 0.446,1.305 1.865,2 3.169,1.553 1.304,-0.446 2,-1.866 1.554,-3.17 -0.447,-1.303 -1.867,-1.999 -3.17,-1.552 m 15.735,27.296 -0.903,-0.532 -3.411,4.87 1.311,0.891 z m 1.931,23.77 c 1.407,-0.482 2.157,-2.015 1.675,-3.422 -0.481,-1.408 -2.013,-2.158 -3.421,-1.677 -1.408,0.483 -2.158,2.016 -1.675,3.422 0.481,1.408 2.013,2.158 3.421,1.677 m -33.146,-75.82 -13.598,13.489 c 1.017,0.091 2.035,0.184 3.057,0.281 l 10.541,-13.77 -6.979,14.119 c 0.806,0.082 1.618,0.172 2.427,0.259 l 4.552,-14.378 -1.188,14.745 c 0.804,0.092 1.62,0.194 2.428,0.29 z M 153.744,1.476 153.9,5.923 159.842,5.62 159.754,1.445 Z M 141.405,-12.19 c -2.054,0.704 -3.149,2.939 -2.446,4.993 0.703,2.054 2.939,3.15 4.994,2.447 2.054,-0.704 3.149,-2.94 2.445,-4.994 -0.703,-2.054 -2.938,-3.149 -4.993,-2.446 m 19.243,90.659 c -2.168,0.743 -3.327,3.103 -2.584,5.274 0.744,2.17 3.105,3.327 5.275,2.584 2.169,-0.744 3.326,-3.105 2.583,-5.274 -0.742,-2.171 -3.103,-3.327 -5.274,-2.584 m -27.913,-76.203 0.41,5.247 5.923,-0.51 -0.337,-5.086 z m -6.35,-14.415 c -2.194,0.751 -3.363,3.137 -2.612,5.33 0.751,2.194 3.138,3.362 5.331,2.611 2.193,-0.75 3.362,-3.137 2.611,-5.33 -0.751,-2.193 -3.138,-3.362 -5.33,-2.611 m 22.508,99.741 c -2.261,0.774 -3.465,3.234 -2.691,5.494 0.773,2.26 3.234,3.466 5.493,2.691 2.261,-0.773 3.466,-3.233 2.692,-5.493 -0.775,-2.262 -3.234,-3.466 -5.494,-2.692 m -13.959,-37.62 c -2.012,0.69 -3.085,2.879 -2.397,4.89 0.69,2.013 2.879,3.085 4.892,2.396 2.011,-0.688 3.084,-2.878 2.394,-4.89 -0.688,-2.012 -2.878,-3.085 -4.889,-2.396 m -23.528,-61.52 c -2.283,0.782 -3.501,3.267 -2.718,5.551 0.782,2.283 3.267,3.5 5.55,2.718 2.283,-0.782 3.501,-3.267 2.719,-5.55 -0.782,-2.284 -3.267,-3.502 -5.551,-2.719 m 1.047,21.339 5.903,-0.71 -0.597,-5.645 -5.977,0.613 z m 2.068,17.822 c 0.837,0.074 1.675,0.144 2.511,0.224 l 1.619,0.147 1.896,-0.342 -0.633,-4.382 -5.967,0.736 z m -18.03,-37.988 c -2.329,0.797 -3.571,3.332 -2.772,5.661 0.797,2.327 3.331,3.569 5.66,2.772 2.328,-0.797 3.569,-3.331 2.772,-5.661 -0.797,-2.329 -3.331,-3.569 -5.66,-2.772 m -5.559,17.174 0.919,5.892 5.876,-0.897 -0.851,-5.876 z M 81.653,-8.619 c -2.332,0.799 -3.575,3.336 -2.776,5.669 0.799,2.331 3.336,3.574 5.668,2.776 2.332,-0.799 3.575,-3.336 2.775,-5.668 -0.799,-2.332 -3.335,-3.575 -5.667,-2.777 m -14.738,2.36 c -2.293,0.785 -3.516,3.28 -2.731,5.573 0.787,2.294 3.281,3.516 5.575,2.731 2.293,-0.784 3.515,-3.281 2.729,-5.574 -0.785,-2.293 -3.28,-3.515 -5.573,-2.73 m -8.549,42.847 -0.297,-1.092 -5.783,1.655 0.882,3.084 c -3.318,2.776 -5.907,5.944 -7.985,9.437 -7.963,13.388 -0.75,32.685 -0.844,45.303 -0.889,-1.261 -2.52,-1.852 -4.053,-1.328 -1.858,0.637 -2.85,2.662 -2.214,4.521 0.637,1.86 2.661,2.852 4.521,2.214 0.456,-0.155 0.857,-0.397 1.198,-0.696 0.104,-0.432 0.202,-0.866 0.295,-1.3 0.394,-1.845 0.693,-3.701 0.871,-5.566 0.254,-2.785 0.272,-5.577 0.086,-8.36 -0.3,-5.569 -1.466,-11.088 -1.631,-16.874 -0.093,-2.883 0.119,-5.836 0.801,-8.708 0.692,-2.869 1.824,-5.631 3.283,-8.177 2.963,-5.058 6.956,-9.425 11.641,-12.907 3.905,-2.86 8.24,-5.057 12.745,-6.693 -5.336,1.433 -9.777,3.282 -13.516,5.487 M 52.301,-3.27 c -2.209,0.757 -3.388,3.161 -2.631,5.371 0.758,2.21 3.162,3.388 5.371,2.63 2.209,-0.755 3.388,-3.16 2.632,-5.37 -0.757,-2.21 -3.163,-3.387 -5.372,-2.631 m -2.576,18.587 1.31,5.26 5.786,-1.311 -1.269,-5.438 z M 37.837,0.378 c -2.079,0.713 -3.188,2.975 -2.476,5.053 0.711,2.079 2.975,3.188 5.053,2.475 2.078,-0.711 3.188,-2.973 2.477,-5.052 -0.713,-2.079 -2.976,-3.187 -5.054,-2.476 m -8.297,20.931 1.401,4.503 5.723,-1.583 -1.398,-4.788 z M 23.558,4.718 c -1.898,0.65 -2.91,2.715 -2.26,4.612 0.649,1.898 2.715,2.909 4.612,2.26 1.899,-0.65 2.909,-2.715 2.26,-4.613 C 27.52,5.08 25.456,4.068 23.558,4.718 m 10.385,43.92 5.676,-1.751 -1.663,-5.2 -5.682,1.966 z M 9.503,9.784 c -1.662,0.57 -2.549,2.379 -1.981,4.043 0.57,1.663 2.381,2.549 4.044,1.981 1.664,-0.57 2.55,-2.381 1.981,-4.044 -0.57,-1.663 -2.381,-2.55 -4.044,-1.98 m 1.689,22.395 5.608,-1.943 -1.391,-3.77 -5.56,2.327 z m 1.493,19.162 1.556,3.924 5.602,-1.986 -1.61,-4.264 z m 13.261,46.33 c -1.559,0.535 -2.39,2.232 -1.857,3.791 0.534,1.558 2.231,2.39 3.789,1.855 1.56,-0.533 2.391,-2.23 1.857,-3.789 -0.534,-1.559 -2.231,-2.389 -3.789,-1.857 M -4.27,15.645 c -1.357,0.465 -2.082,1.942 -1.617,3.301 0.466,1.359 1.943,2.082 3.302,1.617 1.357,-0.465 2.082,-1.943 1.616,-3.301 -0.465,-1.358 -1.942,-2.082 -3.301,-1.617 m 0.528,19.639 -5.266,2.919 0.996,1.895 5.408,-2.453 z M -17.72,22.312 c -1,0.344 -1.534,1.43 -1.192,2.43 0.344,1.001 1.431,1.533 2.43,1.191 1,-0.342 1.534,-1.43 1.191,-2.43 -0.343,-1 -1.431,-1.532 -2.429,-1.191 m 30.161,121.645 c -1.234,0.423 -1.891,1.766 -1.469,3 0.422,1.232 1.765,1.89 2.998,1.468 1.234,-0.423 1.891,-1.765 1.469,-2.999 -0.421,-1.234 -1.765,-1.892 -2.998,-1.469 M -3.113,103.019 c -0.659,0.226 -1.011,0.944 -0.785,1.604 0.226,0.66 0.945,1.012 1.604,0.786 0.66,-0.227 1.012,-0.945 0.786,-1.605 -0.226,-0.659 -0.944,-1.012 -1.605,-0.785 M -30.76,29.892 c -0.558,0.191 -0.856,0.798 -0.664,1.356 0.192,0.559 0.799,0.856 1.358,0.665 0.557,-0.192 0.854,-0.798 0.664,-1.356 -0.192,-0.56 -0.799,-0.857 -1.358,-0.665 m 29.888,95.484 6.031,0.086 -0.11,-2.44 -5.917,0.351 z m -1.397,19.936 c -0.894,0.307 -1.37,1.279 -1.065,2.173 0.308,0.895 1.279,1.371 2.174,1.065 0.894,-0.306 1.371,-1.279 1.065,-2.174 -0.306,-0.894 -1.279,-1.37 -2.174,-1.064 M -5.141,62.809 c 1.837,-0.758 3.684,-1.488 5.505,-2.266 L -0.92,57.716 c -1.788,0.911 -3.551,1.871 -5.324,2.802 z m 18.045,42.273 c 1.168,-0.4 1.79,-1.67 1.391,-2.838 -0.401,-1.168 -1.671,-1.791 -2.839,-1.391 -1.167,0.4 -1.791,1.671 -1.392,2.838 0.401,1.168 1.671,1.79 2.84,1.391 m 16.075,42.089 c 1.513,-0.519 2.321,-2.166 1.802,-3.679 -0.517,-1.515 -2.166,-2.322 -3.68,-1.803 -1.513,0.518 -2.321,2.165 -1.802,3.679 0.518,1.515 2.167,2.321 3.68,1.803 m -3.42,-27.104 -5.824,1.08 0.473,3.392 5.987,-0.756 z m 18.261,24.826 c 1.755,-0.601 2.69,-2.511 2.088,-4.264 -0.599,-1.755 -2.509,-2.69 -4.263,-2.089 -1.754,0.6 -2.69,2.509 -2.088,4.264 0.6,1.754 2.509,2.689 4.263,2.089 m 19.997,20.432 c 3.839,1.773 7.778,3.318 11.789,4.634 4.018,1.295 8.112,2.343 12.248,3.157 8.273,1.631 16.734,2.156 25.119,1.712 8.383,-0.522 16.682,-2.025 24.701,-4.414 -7.409,1.456 -14.976,2.09 -22.488,1.716 -3.758,-0.18 -7.492,-0.645 -11.191,-1.27 -3.691,-0.684 -7.337,-1.58 -10.917,-2.68 -7.154,-2.237 -14.02,-5.32 -20.487,-9.069 -1.177,-0.683 -2.336,-1.394 -3.486,-2.12 -1.071,0.281 -2.153,0.554 -3.239,0.823 1.85,1.133 3.722,2.227 5.633,3.253 6.722,3.608 13.819,6.516 21.158,8.547 3.675,0.997 7.402,1.784 11.158,2.352 3.766,0.511 7.552,0.855 11.345,0.911 7.586,0.127 15.158,-0.765 22.514,-2.463 -8.087,2.15 -16.401,3.397 -24.733,3.667 -8.334,0.193 -16.68,-0.578 -24.781,-2.427 -4.05,-0.923 -8.042,-2.074 -11.951,-3.463 -3.9,-1.408 -7.716,-3.039 -11.421,-4.886 -2.291,-1.146 -4.538,-2.376 -6.74,-3.68 -1.211,0.26 -2.432,0.511 -3.659,0.756 3.06,1.807 6.211,3.452 9.428,4.944 m 66.1,2.977 c -2.522,-0.9 -4.976,-1.976 -7.358,-3.182 -4.762,-2.43 -9.195,-5.441 -13.384,-8.743 -3.681,-2.908 -7.162,-6.056 -10.633,-9.248 -0.743,0.311 -1.484,0.622 -2.243,0.928 3.889,3.263 7.822,6.534 11.976,9.514 4.397,3.147 9.034,5.991 13.959,8.222 2.465,1.107 4.989,2.078 7.568,2.864 2.586,0.762 5.217,1.348 7.872,1.756 -6.036,-0.086 -12.04,-0.982 -17.793,-2.705 -5.759,-1.705 -11.257,-4.18 -16.443,-7.166 -4.999,-2.86 -9.683,-6.222 -14.214,-9.788 -0.837,0.302 -1.676,0.604 -2.529,0.899 0.208,0.152 0.412,0.309 0.62,0.46 4.906,3.568 10,6.935 15.404,9.741 5.392,2.814 11.076,5.093 16.964,6.576 5.883,1.499 11.958,2.146 17.991,1.983 v 10e-4 -10e-4 c -2.635,-0.531 -5.227,-1.236 -7.757,-2.111 M 100.598,126.6 c 2.281,-0.781 3.497,-3.265 2.716,-5.547 -0.781,-2.281 -3.264,-3.497 -5.546,-2.717 -2.282,0.782 -3.498,3.265 -2.717,5.548 0.782,2.281 3.264,3.497 5.547,2.716 m 5.615,-28.666 -2.607,-5.355 -5.34,2.571 2.498,5.354 z m 7.769,22.051 c 2.325,-0.796 3.565,-3.327 2.768,-5.651 -0.796,-2.326 -3.326,-3.565 -5.65,-2.769 -2.326,0.796 -3.565,3.327 -2.769,5.651 0.796,2.326 3.326,3.565 5.651,2.769 m -2.116,-47.037 c 2.294,-0.785 3.518,-3.282 2.733,-5.576 -0.786,-2.294 -3.284,-3.518 -5.579,-2.732 -2.293,0.786 -3.516,3.282 -2.73,5.577 0.784,2.294 3.281,3.517 5.576,2.731 m 15.116,39.684 c 2.339,-0.801 3.586,-3.347 2.786,-5.685 -0.801,-2.339 -3.346,-3.586 -5.684,-2.785 -2.34,0.801 -3.587,3.347 -2.785,5.685 0.801,2.339 3.346,3.585 5.683,2.785 m -4.957,-29.606 -5.21,2.833 2.786,5.169 5.269,-2.926 z m 2.788,-17.615 c 2.186,-0.749 3.352,-3.129 2.603,-5.316 -0.749,-2.187 -3.128,-3.352 -5.315,-2.603 -2.187,0.748 -3.353,3.129 -2.604,5.314 0.748,2.188 3.129,3.353 5.316,2.605 m 14.752,39.146 c 2.319,-0.794 3.554,-3.316 2.76,-5.635 -0.794,-2.318 -3.316,-3.554 -5.634,-2.76 -2.318,0.794 -3.554,3.316 -2.76,5.634 0.794,2.318 3.316,3.554 5.634,2.761 M 119.544,28.065 c 0.201,0.007 0.403,0.011 0.604,0.017 -0.339,-0.02 -0.668,-0.035 -1.005,-0.053 z M 46.74,85.583 c 0.393,-5.27 0.047,-10.607 0.65,-16.063 0.449,-5.468 2.485,-10.886 5.52,-15.497 3.095,-4.582 6.882,-8.625 11.228,-11.979 4.337,-3.364 9.163,-6.052 14.202,-8.126 5.068,-2.019 10.322,-3.501 15.656,-4.406 1.166,-0.208 2.336,-0.38 3.508,-0.541 -1.915,0.127 -3.825,0.278 -5.726,0.49 -5.531,0.659 -11.018,1.654 -16.253,3.397 -5.237,1.694 -10.242,4.086 -14.617,7.338 -4.4,3.19 -8.163,7.313 -10.983,11.93 -1.4,2.31 -2.485,4.788 -3.185,7.384 -0.666,2.604 -0.982,5.308 -1.013,8.057 -0.044,5.501 0.804,11.143 0.769,16.852 -0.025,2.85 -0.221,5.71 -0.726,8.512 -0.098,0.548 -0.216,1.092 -0.336,1.635 0.694,-2.957 1.133,-5.962 1.306,-8.983 m 1.807,1.242 c 1.135,-4.914 1.663,-9.988 2.964,-15.038 1.222,-5.067 3.572,-9.939 6.668,-14.177 0.72,-1.108 1.621,-2.059 2.459,-3.068 0.819,-1.031 1.762,-1.92 2.675,-2.847 0.92,-0.915 1.821,-1.855 2.761,-2.751 l 2.961,-2.535 1.497,-1.249 1.583,-1.136 c 1.061,-0.754 2.108,-1.523 3.177,-2.259 2.233,-1.323 4.38,-2.801 6.729,-3.909 4.594,-2.41 9.43,-4.327 14.383,-5.773 2.511,-0.756 5.052,-1.392 7.612,-1.924 -3.217,0.427 -6.414,0.956 -9.57,1.641 -2.574,0.582 -5.127,1.236 -7.637,2.008 -2.506,0.792 -4.977,1.676 -7.377,2.72 -4.801,2.068 -9.379,4.647 -13.462,7.873 -8.161,6.36 -14.99,15.007 -16.276,25.423 -0.775,5.152 -0.76,10.551 -1.501,15.91 -0.569,4.242 -1.65,8.434 -3.324,12.347 1.612,-3.633 2.846,-7.401 3.678,-11.256 m -3.812,12.264 c 2.206,-3.47 4.114,-7.094 5.658,-10.867 1.901,-4.478 3.326,-9.169 5.259,-13.765 1.882,-4.618 4.483,-9.018 7.621,-12.953 1.568,-1.969 3.3,-3.808 5.072,-5.533 l 2.654,-2.622 2.783,-2.486 c 7.486,-6.555 15.967,-11.988 25.046,-16.02 3.642,-1.645 7.402,-3.006 11.23,-4.125 -4.395,0.938 -8.72,2.132 -12.941,3.585 -1.192,0.404 -2.383,0.81 -3.538,1.307 -1.161,0.479 -2.347,0.9 -3.493,1.411 l -3.411,1.585 c -1.15,0.504 -2.214,1.172 -3.325,1.749 -2.243,1.123 -4.306,2.545 -6.442,3.842 l -3.034,2.202 -1.514,1.104 -1.426,1.212 -2.87,2.41 c -0.91,0.853 -1.782,1.749 -2.676,2.621 -0.884,0.88 -1.809,1.733 -2.584,2.695 -0.796,0.947 -1.66,1.846 -2.365,2.857 -3.036,3.903 -5.255,8.34 -6.692,13.117 -1.436,4.777 -2.297,9.841 -3.789,14.782 -1.253,4.164 -2.967,8.204 -5.223,11.892 m 42.221,7.441 -2.222,-5.338 -5.48,2.255 2.112,5.328 z m -0.099,25.91 c 2.206,-0.755 3.383,-3.155 2.627,-5.361 -0.754,-2.206 -3.155,-3.382 -5.362,-2.628 -2.206,0.756 -3.382,3.157 -2.627,5.363 0.757,2.206 3.156,3.382 5.362,2.626 m -19.681,-18.591 -1.754,-5.086 -5.594,1.949 1.61,4.975 z m 5.617,23.618 c 2.095,-0.717 3.211,-2.996 2.495,-5.091 -0.719,-2.094 -2.997,-3.212 -5.091,-2.494 -2.095,0.718 -3.213,2.997 -2.495,5.091 0.716,2.094 2.996,3.212 5.091,2.494 m 6.668,16.562 c -0.945,0.294 -1.9,0.582 -2.862,0.868 0.899,0.592 1.791,1.192 2.705,1.762 5.783,3.629 11.886,6.784 18.271,9.207 3.187,1.224 6.445,2.26 9.757,3.069 3.306,0.823 6.66,1.462 10.044,1.827 1.685,0.236 3.387,0.299 5.079,0.435 1.7,0.022 3.396,0.136 5.093,0.055 3.395,-0.012 6.772,-0.4 10.126,-0.838 -3.37,0.315 -6.747,0.578 -10.126,0.465 -1.69,0.019 -3.372,-0.158 -5.056,-0.24 -1.676,-0.199 -3.357,-0.322 -5.017,-0.618 -3.334,-0.483 -6.623,-1.237 -9.853,-2.169 -3.234,-0.916 -6.402,-2.053 -9.49,-3.373 -6.188,-2.612 -12.057,-5.925 -17.606,-9.697 -0.359,-0.244 -0.707,-0.506 -1.065,-0.753 m 3.391,-67.757 c 0.712,0.123 1.46,0.096 2.19,-0.156 1.735,-0.593 2.862,-2.154 2.989,-3.872 1.789,-1.505 3.499,-3.059 5.129,-4.654 0.979,1.992 3.291,3.007 5.445,2.269 2.337,-0.8 3.583,-3.343 2.784,-5.681 -0.432,-1.262 -1.381,-2.19 -2.522,-2.665 12.953,-14.962 20.153,-31.654 24.969,-40.34 -1.397,1.672 -2.622,3.495 -3.795,5.354 -2.583,4.095 -4.997,8.34 -7.648,12.458 -2.607,4.147 -5.455,8.161 -8.482,12.044 -3.056,3.86 -6.357,7.535 -9.853,11.013 -7.06,6.893 -15.014,12.866 -23.576,17.705 -8.567,4.826 -17.662,8.647 -27.045,11.35 8.965,-3.868 17.656,-8.228 25.854,-13.344 4.053,-2.627 8.08,-5.29 11.827,-8.324 3.777,-2.983 7.456,-6.1 10.847,-9.518 6.895,-6.724 12.928,-14.283 18.489,-22.223 2.791,-3.966 5.472,-8.034 8.378,-11.992 1.488,-1.952 3.008,-3.909 4.827,-5.607 0.504,-0.455 1.025,-0.898 1.573,-1.303 0.006,-0.007 0.011,-0.015 0.015,-0.022 -0.701,0.424 -1.369,0.904 -2.012,1.412 -1.839,1.464 -3.514,3.131 -5.106,4.881 -3.205,3.482 -6.186,7.199 -9.259,10.851 -3.036,3.685 -6.177,7.299 -9.368,10.875 -3.222,3.549 -6.54,7.018 -9.965,10.382 -3.452,3.343 -7.035,6.549 -10.591,9.711 -3.591,3.15 -7.186,6.328 -10.978,9.283 -7.543,5.958 -15.773,11.088 -24.531,14.938 8.189,-4.952 15.891,-10.521 23.053,-16.731 3.566,-3.126 7.083,-6.314 10.56,-9.58 3.509,-3.252 7.036,-6.419 10.4,-9.758 6.823,-6.595 13.221,-13.616 19.664,-20.655 3.223,-3.519 6.464,-7.049 9.977,-10.351 1.703,-1.565 3.478,-3.082 5.431,-4.361 -2.146,1.156 -4.164,2.573 -6.112,4.031 -3.761,2.82 -7.288,5.956 -10.792,9.118 -6.949,6.399 -13.757,12.99 -20.614,19.544 -3.437,3.261 -6.953,6.487 -10.262,9.785 -3.35,3.293 -6.484,6.823 -9.732,10.293 -3.215,3.496 -6.561,6.926 -10.14,10.096 -3.591,3.153 -7.393,6.058 -11.433,8.569 3.652,-3.044 7.161,-6.221 10.426,-9.626 3.296,-3.374 6.35,-6.96 9.407,-10.579 3.032,-3.641 6.153,-7.252 9.455,-10.727 3.342,-3.468 6.816,-6.663 10.219,-9.975 3.451,-3.255 6.91,-6.512 10.404,-9.73 3.539,-3.175 7.054,-6.381 10.739,-9.409 3.671,-3.041 7.454,-5.975 11.49,-8.567 1.275,-0.821 2.596,-1.578 3.946,-2.277 -1.6,0.68 -3.168,1.438 -4.71,2.237 -4.222,2.172 -8.267,4.675 -12.191,7.35 -7.809,5.409 -15.21,11.41 -22.197,17.869 l -2.638,2.404 -2.576,2.474 c -1.737,1.644 -3.385,3.31 -4.973,5.044 -3.193,3.454 -5.991,7.248 -8.651,11.197 -2.647,3.953 -5.24,8.032 -8.206,11.852 -2.97,3.812 -6.269,7.37 -9.944,10.463 3.216,-3.567 6.164,-7.327 8.758,-11.313 2.64,-3.954 4.922,-8.139 7.436,-12.257 2.459,-4.144 5.312,-8.13 8.503,-11.821 1.59,-1.851 3.325,-3.583 5.043,-5.255 l 2.584,-2.529 2.649,-2.462 c 3.557,-3.257 7.256,-6.362 11.053,-9.341 3.837,-2.931 7.776,-5.739 11.889,-8.28 4.104,-2.553 8.391,-4.827 12.842,-6.724 0.347,-0.146 0.702,-0.268 1.052,-0.407 -0.658,0.209 -1.319,0.408 -1.972,0.633 -4.621,1.547 -9.116,3.435 -13.456,5.612 -4.309,2.228 -8.585,4.538 -12.559,7.321 -1.019,0.653 -2.006,1.354 -2.984,2.072 -0.977,0.716 -1.974,1.402 -2.934,2.14 l -2.833,2.276 c -0.469,0.383 -0.951,0.749 -1.41,1.145 l -1.356,1.21 -2.733,2.393 -2.609,2.532 c -1.77,1.673 -3.397,3.426 -4.945,5.251 -3.105,3.647 -5.605,7.742 -7.682,12.11 -2.056,4.379 -3.803,9.006 -6.055,13.432 -2.252,4.419 -4.983,8.604 -8.281,12.262 16.101,-1.706 28.997,-7.344 39.415,-14.825 m -37.159,28.87 -5.71,1.576 1.05,4.356 5.875,-1.36 z m 8.016,24.177 c 0.665,1.945 2.782,2.982 4.728,2.317 1.944,-0.666 2.981,-2.783 2.315,-4.728 -0.666,-1.946 -2.782,-2.983 -4.728,-2.317 -1.945,0.667 -2.981,2.783 -2.315,4.728 M 76.121,9.353 l -5.899,1.167 1.144,5.746 5.84,-1.093 z m 61.687,71.027 5.059,-3.284 -2.975,-4.618 -5.055,3.103 z m 3.32,-55.87 -0.228,-2.885 -6.011,0.299 0.341,3.368 z m 11.124,39.804 2.978,4.159 4.805,-3.646 -2.945,-3.931 z m -2.565,-15.831 c 1.76,-0.603 2.699,-2.519 2.096,-4.28 -0.603,-1.76 -2.519,-2.698 -4.28,-2.095 -1.76,0.602 -2.699,2.518 -2.096,4.278 0.603,1.761 2.519,2.7 4.28,2.097 m 19.184,3.442 2.772,3.269 4.461,-4.063 -2.679,-2.992 z m -6.99,-28.829 0.056,-0.504 c -1.981,-0.262 -3.978,-0.509 -5.984,-0.739 l -0.022,1.293 c 1.971,0 3.953,-0.017 5.95,-0.05 m 7.615,50.685 c 0.699,2.044 2.922,3.133 4.966,2.433 2.044,-0.699 3.133,-2.922 2.433,-4.965 -0.7,-2.044 -2.923,-3.133 -4.967,-2.435 -2.043,0.701 -3.132,2.924 -2.432,4.967 m -7.943,-34.714 c 1.426,-0.487 2.184,-2.037 1.696,-3.461 -0.487,-1.425 -2.037,-2.184 -3.462,-1.696 -1.424,0.488 -2.183,2.037 -1.695,3.462 0.487,1.424 2.037,2.184 3.461,1.695 m 38.953,51.253 -9.167,-16.591 c -0.558,0.686 -1.14,1.371 -1.708,2.057 L 200.506,90.32 187.627,78.191 c -0.552,0.653 -1.115,1.305 -1.677,1.956 l 14.556,10.173 -17.194,-7.145 c -0.585,0.66 -1.18,1.319 -1.774,1.976 l 18.968,5.169 -21.509,-2.383 c -0.762,0.823 -1.536,1.642 -2.313,2.46 z M 182.699,58.656 c -1.879,0.642 -2.88,2.686 -2.237,4.565 0.643,1.877 2.687,2.879 4.565,2.236 1.877,-0.643 2.879,-2.687 2.237,-4.565 -0.644,-1.878 -2.688,-2.879 -4.565,-2.236 M 160.994,-9.461 c -0.638,-1.866 -2.668,-2.86 -4.533,-2.222 -1.864,0.64 -2.86,2.669 -2.22,4.534 0.639,1.865 2.668,2.859 4.533,2.221 1.865,-0.638 2.859,-2.669 2.22,-4.533 m 10.764,34.868 c -0.981,0.336 -1.504,1.404 -1.168,2.385 0.336,0.981 1.403,1.504 2.384,1.168 0.981,-0.336 1.503,-1.404 1.169,-2.384 -0.336,-0.982 -1.404,-1.504 -2.385,-1.169 m 14.884,14.921 3.921,-4.588 -2.061,-1.813 -4.141,4.236 z m 8.35,13.74 c 1.672,-0.572 2.564,-2.391 1.99,-4.063 -0.572,-1.671 -2.39,-2.562 -4.062,-1.989 -1.671,0.572 -2.563,2.391 -1.99,4.063 0.573,1.671 2.391,2.561 4.062,1.989 M 182.846,17.624 c 0.146,0.43 0.615,0.66 1.046,0.513 0.43,-0.148 0.659,-0.616 0.511,-1.046 -0.145,-0.431 -0.615,-0.66 -1.046,-0.512 -0.429,0.147 -0.658,0.614 -0.511,1.045 m -7.363,-26.328 c -0.555,-1.622 -2.321,-2.487 -3.944,-1.931 -1.622,0.555 -2.486,2.321 -1.932,3.943 0.557,1.622 2.322,2.486 3.944,1.932 1.623,-0.556 2.487,-2.322 1.932,-3.944 m -0.709,10.591 -0.068,3.263 5.949,-0.016 0.12,-2.854 z M -72.497,102.169 c -7.261,2.355 -11.239,10.148 -8.884,17.41 2.355,7.261 10.148,11.238 17.41,8.883 7.261,-2.353 11.238,-10.148 8.885,-17.408 -2.355,-7.263 -10.15,-11.24 -17.411,-8.885 m 55.544,43.507 c -0.496,0.17 -0.759,0.708 -0.59,1.203 0.169,0.493 0.708,0.757 1.203,0.587 0.494,-0.169 0.758,-0.706 0.588,-1.201 -0.17,-0.495 -0.708,-0.758 -1.201,-0.589 M 298.018,-90.879 c -6.836,15.473 -8.413,38.912 -9.563,56.026 -0.764,11.347 -1.365,20.32 -3.207,25.12 -0.193,1.506 1.516,4.643 4.106,8.454 l 0.601,0.022 -0.553,0.051 c 3.512,5.156 8.622,11.536 12.845,16.806 12.956,16.169 27.64,34.494 30.415,50.5 l 2.231,12.871 -9.561,-8.697 c -6.412,-4.696 -78.765,-43.78 -98.938,-50.402 -7.45,14.665 -17.477,31.255 -30.409,47.985 l 6.239,23.093 -33.125,7.167 c -15.12,14.79 -32.81,28.781 -53.341,40.609 -0.072,0.041 -0.15,0.082 -0.223,0.124 4.968,6.823 12.062,25.653 22.139,31.564 -4.311,-2.176 -8.29,-4.935 -11.914,-8.085 -3.642,-3.134 -6.971,-6.603 -10.182,-10.185 -2.695,-2.99 -5.299,-6.07 -8.051,-9.07 -0.67,0.327 -1.344,0.654 -2.033,0.977 3.037,2.954 5.966,6.086 8.999,9.12 3.412,3.433 6.958,6.766 10.794,9.737 3.818,2.988 7.971,5.557 12.387,7.506 -25.357,8.222 -55.73,13.587 -90.76,-8.657 -28.966,4.896 -61.369,5.253 -91.531,-3.016 3.32,-3.445 6.201,-7.272 8.63,-11.328 5.888,-9.856 9.233,-20.9 10.801,-32.015 1.535,-11.144 1.312,-22.454 -0.482,-33.464 -1.825,-10.988 -5.211,-21.793 -10.805,-31.386 5.156,9.833 8.011,20.683 9.326,31.595 1.281,10.929 0.987,22.031 -0.988,32.776 -2.004,10.719 -5.727,21.154 -11.646,30.105 -2.952,4.464 -6.458,8.528 -10.476,11.953 -0.028,0.024 -0.056,0.046 -0.084,0.069 -3.485,-1.095 -6.938,-2.301 -10.344,-3.645 1.125,-0.939 2.214,-1.916 3.258,-2.934 4.364,-4.235 8.003,-9.082 10.941,-14.219 5.874,-10.309 9.027,-21.656 10.379,-32.971 1.313,-11.342 0.834,-22.756 -1.217,-33.807 -2.081,-11.026 -5.732,-21.808 -11.545,-31.282 4.935,9.954 7.526,20.826 8.586,31.7 1.025,10.889 0.473,21.885 -1.724,32.433 -2.219,10.52 -6.135,20.651 -12.066,29.15 -2.96,4.239 -6.421,8.042 -10.322,11.196 -2.579,2.093 -5.355,3.882 -8.269,5.368 -19.779,-9.978 -37.551,-24.854 -51.335,-46.052 -0.279,-2.29 0.244,-5.407 1.585,-9.152 l 26.854,-11.327 -25.513,7.987 C -110.436,65.435 -71.211,21.399 0.67,-3.562 0.289,-2.287 -0.046,-1 -0.309,0.302 v 0.001 c 0,0 0.002,0 0.002,0 7.029,2.717 14.88,3.269 22.39,2.072 0.944,-0.134 1.887,-0.278 2.812,-0.509 l 2.792,-0.631 c 1.826,-0.54 3.679,-1.016 5.456,-1.718 3.583,-1.316 7.078,-2.9 10.377,-4.873 1.651,-0.981 3.25,-2.061 4.788,-3.247 0.781,-0.576 1.496,-1.263 2.246,-1.892 l 1.048,-1.079 0.522,-0.548 0.499,-0.659 c 0.959,-1.381 1.525,-2.861 1.939,-4.344 27.942,-4.605 59.352,-6.327 94.377,-3.856 l 22.647,-14.819 5.728,17.667 c 14.069,1.814 28.663,4.282 43.796,7.483 10.095,-18.726 34.462,-58.918 70.12,-85.63 l 13.711,-10.27 z"
             style="fill:#000000;fill-opacity:1;fill-rule:nonzero;stroke:none"
             id="path1135" />
        </g>
        <g
           id="g1137"
           transform="translate(399.4541,199.2021)">
          <path
             d="m 0,0 c -3.203,-0.631 -6.352,-1.59 -9.421,-2.791 -3.055,-1.239 -5.999,-2.806 -8.731,-4.71 -2.702,-1.944 -5.19,-4.222 -7.28,-6.834 -2.058,-2.631 -3.753,-5.548 -4.94,-8.642 -1.671,-4.233 -2.46,-8.704 -2.577,-13.155 -0.073,0.636 -0.146,1.273 -0.212,1.907 -0.363,3.687 -0.567,7.392 -0.412,11.042 0.081,1.823 0.255,3.635 0.598,5.372 0.35,1.723 0.862,3.427 1.741,4.734 l 0.339,0.473 0.442,0.479 0.893,0.961 c 0.68,0.588 1.307,1.224 2.028,1.778 1.409,1.145 2.92,2.18 4.459,3.18 3.086,1.995 6.412,3.642 9.831,5.032 1.7,0.73 3.459,1.296 5.211,1.899 l 2.674,0.739 c 0.887,0.268 1.794,0.45 2.705,0.624 0.91,0.162 1.811,0.4 2.729,0.517 L 2.835,2.97 C 3.754,3.119 4.684,3.088 5.611,3.157 6.539,3.198 7.47,3.279 8.397,3.205 L 11.19,3.088 C 12.116,3.001 13.035,2.841 13.962,2.72 L 15.353,2.535 C 15.802,2.445 16.24,2.329 16.692,2.228 L 19.459,1.561 C 19.356,1.458 19.253,1.36 19.15,1.258 12.783,1.649 6.33,1.319 0,0 m 1.133,-3.541 c -2.942,-1.166 -5.781,-2.587 -8.554,-4.135 -2.758,-1.576 -5.403,-3.362 -7.929,-5.314 -4.976,-3.986 -9.388,-8.806 -12.513,-14.406 -1.563,-2.794 -2.786,-5.76 -3.701,-8.798 -0.359,-1.307 -0.643,-2.626 -0.878,-3.952 -0.012,0.079 -0.025,0.158 -0.036,0.237 0.632,5.601 1.884,11.07 4.238,16.013 2.639,5.63 6.735,10.442 11.812,13.957 2.505,1.803 5.247,3.292 8.105,4.54 2.846,1.288 5.841,2.257 8.872,3.132 3.043,0.837 6.143,1.538 9.283,2.091 2.245,0.407 4.508,0.734 6.783,1.048 C 11.321,0.028 6.131,-1.521 1.133,-3.541 M 19.006,1.115 C 13.464,-0.991 8.241,-3.865 3.225,-7.019 c -5.127,-3.22 -9.998,-6.85 -14.62,-10.781 -2.249,-2.037 -4.525,-4.043 -6.638,-6.225 -1.067,-1.079 -2.131,-2.16 -3.127,-3.308 -1.014,-1.13 -2.036,-2.25 -2.995,-3.425 -2.948,-3.568 -5.615,-7.367 -7.937,-11.35 0.556,1.848 1.169,3.665 1.913,5.426 1.206,2.829 2.658,5.523 4.309,8.075 1.677,2.538 3.569,4.924 5.662,7.121 2.071,2.216 4.308,4.286 6.713,6.154 2.375,1.907 4.903,3.627 7.512,5.228 2.593,1.629 5.312,3.059 8.064,4.443 5.44,2.656 11.1,4.924 16.954,6.806 l -0.029,-0.03 m 0.208,0.089 c 0.043,0.015 0.086,0.03 0.129,0.045 -0.046,-0.018 -0.09,-0.037 -0.136,-0.055 0.002,0.004 0.005,0.008 0.007,0.01 m -7.935,-15.898 c -3.586,-4.893 -7.908,-9.194 -12.647,-12.943 -4.75,-3.743 -9.931,-6.917 -15.328,-9.643 -4.469,-2.229 -9.091,-4.143 -13.807,-5.809 4.231,2.309 8.348,4.835 12.29,7.61 4.884,3.319 9.483,7.03 13.976,10.858 4.451,3.878 8.705,7.983 12.702,12.328 3.874,4.214 7.555,8.632 10.7,13.426 0.06,0.038 0.118,0.077 0.178,0.116 -0.033,10e-4 -0.065,0.002 -0.096,0.004 0.068,0.104 0.144,0.203 0.212,0.308 -1.796,-5.873 -4.562,-11.385 -8.18,-16.255 m -10.92,-1.878 -3.25,-2.928 -3.305,-2.866 c -2.191,-1.924 -4.412,-3.817 -6.658,-5.678 l -3.358,-2.809 -3.4,-2.761 c -4.051,-3.328 -8.205,-6.527 -12.314,-9.85 -0.014,0.088 -0.031,0.176 -0.047,0.265 3.09,3.755 6.23,7.407 9.558,10.89 2.133,2.082 4.133,4.282 6.36,6.259 2.126,2.077 4.375,4.027 6.61,5.988 l 3.404,2.884 c 1.138,0.96 2.334,1.847 3.479,2.799 2.317,1.872 4.707,3.653 7.096,5.441 4.622,3.4 9.332,6.696 14.219,9.804 C 14.819,-3.062 10.841,-6.887 6.816,-10.657 4.67,-12.639 2.543,-14.636 0.359,-16.572 m 81.245,132.45 c -0.624,1.922 0.429,3.985 2.352,4.608 1.923,0.623 3.985,-0.429 4.609,-2.351 0.623,-1.922 -0.429,-3.987 -2.351,-4.61 -1.923,-0.623 -3.987,0.43 -4.61,2.353 m -1.738,-4.41 c 1.654,-5.103 7.132,-7.898 12.234,-6.243 5.102,1.654 7.897,7.131 6.243,12.234 -1.655,5.102 -7.131,7.897 -12.234,6.243 -5.102,-1.655 -7.897,-7.132 -6.243,-12.234 M -259.981,36 -297.68,52.04 c -1.21,2.054 -2.32,4.086 -3.279,6.076 9.96,-5.642 25.311,-14.008 40.978,-22.116 m -0.292,-35.043 c -1.15,2.025 -2.602,4.23 -4.335,6.655 l 29.434,-4.375 z m 0.75,-1.372 28.844,-1.064 -26.469,-6.274 c -0.135,2.177 -0.943,4.584 -2.375,7.338 m 0.519,-17.549 25.545,5.639 -26.436,-15.187 c 0.261,3.537 0.544,6.816 0.891,9.548 m -1.355,-16.233 c 0.145,2.159 0.289,4.285 0.439,6.335 l 24.197,9.396 -24.798,-18.109 c 0.055,0.8 0.109,1.594 0.162,2.378 m -2.784,-41.621 c -0.869,-0.809 -1.737,-1.618 -2.622,-2.412 0.436,1.826 0.832,3.681 1.197,5.557 l 16.271,16.797 z m 17.379,28.109 -18.406,-22.808 c 0.404,2.251 0.762,4.527 1.083,6.812 z m 37.713,51.072 c 0.11,-0.315 -0.058,-0.657 -0.374,-0.765 -0.314,-0.108 -0.658,0.06 -0.766,0.375 -0.108,0.315 0.061,0.658 0.376,0.765 0.314,0.109 0.657,-0.059 0.764,-0.375 m -53.975,-58.349 18.809,15.162 -19.626,-22.116 c 0.305,2.318 0.575,4.639 0.817,6.954 m 0.799,8.757 20.558,13.952 -21.215,-21.327 c 0.247,2.48 0.463,4.943 0.657,7.375 m 0.662,8.988 22.41,12.105 -22.99,-20.08 c 0.214,2.714 0.402,5.38 0.58,7.975 m 3.437,28.458 26.876,2.56 -28.739,-11.634 c 0.346,2.705 0.757,4.869 1.274,6.2 0.358,0.917 0.55,1.872 0.589,2.874 m -13.721,24.64 30.782,-7.518 -25.64,0.789 c -1.528,2.08 -3.246,4.316 -5.142,6.729 m -6.831,8.58 32.407,-10.592 -26.812,3.583 c -1.269,1.602 -2.605,3.276 -4.015,5.035 -0.521,0.651 -1.049,1.309 -1.58,1.974 m -6.966,8.833 33.929,-13.533 -28.211,6.262 c -1.884,2.362 -3.808,4.794 -5.718,7.271 m -6.54,8.819 34.844,-16.104 -29.461,8.799 c -1.839,2.412 -3.651,4.855 -5.383,7.305 m -5.573,8.42 34.659,-17.959 -30.122,11.023 c -1.608,2.321 -3.133,4.64 -4.537,6.936 m 97.913,-52.901 c -0.16,0.469 0.091,0.98 0.56,1.14 0.468,0.16 0.977,-0.089 1.138,-0.558 0.161,-0.469 -0.089,-0.979 -0.557,-1.138 -0.47,-0.162 -0.979,0.088 -1.141,0.556 m -3.755,18.08 c -0.257,0.754 0.145,1.576 0.899,1.833 0.754,0.258 1.575,-0.142 1.832,-0.898 0.26,-0.753 -0.143,-1.574 -0.897,-1.832 -0.754,-0.259 -1.575,0.144 -1.834,0.897 m 17.748,-20.217 c -0.317,0.928 0.178,1.938 1.106,2.257 0.929,0.318 1.939,-0.177 2.257,-1.106 0.318,-0.928 -0.177,-1.938 -1.106,-2.256 -0.928,-0.318 -1.938,0.176 -2.257,1.105 m -7.566,31.208 c -1.113,-0.381 -2.324,0.213 -2.706,1.325 -0.381,1.114 0.212,2.325 1.327,2.707 1.112,0.381 2.323,-0.213 2.704,-1.326 0.382,-1.114 -0.211,-2.324 -1.325,-2.706 m 9.955,-20.145 0.183,0.996 5.916,-0.601 -0.197,-1.586 z m 11.802,-12.746 c -0.446,1.304 0.25,2.723 1.554,3.169 1.303,0.447 2.722,-0.248 3.169,-1.552 0.447,-1.304 -0.248,-2.724 -1.552,-3.171 -1.304,-0.446 -2.724,0.248 -3.171,1.554 m -9.563,30.972 1.31,-0.891 -3.409,-4.871 -0.903,0.532 z m -1.511,16.865 c 0.481,-1.408 -0.269,-2.939 -1.677,-3.422 -1.406,-0.482 -2.94,0.269 -3.422,1.676 -0.481,1.407 0.27,2.939 1.677,3.422 1.408,0.481 2.939,-0.269 3.422,-1.676 m 28.483,-59.109 c 0.81,-0.096 1.623,-0.199 2.429,-0.29 l -1.189,-14.747 4.552,14.38 c 0.811,-0.087 1.621,-0.176 2.428,-0.258 l -6.98,-14.122 10.542,13.772 c 1.022,-0.098 2.039,-0.189 3.057,-0.28 l -13.599,-13.492 z m 12.649,20.186 -0.086,4.177 5.941,0.303 0.154,-4.449 z m 13.356,-11.188 c -0.703,2.053 0.392,4.29 2.446,4.993 2.054,0.704 4.289,-0.392 4.993,-2.446 0.704,-2.053 -0.39,-4.29 -2.446,-4.993 -2.055,-0.704 -4.289,0.391 -4.993,2.446 m -19.524,90.796 c -0.742,2.17 0.415,4.531 2.584,5.274 2.17,0.743 4.531,-0.413 5.275,-2.583 0.742,-2.17 -0.414,-4.531 -2.584,-5.274 -2.17,-0.744 -4.531,0.414 -5.275,2.583 m 27.191,-79.135 -0.337,5.086 5.926,0.51 0.408,-5.248 z m 7.017,-11.455 c -0.751,2.193 0.418,4.58 2.611,5.332 2.193,0.749 4.58,-0.419 5.331,-2.614 0.749,-2.192 -0.419,-4.578 -2.612,-5.33 -2.193,-0.751 -4.58,0.419 -5.33,2.612 m -22.672,99.822 c -0.774,2.26 0.431,4.72 2.691,5.493 2.261,0.775 4.721,-0.43 5.495,-2.691 0.774,-2.26 -0.431,-4.721 -2.692,-5.494 -2.26,-0.775 -4.72,0.431 -5.494,2.692 m 14.563,-37.916 c -0.689,2.012 0.384,4.202 2.397,4.891 2.011,0.688 4.2,-0.385 4.888,-2.396 0.69,-2.013 -0.383,-4.201 -2.395,-4.891 -2.012,-0.688 -4.201,0.383 -4.89,2.396 m 22.866,-61.197 c -0.782,2.283 0.436,4.768 2.72,5.55 2.282,0.783 4.768,-0.435 5.55,-2.718 0.781,-2.284 -0.435,-4.769 -2.719,-5.551 -2.284,-0.782 -4.769,0.436 -5.551,2.719 m 5.175,12.878 -5.976,-0.613 -0.598,5.644 5.903,0.71 z m -2.165,19.946 -5.966,-0.734 -0.634,4.379 1.895,0.344 1.621,-0.146 c 0.834,-0.081 1.672,-0.151 2.511,-0.225 z m 11.796,-31.598 c -0.797,2.329 0.445,4.864 2.773,5.661 2.33,0.797 4.863,-0.444 5.66,-2.773 0.797,-2.329 -0.443,-4.863 -2.772,-5.66 -2.329,-0.798 -4.863,0.443 -5.661,2.772 m 5.275,13.523 -0.85,5.874 5.875,0.897 0.921,-5.892 z m 9.555,-11.762 c -0.799,2.332 0.445,4.869 2.777,5.668 2.331,0.799 4.87,-0.444 5.667,-2.776 0.799,-2.332 -0.444,-4.87 -2.776,-5.668 -2.331,-0.799 -4.869,0.445 -5.668,2.776 m 14.833,2.313 c -0.785,2.293 0.438,4.789 2.731,5.574 2.292,0.785 4.788,-0.437 5.574,-2.731 0.785,-2.292 -0.438,-4.788 -2.731,-5.573 -2.294,-0.785 -4.789,0.438 -5.574,2.73 m 0.608,34.63 c 4.504,1.638 8.839,3.833 12.744,6.693 4.685,3.483 8.678,7.848 11.641,12.907 1.458,2.545 2.59,5.308 3.283,8.176 0.681,2.873 0.893,5.825 0.802,8.71 -0.165,5.785 -1.332,11.303 -1.631,16.874 -0.187,2.783 -0.169,5.574 0.085,8.359 0.177,1.864 0.476,3.722 0.87,5.566 0.093,0.434 0.192,0.868 0.296,1.3 0.341,0.299 0.742,0.54 1.198,0.697 1.86,0.635 3.883,-0.356 4.52,-2.215 0.637,-1.86 -0.354,-3.883 -2.215,-4.521 -1.531,-0.525 -3.162,0.068 -4.05,1.327 -0.094,-12.618 7.117,-31.915 -0.845,-45.301 -2.078,-3.493 -4.666,-6.661 -7.984,-9.439 l 0.88,-3.083 -5.782,-1.655 -0.299,1.093 c -3.736,-2.205 -8.178,-4.055 -13.513,-5.488 m 14.208,-31.74 c -0.756,2.209 0.421,4.614 2.631,5.372 2.209,0.755 4.615,-0.423 5.371,-2.633 0.757,-2.209 -0.421,-4.613 -2.631,-5.371 -2.209,-0.756 -4.614,0.422 -5.371,2.632 m 2.122,14.467 -1.271,5.437 5.786,1.311 1.31,-5.259 z M -23.738,4.111 c -0.712,2.079 0.396,4.341 2.474,5.053 2.079,0.712 4.341,-0.396 5.053,-2.475 0.712,-2.079 -0.396,-4.34 -2.475,-5.052 -2.079,-0.712 -4.34,0.396 -5.052,2.474 m 7.623,16.588 -1.397,4.788 5.72,1.582 1.402,-4.503 z M -9.02,8.235 c -0.649,1.898 0.363,3.962 2.26,4.613 1.898,0.649 3.963,-0.363 4.612,-2.26 C -1.498,8.69 -2.51,6.626 -4.407,5.977 -6.304,5.326 -8.37,6.338 -9.02,8.235 m -4.103,36.677 -5.682,-1.968 -1.664,5.202 5.675,1.75 z M 5.604,13.022 c -0.57,1.664 0.317,3.474 1.981,4.043 1.663,0.571 3.474,-0.316 4.044,-1.98 0.568,-1.663 -0.319,-3.474 -1.983,-4.044 -1.663,-0.569 -3.472,0.317 -4.042,1.981 m 3.697,17.03 -5.559,-2.327 -1.39,3.77 5.607,1.943 z M 0.916,50.273 -0.691,54.535 4.91,56.522 6.466,52.6 Z m -11.5,50.513 c -0.534,1.56 0.297,3.256 1.856,3.789 1.559,0.535 3.255,-0.297 3.789,-1.856 0.535,-1.559 -0.296,-3.255 -1.856,-3.789 -1.56,-0.534 -3.255,0.297 -3.789,1.856 M 20.119,18.52 c -0.465,1.358 0.259,2.836 1.617,3.301 1.358,0.464 2.836,-0.259 3.301,-1.618 0.465,-1.357 -0.259,-2.836 -1.617,-3.301 -1.358,-0.465 -2.836,0.259 -3.301,1.618 m 1.635,20.383 5.409,2.453 0.995,-1.895 -5.266,-2.919 z M 34.441,24.761 c -0.341,1.001 0.192,2.088 1.191,2.43 1,0.342 2.088,-0.191 2.431,-1.191 0.341,-0.999 -0.191,-2.087 -1.191,-2.43 -1,-0.342 -2.088,0.192 -2.431,1.191 M 3.711,146.685 c -0.423,1.233 0.235,2.576 1.469,2.998 1.234,0.422 2.577,-0.236 3,-1.469 0.422,-1.234 -0.237,-2.577 -1.47,-2.998 -1.233,-0.423 -2.576,0.234 -2.999,1.469 m 16.948,-41.623 c -0.225,0.66 0.125,1.379 0.786,1.605 0.659,0.226 1.378,-0.126 1.604,-0.787 0.226,-0.658 -0.126,-1.378 -0.786,-1.604 -0.66,-0.226 -1.378,0.126 -1.604,0.786 M 48.553,31.813 c -0.191,0.559 0.107,1.166 0.665,1.358 0.558,0.191 1.166,-0.107 1.357,-0.665 0.191,-0.559 -0.106,-1.166 -0.665,-1.358 -0.558,-0.191 -1.166,0.108 -1.357,0.665 m -28.534,92.82 -5.918,-0.354 -0.11,2.441 6.03,-0.086 z m -0.773,23.001 c -0.307,0.894 0.171,1.867 1.064,2.175 0.895,0.305 1.868,-0.172 2.174,-1.066 0.306,-0.893 -0.171,-1.867 -1.065,-2.173 -0.894,-0.306 -1.866,0.17 -2.173,1.064 m 6.149,-85.859 c -1.774,-0.93 -3.537,-1.89 -5.325,-2.8 l -1.284,2.827 c 1.821,0.778 3.668,1.508 5.505,2.264 z m -16.31,43.174 c 0.4,-1.168 -0.222,-2.437 -1.39,-2.838 -1.169,-0.4 -2.438,0.223 -2.839,1.39 -0.399,1.168 0.223,2.44 1.391,2.839 1.167,0.4 2.438,-0.223 2.838,-1.391 m -15.233,41.677 c 0.517,-1.514 -0.289,-3.161 -1.803,-3.68 -1.514,-0.517 -3.161,0.289 -3.68,1.803 -0.517,1.514 0.289,3.161 1.803,3.68 1.513,0.518 3.161,-0.289 3.68,-1.803 m -0.897,-21.586 5.988,0.757 0.472,-3.391 -5.823,-1.081 z m -13.361,19.022 c 0.6,-1.755 -0.334,-3.664 -2.088,-4.264 -1.755,-0.601 -3.664,0.334 -4.265,2.088 -0.6,1.754 0.335,3.664 2.089,4.264 1.754,0.601 3.663,-0.334 4.264,-2.088 m -14.832,17.577 c -1.227,-0.244 -2.447,-0.496 -3.659,-0.756 -2.202,1.304 -4.449,2.534 -6.741,3.679 -3.705,1.847 -7.52,3.478 -11.422,4.887 -3.907,1.389 -7.9,2.54 -11.95,3.462 -8.1,1.85 -16.447,2.621 -24.78,2.428 -8.333,-0.27 -16.647,-1.517 -24.733,-3.668 7.355,1.7 14.926,2.592 22.512,2.463 3.794,-0.056 7.58,-0.4 11.346,-0.91 3.758,-0.568 7.484,-1.355 11.159,-2.351 7.338,-2.032 14.437,-4.94 21.157,-8.548 1.911,-1.025 3.784,-2.121 5.633,-3.252 -1.086,-0.27 -2.167,-0.543 -3.238,-0.823 -1.151,0.724 -2.31,1.436 -3.486,2.119 -6.467,3.75 -13.333,6.832 -20.487,9.069 -3.582,1.099 -7.227,1.997 -10.918,2.68 -3.698,0.625 -7.432,1.091 -11.19,1.271 -7.513,0.373 -15.079,-0.262 -22.488,-1.718 8.018,2.39 16.318,3.893 24.7,4.415 8.385,0.444 16.848,-0.08 25.12,-1.712 4.136,-0.814 8.228,-1.861 12.247,-3.157 4.011,-1.316 7.95,-2.861 11.788,-4.633 3.219,-1.492 6.369,-3.138 9.43,-4.945 m -83.285,10.032 v 0 c 6.033,0.163 12.107,-0.485 17.99,-1.984 5.889,-1.482 11.571,-3.762 16.964,-6.576 5.403,-2.804 10.499,-6.172 15.404,-9.741 0.209,-0.151 0.412,-0.307 0.62,-0.458 -0.853,-0.296 -1.69,-0.598 -2.527,-0.901 -4.533,3.566 -9.217,6.928 -14.214,9.789 -5.187,2.986 -10.687,5.461 -16.444,7.166 -5.753,1.722 -11.756,2.619 -17.793,2.705 2.655,-0.408 5.286,-0.993 7.873,-1.757 2.578,-0.786 5.101,-1.756 7.566,-2.863 4.925,-2.231 9.561,-5.075 13.958,-8.222 4.155,-2.98 8.09,-6.25 11.978,-9.515 -0.758,-0.305 -1.501,-0.616 -2.244,-0.927 -3.47,3.194 -6.951,6.341 -10.631,9.248 -4.191,3.302 -8.624,6.314 -13.385,8.743 -2.383,1.206 -4.835,2.283 -7.359,3.181 -2.53,0.877 -5.123,1.582 -7.756,2.112 m 42.623,-46.53 c 0.781,-2.283 -0.436,-4.765 -2.718,-5.546 -2.281,-0.783 -4.765,0.435 -5.546,2.717 -0.781,2.281 0.435,4.765 2.717,5.545 2.282,0.783 4.764,-0.435 5.547,-2.716 m -5.713,-23.38 2.497,-5.353 -5.341,-2.572 -2.606,5.356 z m -7.567,16.714 c 0.795,-2.326 -0.443,-4.856 -2.769,-5.651 -2.324,-0.797 -4.855,0.444 -5.651,2.768 -0.796,2.325 0.444,4.854 2.768,5.651 2.325,0.796 4.855,-0.443 5.652,-2.768 m 2.041,-47 c 0.786,-2.295 -0.437,-4.791 -2.732,-5.577 -2.293,-0.787 -4.79,0.437 -5.576,2.732 -0.786,2.294 0.436,4.791 2.731,5.577 2.296,0.785 4.792,-0.437 5.577,-2.732 m -15.009,39.63 c 0.801,-2.339 -0.446,-4.884 -2.785,-5.685 -2.339,-0.801 -4.882,0.446 -5.683,2.785 -0.802,2.338 0.445,4.884 2.784,5.684 2.339,0.802 4.883,-0.447 5.684,-2.784 m -3.572,-21.745 5.271,2.926 2.784,-5.17 -5.21,-2.833 z m 5.373,-25.296 c 0.749,-2.187 -0.416,-4.566 -2.602,-5.315 -2.188,-0.748 -4.569,0.417 -5.317,2.605 -0.749,2.186 0.418,4.566 2.604,5.314 2.187,0.75 4.567,-0.417 5.315,-2.604 m -14.433,38.99 c 0.794,-2.318 -0.444,-4.841 -2.761,-5.634 -2.317,-0.793 -4.841,0.441 -5.634,2.76 -0.794,2.317 0.443,4.841 2.76,5.634 2.318,0.793 4.841,-0.442 5.635,-2.76 m 14.787,-73.767 c -0.337,0.019 -0.665,0.033 -1.006,0.053 0.202,-0.007 0.403,-0.011 0.605,-0.017 z m 73.71,66.537 c -0.12,-0.543 -0.239,-1.087 -0.335,-1.636 -0.507,-2.801 -0.702,-5.661 -0.727,-8.511 -0.034,-5.709 0.814,-11.351 0.767,-16.851 -0.029,-2.751 -0.347,-5.454 -1.013,-8.058 -0.698,-2.596 -1.784,-5.073 -3.183,-7.384 -2.821,-4.617 -6.583,-8.74 -10.983,-11.929 -4.376,-3.254 -9.381,-5.643 -14.618,-7.339 -5.234,-1.744 -10.722,-2.738 -16.252,-3.397 -1.9,-0.212 -3.812,-0.364 -5.727,-0.49 1.172,0.16 2.343,0.333 3.509,0.542 5.333,0.905 10.588,2.387 15.655,4.404 5.041,2.075 9.866,4.763 14.203,8.127 4.345,3.354 8.133,7.396 11.227,11.979 3.035,4.612 5.073,10.03 5.52,15.497 0.604,5.456 0.258,10.793 0.65,16.063 0.174,3.021 0.612,6.025 1.307,8.983 m 0.565,3.514 c -1.676,-3.913 -2.755,-8.103 -3.323,-12.348 -0.743,-5.357 -0.728,-10.757 -1.503,-15.908 -1.286,-10.416 -8.113,-19.063 -16.276,-25.423 -4.081,-3.226 -8.66,-5.805 -13.461,-7.873 -2.4,-1.043 -4.872,-1.928 -7.376,-2.72 -2.512,-0.772 -5.065,-1.426 -7.638,-2.008 -3.156,-0.685 -6.353,-1.213 -9.57,-1.641 2.559,0.531 5.099,1.17 7.61,1.924 4.955,1.445 9.791,3.363 14.384,5.773 2.349,1.109 4.496,2.586 6.729,3.908 1.07,0.737 2.117,1.507 3.176,2.259 l 1.584,1.136 1.496,1.25 2.963,2.535 c 0.941,0.897 1.84,1.836 2.762,2.752 0.911,0.926 1.854,1.816 2.675,2.846 0.836,1.009 1.737,1.959 2.459,3.067 3.095,4.238 5.444,9.112 6.668,14.177 1.298,5.052 1.828,10.125 2.962,15.039 0.833,3.855 2.066,7.622 3.679,11.255 m -5.09,-10.883 c -1.492,-4.94 -2.352,-10.005 -3.788,-14.782 -1.437,-4.777 -3.658,-9.214 -6.692,-13.117 -0.704,-1.011 -1.568,-1.911 -2.365,-2.856 -0.776,-0.964 -1.7,-1.815 -2.582,-2.696 -0.896,-0.873 -1.768,-1.769 -2.678,-2.622 l -2.869,-2.409 -1.428,-1.212 -1.514,-1.105 -3.033,-2.201 c -2.137,-1.297 -4.2,-2.72 -6.441,-3.843 -1.112,-0.576 -2.177,-1.246 -3.325,-1.749 l -3.414,-1.584 c -1.145,-0.51 -2.329,-0.932 -3.491,-1.411 -1.156,-0.497 -2.346,-0.904 -3.539,-1.307 -4.221,-1.453 -8.547,-2.648 -12.939,-3.584 3.826,1.119 7.589,2.48 11.229,4.124 9.078,4.032 17.561,9.464 25.045,16.019 l 2.783,2.486 2.654,2.623 c 1.771,1.725 3.505,3.564 5.074,5.533 3.137,3.934 5.737,8.336 7.619,12.952 1.933,4.598 3.358,9.288 5.259,13.766 1.545,3.773 3.452,7.397 5.658,10.866 -2.255,-3.687 -3.971,-7.726 -5.223,-11.891 m -31.408,21.578 2.112,-5.328 -5.479,-2.255 -2.223,5.337 z m -0.129,21.038 c 0.755,-2.206 -0.421,-4.606 -2.627,-5.361 -2.206,-0.755 -4.606,0.42 -5.362,2.627 -0.755,2.205 0.421,4.605 2.627,5.361 2.206,0.756 4.606,-0.421 5.362,-2.627 m 20.059,-14.126 1.609,-4.976 -5.595,-1.948 -1.753,5.085 z m -6.265,19.286 c 0.717,-2.094 -0.4,-4.375 -2.494,-5.091 -2.096,-0.718 -4.375,0.399 -5.092,2.494 -0.718,2.095 0.4,4.375 2.494,5.092 2.095,0.716 4.374,-0.4 5.092,-2.495 m -12.825,19.808 c -5.549,3.773 -11.417,7.086 -17.605,9.698 -3.088,1.32 -6.256,2.457 -9.491,3.373 -3.229,0.931 -6.518,1.685 -9.852,2.169 -1.659,0.296 -3.342,0.42 -5.018,0.617 -1.683,0.084 -3.367,0.26 -5.056,0.241 -3.379,0.112 -6.755,-0.151 -10.125,-0.466 3.353,0.439 6.729,0.827 10.125,0.84 1.698,0.081 3.394,-0.034 5.093,-0.055 1.693,-0.137 3.397,-0.2 5.08,-0.436 3.384,-0.365 6.737,-1.004 10.044,-1.827 3.313,-0.809 6.571,-1.845 9.756,-3.07 6.386,-2.422 12.488,-5.577 18.273,-9.206 0.913,-0.569 1.806,-1.17 2.704,-1.762 -0.961,-0.285 -1.917,-0.574 -2.863,-0.867 -0.357,0.247 -0.705,0.507 -1.065,0.751 m 37.089,-53.684 c -3.297,-3.659 -6.029,-7.843 -8.279,-12.261 -2.254,-4.428 -3.999,-9.055 -6.057,-13.432 -2.076,-4.369 -4.576,-8.464 -7.682,-12.111 -1.547,-1.825 -3.175,-3.577 -4.944,-5.251 l -2.609,-2.532 -2.734,-2.393 -1.356,-1.211 c -0.458,-0.394 -0.941,-0.761 -1.409,-1.144 l -2.833,-2.276 c -0.96,-0.737 -1.958,-1.425 -2.935,-2.14 -0.977,-0.718 -1.964,-1.418 -2.984,-2.072 -3.975,-2.783 -8.248,-5.094 -12.559,-7.32 -4.34,-2.178 -8.834,-4.066 -13.456,-5.613 -0.651,-0.224 -1.314,-0.423 -1.97,-0.633 0.348,0.139 0.704,0.261 1.05,0.406 4.451,1.898 8.739,4.172 12.844,6.726 4.111,2.54 8.051,5.347 11.888,8.277 3.797,2.98 7.496,6.086 11.053,9.343 l 2.65,2.462 2.584,2.53 c 1.715,1.671 3.452,3.404 5.042,5.254 3.191,3.691 6.043,7.676 8.503,11.821 2.513,4.118 4.795,8.302 7.436,12.257 2.594,3.986 5.541,7.746 8.757,11.313 -3.675,-3.094 -6.974,-6.651 -9.943,-10.463 -2.967,-3.821 -5.559,-7.899 -8.205,-11.852 -2.662,-3.949 -5.459,-7.742 -8.654,-11.197 -1.586,-1.735 -3.233,-3.401 -4.973,-5.044 l -2.575,-2.474 -2.637,-2.404 c -6.988,-6.46 -14.389,-12.46 -22.199,-17.869 -3.922,-2.674 -7.967,-5.178 -12.19,-7.35 -1.542,-0.799 -3.11,-1.556 -4.71,-2.238 1.351,0.7 2.673,1.457 3.947,2.278 4.035,2.592 7.819,5.526 11.489,8.567 3.685,3.028 7.201,6.234 10.739,9.408 3.497,3.219 6.953,6.475 10.404,9.731 3.404,3.311 6.877,6.507 10.22,9.976 3.301,3.474 6.423,7.086 9.454,10.726 3.057,3.619 6.112,7.205 9.407,10.58 3.265,3.404 6.773,6.581 10.426,9.625 -4.039,-2.511 -7.841,-5.418 -11.433,-8.57 -3.578,-3.168 -6.925,-6.599 -10.139,-10.096 C -49.107,80.22 -52.24,76.691 -55.591,73.398 -58.9,70.1 -62.416,66.873 -65.854,63.611 -72.71,57.058 -79.519,50.467 -86.468,44.068 -89.97,40.906 -93.5,37.77 -97.259,34.949 c -1.949,-1.457 -3.966,-2.875 -6.112,-4.03 1.953,1.279 3.726,2.796 5.431,4.361 3.512,3.302 6.752,6.832 9.976,10.351 6.444,7.039 12.841,14.06 19.663,20.654 3.366,3.34 6.892,6.507 10.401,9.76 3.476,3.264 6.994,6.454 10.56,9.579 7.163,6.21 14.866,11.78 23.053,16.731 -8.757,-3.85 -16.986,-8.981 -24.53,-14.938 -3.792,-2.954 -7.389,-6.133 -10.978,-9.282 -3.557,-3.164 -7.139,-6.368 -10.59,-9.711 -3.427,-3.364 -6.745,-6.834 -9.966,-10.383 -3.191,-3.577 -6.332,-7.189 -9.368,-10.875 -3.073,-3.651 -6.054,-7.369 -9.26,-10.851 -1.592,-1.751 -3.266,-3.418 -5.105,-4.881 -0.643,-0.508 -1.313,-0.989 -2.013,-1.412 0.005,0.007 0.01,0.014 0.014,0.022 0.55,0.404 1.07,0.848 1.573,1.303 1.821,1.698 3.341,3.655 4.829,5.606 2.907,3.959 5.586,8.026 8.377,11.993 5.563,7.941 11.593,15.498 18.489,22.223 3.391,3.418 7.071,6.534 10.848,9.517 3.746,3.034 7.774,5.698 11.826,8.325 8.199,5.116 16.889,9.476 25.854,13.344 -9.383,-2.703 -18.478,-6.524 -27.046,-11.35 -8.561,-4.839 -16.515,-10.812 -23.574,-17.705 -3.497,-3.48 -6.797,-7.154 -9.853,-11.014 -3.028,-3.882 -5.876,-7.895 -8.481,-12.043 -2.652,-4.118 -5.067,-8.364 -7.65,-12.458 -1.172,-1.859 -2.398,-3.682 -3.794,-5.354 4.816,8.687 12.015,25.379 24.969,40.34 -1.142,0.475 -2.091,1.403 -2.522,2.665 -0.8,2.337 0.446,4.88 2.783,5.681 2.155,0.738 4.468,-0.277 5.445,-2.269 1.631,1.594 3.341,3.149 5.13,4.653 0.128,1.72 1.254,3.28 2.987,3.874 0.732,0.25 1.48,0.278 2.192,0.154 10.418,7.482 23.312,13.119 39.414,14.826 m -3.472,18.616 5.876,1.362 1.05,-4.356 -5.71,-1.577 z m -9.115,14.878 c -1.944,-0.666 -4.062,0.371 -4.728,2.317 -0.665,1.944 0.372,4.061 2.317,4.728 1.944,0.666 4.061,-0.371 4.727,-2.317 0.666,-1.945 -0.37,-4.062 -2.316,-4.728 m -21.18,-119.417 5.839,1.092 1.143,-5.747 -5.899,-1.166 z m -57.632,60.407 -5.054,-3.103 -2.977,4.618 5.06,3.285 z m -0.394,-50.29 0.342,-3.366 -6.013,-0.299 -0.228,2.885 z m -21.86,35.604 -2.945,3.933 4.806,3.644 2.978,-4.159 z m 11.683,-14.508 c 0.603,-1.76 -0.336,-3.676 -2.096,-4.28 -1.761,-0.602 -3.677,0.336 -4.279,2.097 -0.603,1.761 0.336,3.677 2.097,4.279 1.76,0.604 3.676,-0.336 4.278,-2.096 m -28.017,1.751 -2.679,2.992 4.462,4.064 2.769,-3.27 z m 17.494,-24.992 -0.023,-1.294 c -2.008,0.23 -4.003,0.478 -5.983,0.74 l 0.056,0.504 c 1.997,0.033 3.978,0.05 5.95,0.05 m -15.998,45.669 c -2.043,-0.7 -4.267,0.39 -4.966,2.433 -0.699,2.043 0.389,4.267 2.432,4.967 2.044,0.699 4.267,-0.391 4.967,-2.434 0.7,-2.043 -0.39,-4.266 -2.433,-4.966 m 13.837,-31.443 c 0.488,-1.424 -0.272,-2.975 -1.696,-3.462 -1.424,-0.488 -2.974,0.271 -3.463,1.696 -0.487,1.424 0.273,2.974 1.698,3.462 1.422,0.487 2.973,-0.271 3.461,-1.696 m -18.592,53.025 c -0.778,-0.818 -1.552,-1.637 -2.313,-2.46 l -21.509,2.383 18.968,-5.168 c -0.594,-0.659 -1.189,-1.317 -1.774,-1.977 l -17.194,7.145 14.556,-10.172 c -0.562,-0.652 -1.125,-1.304 -1.678,-1.956 l -12.878,12.128 10.874,-14.534 c -0.568,-0.686 -1.149,-1.371 -1.708,-2.058 l -9.166,16.592 z M -168.112,62.15 c -0.643,1.877 0.358,3.921 2.235,4.565 1.879,0.642 3.923,-0.359 4.565,-2.236 0.643,-1.878 -0.358,-3.922 -2.236,-4.566 -1.878,-0.642 -3.922,0.358 -4.564,2.237 m 28.489,-65.82 c 1.865,0.638 3.894,-0.356 4.533,-2.222 0.638,-1.864 -0.354,-3.894 -2.221,-4.532 -1.864,-0.639 -3.894,0.356 -4.533,2.22 -0.638,1.866 0.356,3.894 2.221,4.534 m -15.368,31.503 c -0.336,0.981 0.185,2.049 1.167,2.385 0.981,0.336 2.049,-0.188 2.384,-1.168 0.336,-0.982 -0.186,-2.049 -1.166,-2.385 -0.982,-0.336 -2.05,0.188 -2.385,1.168 m -10.219,11.587 -4.142,-4.233 -2.063,1.811 3.924,4.588 z m -6.569,13.916 c 0.572,-1.671 -0.32,-3.49 -1.991,-4.063 -1.671,-0.572 -3.491,0.32 -4.061,1.991 -0.572,1.671 0.317,3.49 1.988,4.062 1.673,0.572 3.492,-0.318 4.064,-1.99 m 7.571,-35.5 c -0.43,-0.147 -0.898,0.082 -1.045,0.513 -0.146,0.429 0.082,0.898 0.513,1.046 0.428,0.146 0.898,-0.083 1.046,-0.513 0.146,-0.43 -0.083,-0.899 -0.514,-1.046 m 9.808,-21.338 c 1.621,0.555 3.387,-0.31 3.943,-1.932 0.555,-1.623 -0.31,-3.388 -1.932,-3.944 -1.622,-0.555 -3.388,0.31 -3.943,1.932 -0.557,1.623 0.309,3.388 1.932,3.944 m -7.225,7.04 0.121,2.854 5.949,0.016 -0.068,-3.263 z M 74.237,112.311 c -2.354,7.261 1.624,15.055 8.885,17.41 7.261,2.355 15.056,-1.623 17.41,-8.884 2.355,-7.261 -1.624,-15.056 -8.884,-17.41 -7.261,-2.355 -15.055,1.623 -17.411,8.884 m -39.335,35.212 c -0.169,0.495 0.096,1.033 0.589,1.202 0.495,0.169 1.033,-0.094 1.202,-0.588 0.169,-0.495 -0.094,-1.033 -0.589,-1.202 -0.495,-0.169 -1.032,0.094 -1.202,0.588 m -320.691,-252.814 13.71,10.27 c 35.657,26.711 60.025,66.903 70.119,85.629 15.134,-3.201 29.728,-5.669 43.796,-7.483 l 5.728,-17.667 22.647,14.819 c 35.025,-2.471 66.435,-0.75 94.378,3.856 0.414,1.483 0.98,2.964 1.938,4.344 l 0.5,0.66 0.521,0.548 1.05,1.079 c 0.75,0.628 1.465,1.315 2.244,1.891 1.539,1.187 3.138,2.267 4.79,3.247 3.297,1.973 6.794,3.557 10.375,4.872 1.777,0.703 3.632,1.179 5.458,1.719 l 2.791,0.631 c 0.924,0.231 1.867,0.375 2.811,0.51 7.511,1.196 15.362,0.644 22.391,-2.072 0,-0.001 0.001,-0.001 0.001,-0.001 V 1.56 C 19.196,0.257 18.862,-1.029 18.481,-2.304 90.362,22.657 129.586,66.693 140.224,90.75 L 114.71,82.762 141.566,94.09 c 1.339,3.745 1.863,6.861 1.584,9.151 -13.785,21.198 -31.556,36.075 -51.336,46.052 -2.914,-1.486 -5.691,-3.275 -8.268,-5.367 -3.901,-3.155 -7.362,-6.957 -10.322,-11.198 -5.932,-8.498 -9.848,-18.629 -12.067,-29.149 -2.196,-10.547 -2.749,-21.543 -1.723,-32.433 1.058,-10.873 3.65,-21.747 8.586,-31.699 -5.815,9.472 -9.463,20.256 -11.545,31.282 -2.05,11.05 -2.531,22.463 -1.218,33.806 1.353,11.315 4.506,22.662 10.381,32.971 2.936,5.138 6.575,9.983 10.939,14.221 1.045,1.016 2.133,1.993 3.257,2.932 -3.404,1.343 -6.857,2.55 -10.343,3.646 -0.027,-0.025 -0.056,-0.046 -0.084,-0.07 C 65.391,154.81 61.885,150.746 58.932,146.282 53.014,137.331 49.288,126.896 47.286,116.177 45.31,105.431 45.017,94.331 46.298,83.4 c 1.314,-10.911 4.17,-21.761 9.325,-31.594 -5.594,9.592 -8.979,20.398 -10.805,31.385 -1.795,11.012 -2.015,22.322 -0.482,33.465 1.568,11.115 4.912,22.158 10.803,32.014 2.428,4.057 5.309,7.883 8.63,11.33 -30.163,8.268 -62.566,7.911 -91.533,3.015 -35.031,22.244 -65.404,16.879 -90.759,8.656 4.416,-1.949 8.568,-4.518 12.386,-7.505 3.837,-2.971 7.383,-6.303 10.794,-9.737 3.034,-3.034 5.962,-6.165 8.999,-9.119 -0.687,-0.324 -1.362,-0.65 -2.032,-0.978 -2.753,3 -5.355,6.08 -8.052,9.07 -3.21,3.581 -6.54,7.05 -10.18,10.185 -3.625,3.15 -7.604,5.909 -11.915,8.084 10.078,-5.911 17.171,-24.739 22.139,-31.563 -0.073,-0.042 -0.15,-0.083 -0.222,-0.125 -20.532,-11.826 -38.222,-25.818 -53.341,-40.607 l -33.125,-7.167 6.237,-23.095 c -12.932,-16.729 -22.958,-33.318 -30.408,-47.985 -20.174,6.623 -92.526,45.707 -98.938,50.403 l -9.561,8.696 2.231,-12.871 c 2.776,-16.005 17.459,-34.331 30.415,-50.5 4.223,-5.27 9.332,-11.649 12.844,-16.806 l -0.551,-0.05 0.6,-0.022 c 2.591,-3.812 4.3,-6.948 4.105,-8.455 -1.842,-4.799 -2.443,-13.772 -3.207,-25.119 -1.15,-17.114 -2.726,-40.552 -9.562,-56.027 z"
             style="fill:#000000;fill-opacity:1;fill-rule:nonzero;stroke:none"
             id="path1139" />
        </g>
      </g>
    </g>
  </g>
</svg>
