<?xml version="1.0" encoding="UTF-8" standalone="no"?>
<!-- Created with Inkscape (http://www.inkscape.org/) -->

<svg
   version="1.1"
   id="svg236"
   width="784"
   height="784"
   viewBox="0 0 784 784"
   sodipodi:docname="boot-vector-publicdomain.svg"
   inkscape:version="1.2 (dc2aedaf03, 2022-05-15)"
   xmlns:inkscape="http://www.inkscape.org/namespaces/inkscape"
   xmlns:sodipodi="http://sodipodi.sourceforge.net/DTD/sodipodi-0.dtd"
   xmlns="http://www.w3.org/2000/svg"
   xmlns:svg="http://www.w3.org/2000/svg">
  <defs
     id="defs240">
    <clipPath
       clipPathUnits="userSpaceOnUse"
       id="clipPath252">
      <path
         d="m 534.756,54.965 0.138,0.002 -0.008,0.33 c -0.042,-0.113 -0.088,-0.221 -0.13,-0.332"
         id="path250" />
    </clipPath>
    <clipPath
       clipPathUnits="userSpaceOnUse"
       id="clipPath260">
      <path
         d="m 535.084,55.65 h 0.416 v -0.416 h -0.416 z"
         id="path258" />
    </clipPath>
    <clipPath
       clipPathUnits="userSpaceOnUse"
       id="clipPath270">
      <path
         d="m 535.08446,55.649617 h 0.13908 v -0.332078 h -0.13908 z"
         id="path268" />
    </clipPath>
    <linearGradient
       x1="0"
       y1="0"
       x2="1"
       y2="0"
       gradientUnits="userSpaceOnUse"
       gradientTransform="matrix(0.1388,0,0,-0.1388,535.08403,55.483436)"
       spreadMethod="pad"
       id="linearGradient276">
      <stop
         style="stop-opacity:1;stop-color:#ffffff"
         offset="0"
         id="stop272" />
      <stop
         style="stop-opacity:1;stop-color:#231f20"
         offset="1"
         id="stop274" />
    </linearGradient>
    <clipPath
       clipPathUnits="userSpaceOnUse"
       id="clipPath286">
      <path
         d="M 0,588 H 588 V 0 H 0 Z"
         id="path284" />
    </clipPath>
  </defs>
  <sodipodi:namedview
     id="namedview238"
     pagecolor="#ffffff"
     bordercolor="#000000"
     borderopacity="0.25"
     inkscape:showpageshadow="2"
     inkscape:pageopacity="0.0"
     inkscape:pagecheckerboard="0"
     inkscape:deskcolor="#d1d1d1"
     showgrid="false"
     inkscape:zoom="1.067602"
     inkscape:cx="392.93668"
     inkscape:cy="392.46834"
     inkscape:window-width="1920"
     inkscape:window-height="1017"
     inkscape:window-x="-8"
     inkscape:window-y="-8"
     inkscape:window-maximized="1"
     inkscape:current-layer="g244">
    <inkscape:page
       x="0"
       y="0"
       id="page242"
       width="784"
       height="784" />
  </sodipodi:namedview>
  <g
     id="g244"
     inkscape:groupmode="layer"
     inkscape:label="Page 1"
     transform="matrix(1.3333333,0,0,-1.3333333,0,784)">
    <g
       id="g246">
      <g
         id="g248"
         clip-path="url(#clipPath252)">
        <g
           id="g254">
          <g
             id="g256"
             clip-path="url(#clipPath260)">
            <g
               id="g262">
              <g
                 id="g264">
                <g
                   id="g266"
                   clip-path="url(#clipPath270)">
                  <path
                     d="m 535.084,55.65 h 0.416 v -0.416 h -0.416 z"
                     style="fill:url(#linearGradient276);stroke:none"
                     id="path278" />
                </g>
              </g>
            </g>
          </g>
        </g>
      </g>
    </g>
    <g
       id="g280">
      <g
         id="g282"
         clip-path="url(#clipPath286)">
        <g
           id="g288"
           transform="translate(237.3188,273.0244)">
          <path
             d="m 0,0 0.138,-1.881 0.146,0.017 z m 0.363,-4.877 0.495,-5.987 0.813,0.099 -0.927,5.932 z m 0.767,-8.981 0.581,-5.979 1.372,0.18 -0.946,5.925 z m 3.413,-14.676 -0.984,5.916 -1.531,-0.206 0.664,-5.974 z m 1.535,-8.859 -1.028,5.906 -2.004,-0.295 0.78,-5.966 z m 0.539,-2.947 -2.376,-0.39 0.895,-5.944 2.619,0.475 z m 0.728,-15.485 2.611,1.389 c -0.426,0.769 -0.755,1.586 -0.973,2.437 -0.102,0.399 -0.208,0.948 -0.312,1.415 l -0.313,1.458 -2.724,-0.524 0.272,-1.487 c 0.098,-0.512 0.164,-0.951 0.289,-1.525 0.245,-1.099 0.637,-2.165 1.15,-3.163 m 6.981,-6.851 1.507,2.861 c -1.632,0.825 -3.128,1.907 -4.328,3.229 l -2.294,-2.01 c 1.443,-1.689 3.21,-3.041 5.115,-4.08 m 2.962,-1.33 c 2.034,-0.74 4.177,-1.16 6.352,-1.268 l 0.134,3.453 c -1.823,0.05 -3.651,0.392 -5.399,0.957 z m 11.268,-0.882 c 0.558,0.09 1.003,0.235 1.509,0.349 l 2.953,0.73 -0.954,3.495 -2.858,-0.764 C 28.74,-61.192 28.229,-61.36 27.8,-61.432 l -1.315,-0.252 0.434,-3.484 z m 7.386,1.874 5.793,1.682 -1.116,3.62 -5.7,-1.769 z m 8.674,2.552 5.731,1.766 -1.146,3.697 -5.726,-1.804 z m 8.596,2.638 5.729,1.689 -0.234,0.809 -0.136,0.467 -0.723,2.495 -5.771,-1.74 z m 8.602,2.499 5.757,1.525 -0.988,3.857 -5.833,-1.584 0.35,-1.247 0.44,-1.571 z m 8.647,2.234 5.79,1.327 -0.814,3.88 -5.914,-1.319 z m 8.701,1.923 5.838,1.037 -0.602,3.863 -5.983,-1.025 z m 8.77,1.475 5.88,0.697 -0.363,3.838 -6.041,-0.679 z m 8.829,0.953 5.906,0.344 -0.103,3.742 -6.081,-0.259 z m 8.856,0.415 5.889,-0.116 0.213,3.572 -6.105,0.232 z m 8.824,-0.31 5.845,-0.676 0.538,3.37 -6.062,0.814 z m 8.745,-1.158 5.744,-1.25 0.834,3.052 -5.934,1.481 z m 8.576,-2.034 5.571,-1.896 1.079,2.681 -5.729,2.146 z m 8.295,-3.007 5.322,-2.526 1.239,2.252 -5.413,2.828 z m 12.899,-7.096 1.281,1.778 -5.01,3.464 -1.264,-2.091 z m 2.399,-1.724 4.61,-3.722 1.192,1.295 -4.528,4.051 z m 6.808,-5.715 4.162,-4.242 0.967,0.831 -4.001,4.544 z m 6.133,-6.473 3.692,-4.687 0.573,0.389 -3.419,4.973 z m 8.588,-12.21 -2.773,5.331 -0.4,-0.249 z m -33.295,287.885 c -0.552,3.401 -3.768,5.72 -7.171,5.168 -3.401,-0.552 -5.719,-3.769 -5.168,-7.17 0.552,-3.402 3.769,-5.721 7.171,-5.169 3.402,0.552 5.72,3.769 5.168,7.171 m 121.299,-16.587 -0.031,-0.704 5.992,-0.167 0.025,0.454 z m -8.981,0.545 -0.04,-1.049 5.993,-0.133 0.035,0.83 z m -8.989,0.447 -0.045,-1.279 5.996,-0.142 0.042,1.125 z m -8.988,0.426 -0.051,-1.507 6,-0.13 0.047,1.354 z m -8.992,0.398 -0.056,-1.703 5.998,-0.14 0.054,1.584 z m -8.993,0.334 -0.058,-1.779 5.998,-0.172 0.057,1.729 z m -8.993,0.332 -0.061,-1.855 5.999,-0.171 0.059,1.804 z m -8.988,0.335 -0.063,-1.931 5.993,-0.173 0.062,1.88 z m -8.99,0.333 -0.068,-1.991 5.997,-0.185 0.065,1.956 z m -8.998,0.273 -0.067,-1.914 5.999,-0.235 0.068,1.966 z m -8.995,0.287 -0.067,-1.839 5.996,-0.243 0.067,1.889 z m -8.995,0.302 -0.069,-1.761 5.996,-0.255 0.068,1.812 z m -8.996,0.324 -0.071,-1.684 5.996,-0.271 0.069,1.736 z m -8.994,0.275 -0.067,-1.452 5.993,-0.342 0.069,1.607 z m -12.218,21.092 c -5.579,-0.905 -9.381,-6.18 -8.476,-11.76 0.906,-5.578 6.181,-9.38 11.76,-8.475 5.578,0.905 9.381,6.181 8.476,11.76 -0.906,5.578 -6.181,9.38 -11.76,8.475 m -14.759,-20.025 -0.042,-0.608 5.984,-0.519 0.053,0.859 z m 14.926,-1.78 0.06,1.145 -5.994,0.252 -0.056,-0.986 z m 8.988,-0.562 0.065,1.376 -5.997,0.214 -0.06,-1.221 z m -32.899,2.871 -0.02,-0.202 5.973,-0.651 0.037,0.481 z m -21.461,4.178 c -0.365,1.04 -0.87,2.062 -1.642,2.913 -0.754,0.851 -1.791,1.539 -2.994,1.77 -1.201,0.216 -2.479,-0.043 -3.549,-0.608 -1.075,-0.569 -1.98,-1.389 -2.707,-2.32 -1.461,-1.873 -2.254,-4.141 -2.589,-6.434 -0.152,-1.35 -0.145,-2.731 0.071,-4.084 0.076,-0.254 0.127,-0.515 0.151,-0.785 0.154,-0.684 0.359,-1.36 0.641,-2.015 0.462,-1.087 1.133,-2.11 2.029,-2.934 0.891,-0.821 2.062,-1.396 3.28,-1.492 1.224,-0.082 2.403,0.319 3.349,0.953 0.962,0.627 1.711,1.487 2.327,2.402 1.218,1.851 1.893,3.984 2.179,6.141 0.273,2.158 0.16,4.393 -0.546,6.493 m -35.545,-43.45 c -3.526,-3.254 -5.193,-6.73 -4.952,-10.331 0.356,-5.313 4.745,-9.716 6.975,-11.625 l 1.262,7.585 c -0.865,0.52 -2.19,1.602 -2.356,3.406 -0.264,2.875 2.479,6.045 8.385,9.689 21.262,13.121 44.851,16.144 45.089,16.173 0.1,0.012 0.194,-0.006 0.288,-0.022 l 1.367,7.986 -1.81,-0.29 C 95.824,170.624 73.303,167.041 55.028,150.181 m 47.513,-14.077 2.411,0.388 c 0.13,0.614 0.256,1.225 0.379,1.834 -3.273,2.547 -14.365,7.403 -20.549,9.824 -0.123,-0.585 -0.245,-1.169 -0.365,-1.739 -1.049,-4.978 -2.367,-10.077 -3.791,-15.028 9.268,2.714 17.657,4.047 21.915,4.721 m -50.204,-21.32 c -3.207,-2.968 -4.7,-5.989 -4.438,-8.98 0.306,-3.479 2.919,-6.211 4.539,-7.59 0.485,3 1.653,8.909 3.576,10.906 11.726,12.179 32.375,16.853 42.217,18.45 1.571,0.255 2.867,0.431 3.808,0.548 l 0.655,5.985 C 93.68,132.675 67.025,128.377 52.337,114.784 M 51.855,86.081 51.741,85.114 c -0.022,-0.184 -0.534,-4.458 -1.658,-8.872 0.033,-1.251 0.138,-2.444 0.276,-3.538 10.201,1.345 20.833,1.832 25.737,0.723 -0.791,1.246 -1.625,3.103 -2.179,5.855 -1.153,5.721 3.857,13.044 13.137,17.315 L 58.926,93.473 c -1.51,-0.807 -2.975,-1.829 -4.197,-3.121 -1.245,-1.318 -2.18,-2.764 -2.874,-4.271 M 37.099,70.559 c 1.842,0.237 5.024,0.811 7.11,1.207 0.267,1.236 1.138,3.603 3.979,5.137 0.703,2.798 1.159,5.571 1.389,7.14 C 42.851,82.677 37.501,76.044 37.099,70.559 M 19.634,54.915 c -0.22,-0.553 -0.421,-1.056 -0.624,-1.491 -0.332,-0.711 -0.281,-0.997 -0.297,-1.005 0.122,-0.066 0.472,-0.018 0.673,0.078 0.299,2.399 7.325,6.058 14.467,8.56 9.306,3.26 30.323,6.45 37.401,6.169 0.617,0.712 2.063,2.346 4.038,4.337 -5.418,1.058 -18.935,0.211 -30.437,-1.71 -0.742,-0.142 -2.332,-0.441 -3.99,-0.727 -2.213,-0.44 -4.294,-0.921 -6.156,-1.435 C 23.491,64.592 21.17,58.769 19.634,54.915 M 10.223,47.373 C -4.638,42.019 -7.191,34.161 -7.533,30.54 c 0.638,0.561 1.231,1.109 1.812,1.649 2.709,2.503 5.268,4.871 10.961,7.054 7.559,2.9 20.55,6.091 23.576,6.741 14.703,3.471 22.651,-0.393 24.837,-1.735 0.554,0.519 1.802,1.949 3.967,5.743 0.032,0.056 0.041,0.091 0.042,0.091 -0.014,0.055 -0.171,0.274 -0.691,0.549 -5.086,2.699 -28.863,3.185 -46.748,-3.259 M -25.433,18.038 c -0.91,-0.147 -1.708,-0.315 -2.37,-0.507 -7.476,-2.154 -10.363,-5.692 -11.468,-8.279 -0.562,-1.316 -0.698,-2.477 -0.665,-3.288 1.733,0.995 4.93,2.86 6.338,3.875 l 0.002,-0.001 c 1.836,1.368 11.247,1.691 20.724,1.65 0.092,0.029 0.186,0.068 0.276,0.092 l 0.143,0.04 0.15,-0.004 c 9.187,-0.23 17.682,-0.548 17.992,-0.558 0.002,-10e-4 0.005,-0.002 0.008,-10e-4 v -0.005 c 1.225,-0.048 2.136,-0.088 2.608,-0.11 12.026,-0.544 15.89,-3.279 20.491,-9.61 2.693,-3.705 7.128,-4.522 9.17,-3.68 1.325,0.552 1.166,1.531 1.114,1.853 -1.6,9.852 -14.164,19.047 -26.361,19.293 l -0.507,0.01 c -11.221,0.227 -29.259,0.59 -37.645,-0.77 m 2.891,-18.739 c 1.238,-0.332 3.764,0.572 5.633,2.013 2.629,2.027 7.994,5.83 13.822,8.042 -2.725,0.086 -5.873,0.177 -9.112,0.258 -4.475,-1.349 -11,-8.47 -10.825,-9.952 0.054,-0.129 0.152,-0.273 0.482,-0.361 m 75.6,-42.609 0.526,0.112 c -0.383,1.943 -0.55,3.926 -0.498,5.901 l -0.694,0.009 c -0.001,-2.026 0.223,-4.05 0.666,-6.022 m 0.264,8.961 c 0.26,1.957 0.721,3.884 1.337,5.76 l -0.888,0.279 c -0.581,-1.94 -1.002,-3.931 -1.216,-5.947 z m 2.367,8.536 c 0.749,1.83 1.628,3.608 2.598,5.337 l -0.966,0.531 c -0.959,-1.779 -1.828,-3.609 -2.566,-5.495 z m 2.602,-20.205 0.525,0.11 c -0.383,1.944 -0.55,3.927 -0.498,5.901 l -0.694,0.01 c -0.001,-2.026 0.223,-4.051 0.667,-6.021 m 1.599,14.72 -0.889,0.277 c -0.58,-1.939 -1.001,-3.93 -1.214,-5.945 l 0.767,-0.092 c 0.26,1.957 0.721,3.884 1.336,5.76 m 1.031,2.775 c 0.748,1.83 1.627,3.608 2.597,5.338 l -0.965,0.53 c -0.96,-1.778 -1.829,-3.609 -2.565,-5.495 z m 4.116,7.896 3.36,4.917 -1.008,0.731 -3.331,-5.046 z m 5.167,7.288 3.8,4.603 -1.057,0.899 -3.767,-4.712 z m 5.775,6.844 4.061,4.389 -1.119,1.047 -4.019,-4.485 z m 6.135,6.545 4.211,4.256 -1.193,1.178 -4.161,-4.341 z m 6.331,6.371 4.268,4.208 -1.214,1.234 -4.255,-4.24 z m 6.416,6.307 4.298,4.187 -1.245,1.271 -4.276,-4.21 z m 6.448,6.285 4.285,4.207 -1.286,1.296 -4.257,-4.223 z m 6.421,6.323 4.237,4.263 -1.341,1.309 -4.2,-4.27 z m 6.339,6.414 4.155,4.349 -1.404,1.312 -4.112,-4.347 z m 6.206,6.552 4.039,4.469 -1.478,1.3 -3.988,-4.459 z m 6.021,6.742 3.835,4.658 -1.552,1.235 -3.794,-4.605 z m 5.685,7.041 3.572,4.862 -1.578,1.122 -3.554,-4.787 z m 5.29,7.339 3.301,5.053 -1.597,1.007 -3.289,-4.976 z m 4.88,7.624 3.011,5.23 -1.612,0.892 -3.002,-5.153 z m 4.44,7.887 2.706,5.393 -1.617,0.778 -2.702,-5.317 z m -0.47,17.039 -2.397,-5.463 1.616,-0.74 2.395,5.536 z m 4.452,-8.913 2.393,5.537 -1.614,0.667 -2.396,-5.463 z m 3.51,8.336 2.083,5.66 -1.605,0.561 -2.088,-5.589 z m 23.748,-62.606 c 1.167,-1.018 2.673,-1.397 4.091,-1.169 0.579,0.095 1.143,0.296 1.664,0.592 l 16.389,-13.886 1.94,2.289 -16.297,13.808 c 0.934,1.971 0.514,4.392 -1.21,5.899 -8.292,7.24 -12.276,16.098 -11.52,25.618 0.945,11.893 9.012,23.692 21.581,31.559 20.215,12.656 29.357,24.263 27.947,35.486 -2.197,17.48 -29.573,27.299 -55.553,35.671 l 0.09,3.453 -0.314,0.01 -0.174,-3.335 c -1.628,0.524 -3.251,1.043 -4.861,1.557 l 0.116,4.477 -0.312,0.011 -0.227,-4.352 c -3.336,1.066 -6.581,2.106 -9.676,3.131 -0.72,0.239 -1.431,0.477 -2.134,0.714 -1.15,5.61 -6.538,9.381 -12.242,8.455 -5.853,-0.95 -9.842,-6.484 -8.892,-12.337 0.949,-5.852 6.483,-9.841 12.336,-8.891 2.384,0.386 4.448,1.542 6.006,3.16 0.68,-0.228 1.371,-0.458 2.065,-0.687 3.177,-1.05 6.487,-2.11 9.889,-3.197 0.642,-0.206 1.295,-0.414 1.951,-0.624 l -0.026,-0.33 0.703,-0.05 0.007,0.16 c 1.515,-0.485 3.059,-0.982 4.623,-1.491 l -0.1,-1.329 0.701,-0.05 0.058,1.165 c 20.801,-6.788 44.672,-15.623 46.043,-26.538 0.593,-4.719 -2.973,-13.018 -23.33,-25.762 -15.24,-9.54 -25.05,-24.211 -26.244,-39.245 -0.708,-8.926 1.303,-22.06 14.912,-33.942 m -98.158,123.94 c 26.212,-1.327 47.531,-15.463 51.56,-22.728 0.668,-0.437 3.173,-1.838 5.292,0.13 2.41,2.24 -0.763,7.716 -0.774,7.733 -4.296,6.495 -24.096,20.957 -43.353,21.263 -2.65,-0.805 -5.495,-1.761 -8.455,-2.888 z m 13.356,-52.452 c 0.683,1.458 1.337,2.906 1.958,4.344 -7.58,8.214 -14.664,10.836 -18.2,11.67 -0.362,-0.157 -0.724,-0.314 -1.083,-0.476 -2.983,-8.704 -5.681,-15.538 -6.762,-18.213 z M 26.352,41.286 c -3.878,-2.898 -5.47,-6.267 -4.744,-10.032 1.757,1.408 4.508,3.493 7.453,5.067 3.821,2.044 12.463,4.835 17.821,0.776 2.659,-2.016 5.87,-5.703 6.075,-11.83 0.217,-6.48 1.061,-9.246 3.227,-10.567 1.288,-0.787 3.197,-1.247 4.56,-0.492 1.602,0.883 1.97,3.216 1.998,5.017 0.179,11.985 -6.151,22.198 -15.755,25.412 -0.075,0.025 -0.155,0.045 -0.231,0.068 -1.24,0.269 -2.67,0.483 -4.292,0.594 -6.62,0.065 -14.589,-2.875 -16.112,-4.013 M 40.189,30.959 C 36.863,32.097 31.746,33.46 27.599,32.884 26.117,31.11 24.79,29.625 23.723,28.587 21.651,26.573 18,23.764 13.8,20.752 c 4.374,-0.259 8.756,-1.579 12.696,-3.623 3.821,3.716 8.351,8.232 13.693,13.83 m 33.5,-29.309 -4.018,-4.485 1.077,-0.95 4.06,4.389 z M 79.901,8.194 75.74,3.853 76.881,2.76 81.092,7.016 Z m 2.111,2.139 1.201,-1.202 4.269,4.208 -1.215,1.233 z m 17.064,16.893 -4.256,-4.223 1.258,-1.28 4.285,4.206 z m 6.32,6.392 -4.201,-4.269 1.303,-1.303 4.238,4.262 z m 6.192,6.503 -4.111,-4.35 1.36,-1.312 4.156,4.351 z m 6.016,6.66 -3.988,-4.46 1.427,-1.309 4.04,4.468 z m 5.743,6.865 -3.794,-4.605 1.511,-1.288 3.835,4.659 z m 10.396,14.547 -3.288,-4.975 1.585,-1.084 3.3,5.052 z m 8.706,15.622 -2.703,-5.316 1.614,-0.854 2.706,5.392 z m 6.881,16.513 -2.089,-5.589 1.612,-0.632 2.081,5.66 z m 2.788,8.508 -1.817,-5.687 1.592,-0.525 1.742,5.769 z m -40.744,-9.451 c 3.79,-4.537 8.801,-5.552 10.455,-4.233 1.337,1.067 0.54,3.864 -2.08,7.3 -8.224,10.782 -20.149,16.534 -27.55,19.256 -2.949,-0.838 -6.267,-1.878 -9.671,-3.125 11.422,-3.148 23.199,-12.437 28.846,-19.198 M 97.843,68.197 c 1.45,-1.482 2.703,-2.761 3.331,-3.122 1.289,-0.74 4.263,-0.751 5.734,0.747 1.642,1.675 0.509,4.49 -0.731,6.556 -2.898,4.831 -14.976,14.485 -25.489,15.511 -2.302,-2.528 -2.824,-4.304 -2.766,-7.541 7.789,0.243 15.332,-7.463 19.921,-12.151 M 83.09,51.442 c 0.718,-0.984 1.324,-1.923 1.811,-2.781 0.291,-0.513 0.513,-1.078 0.682,-1.671 1.897,-1.003 3.322,-2.844 3.692,-5.125 0.627,-3.861 -1.995,-7.5 -5.857,-8.128 -3.861,-0.625 -7.5,1.996 -8.126,5.86 -0.115,0.705 -0.119,1.402 -0.028,2.076 -0.644,1.109 -1.579,2.283 -2.778,3.47 -0.841,-1.86 -1.167,-3.975 -0.817,-6.135 0.95,-5.853 6.484,-9.841 12.336,-8.891 5.854,0.95 9.842,6.484 8.893,12.336 -0.812,4.997 -4.968,8.624 -9.808,8.989 m 34.555,56.503 c 1.285,-1.337 2.528,-2.753 3.693,-4.28 0.166,-0.218 0.304,-0.42 0.454,-0.629 1.536,-1.057 2.657,-2.71 2.978,-4.695 0.627,-3.862 -1.995,-7.5 -5.856,-8.127 -3.863,-0.626 -7.5,1.996 -8.127,5.858 -0.059,0.362 -0.08,0.721 -0.083,1.078 -0.295,0.304 -0.585,0.618 -0.866,0.953 -0.667,0.798 -1.425,1.634 -2.256,2.49 -0.534,-1.595 -0.706,-3.336 -0.417,-5.109 0.95,-5.853 6.484,-9.841 12.336,-8.892 5.852,0.95 9.841,6.484 8.891,12.337 -0.863,5.318 -5.513,9.084 -10.747,9.016 M 93.676,66.443 c 0.949,-5.852 6.484,-9.84 12.336,-8.891 5.853,0.95 9.842,6.484 8.892,12.336 -0.923,5.688 -6.177,9.601 -11.844,8.946 1.623,-1.458 2.967,-2.874 3.925,-4.126 2.196,-0.907 3.889,-2.89 4.297,-5.408 0.627,-3.862 -1.995,-7.5 -5.858,-8.127 -3.298,-0.535 -6.426,1.305 -7.661,4.258 -0.414,0.412 -0.859,0.866 -1.349,1.366 -0.831,0.849 -1.766,1.803 -2.78,2.788 -0.136,-1.02 -0.133,-2.075 0.042,-3.142 M 44.461,57.776 c 16.032,0.215 29.647,-9.199 32.929,-15.789 1.827,-3.668 3.208,-4.114 3.717,-4.134 0.769,-0.039 1.382,0.775 1.679,1.259 1.282,2.098 1.715,6.203 0.376,8.561 -3.681,6.481 -14.539,17.977 -29.483,15.552 -0.142,-0.023 -0.286,-0.048 -0.429,-0.073 -2.326,-0.417 -8.294,-3.823 -9.551,-5.343 0.176,-0.022 0.422,-0.038 0.762,-0.033 m 6.577,-34.32 c -1.789,-2.282 -2.667,-5.269 -2.167,-8.349 0.949,-5.852 6.483,-9.84 12.336,-8.891 5.852,0.95 9.841,6.483 8.891,12.336 -0.59,3.635 -2.95,6.549 -6.056,8.01 0.332,-1.598 0.556,-3.244 0.649,-4.934 0.911,-0.986 1.555,-2.24 1.785,-3.664 0.627,-3.861 -1.995,-7.5 -5.857,-8.127 -3.861,-0.626 -7.5,1.996 -8.126,5.857 -0.022,0.134 -0.031,0.266 -0.045,0.399 -0.86,1.857 -1.235,4.305 -1.41,7.363 m 50.872,100.67 c -1.336,-0.282 -3.612,-0.789 -6.472,-1.535 1.645,-0.674 3.43,-1.477 5.296,-2.416 0.413,1.327 0.805,2.644 1.176,3.951 m 35.534,14.808 c 0.085,-0.142 1.12,-1.895 1.66,-4.032 0.451,-0.75 0.775,-1.594 0.923,-2.511 0.627,-3.861 -1.996,-7.5 -5.858,-8.126 -3.861,-0.627 -7.5,1.995 -8.126,5.857 -0.156,0.963 -0.11,1.912 0.107,2.804 -0.863,0.801 -1.867,1.649 -3.002,2.522 -0.769,-1.806 -1.065,-3.838 -0.727,-5.914 0.95,-5.852 6.484,-9.841 12.336,-8.891 5.853,0.949 9.842,6.483 8.892,12.336 -0.738,4.552 -4.255,7.964 -8.533,8.814 0.949,-1.006 1.739,-1.97 2.328,-2.859 m 16.988,-27.636 1.447,5.846 -1.398,0.334 -1.528,-5.775 z m 2.918,-5.172 -1.817,-5.687 1.592,-0.525 1.743,5.769 z m 2.362,8.642 -1.527,-5.775 1.479,-0.405 1.447,5.846 z m 1.951,8.751 -1.256,-5.845 1.357,-0.301 1.17,5.903 z m 1.569,8.834 -1.006,-5.897 1.229,-0.217 0.917,5.944 z m -2.72,14.482 0.462,5.991 -0.779,0.062 -0.615,-5.959 z m -0.971,-8.963 0.689,5.972 -1.003,0.112 -0.781,-5.935 z m -3.11,-11.643 -1.256,-5.845 1.357,-0.302 1.171,5.903 z m 1.792,2.719 0.917,5.945 -1.14,0.169 -1.005,-5.897 z m 7.521,15.178 0.462,5.99 -0.78,0.062 -0.615,-5.958 z m -1.286,-2.88 -0.781,-5.934 1.095,-0.149 0.69,5.971 z m -29.141,-70.519 1.602,-0.969 3.01,5.23 -1.61,0.892 z m -10.129,-14.735 1.562,-1.198 3.571,4.862 -1.577,1.122 z m -36.782,-39.307 1.223,-1.246 4.298,4.185 -1.245,1.272 z m -24.458,-26.524 1.023,-0.79 3.802,4.602 -1.059,0.9 z m -5.122,-7.476 0.979,-0.602 3.361,4.916 -1.009,0.731 z M 42.592,0.749 c 0.627,-3.861 -1.995,-7.5 -5.857,-8.127 -3.861,-0.626 -7.5,1.996 -8.127,5.857 -0.004,0.027 -0.004,0.053 -0.008,0.08 -0.503,0.482 -0.988,1.001 -1.421,1.596 -0.646,0.89 -1.267,1.694 -1.898,2.435 -0.429,-1.483 -0.557,-3.076 -0.294,-4.698 0.95,-5.853 6.483,-9.841 12.335,-8.891 5.853,0.949 9.842,6.483 8.892,12.335 -0.861,5.31 -5.498,9.071 -10.72,9.018 1.289,-1.395 2.4,-2.879 3.294,-4.422 1.953,-0.988 3.427,-2.857 3.804,-5.183 m 17.189,136.547 0.22,-0.086 c 0.28,2.347 0.528,4.572 0.745,6.641 -2.479,-2.199 -2.866,-3.655 -2.798,-4.441 0.122,-1.414 1.82,-2.109 1.833,-2.114 m 49.616,25.76 c -1.101,-0.155 -5.446,-0.819 -11.554,-2.396 3.629,-0.525 7.266,-1.471 10.793,-2.699 0.257,1.73 0.509,3.428 0.761,5.095 m -209.714,-213.141 0.457,0.918 -5.544,2.363 -0.259,-0.603 z m 7.712,-4.522 0.748,1.203 -5.292,2.912 -0.55,-1.024 z m 7.24,-5.203 1.043,1.345 -4.969,3.463 -0.842,-1.259 z m 6.66,-5.892 1.309,1.35 -4.549,4.014 -1.129,-1.352 z m 5.971,-6.572 1.522,1.238 -4.031,4.543 -1.392,-1.327 z m 5.169,-7.209 1.673,1.054 -3.442,5.005 -1.586,-1.188 z m 4.291,-7.767 1.736,0.819 -2.795,5.396 -1.699,-0.977 z m 3.371,-8.217 1.665,0.551 -2.082,5.702 -1.724,-0.729 z m 4.666,-26.333 c 0.216,2.001 0.325,4.016 0.332,6.032 l -1.015,-0.027 c 0.107,-1.98 0.133,-3.969 0.041,-5.954 z m -0.31,15.079 -1.39,-0.219 0.805,-5.889 1.148,0.081 z m -1.825,8.898 -1.63,-0.467 1.494,-5.739 1.475,0.295 z m 331.506,280.388 -0.269,0.03 -0.021,-0.329 0.277,-0.016 c -0.066,-1.463 -0.16,-2.542 -0.291,-3.071 -4.048,-4.709 -158.956,5.425 -161.367,5.709 -1.602,0.189 -0.684,18.082 0.886,30.77 l -15.791,-5.904 c 0,0 -3.927,-19.115 -8.051,-38.974 7.357,2.021 14.11,3.097 19.455,3.948 l 2.142,0.342 c 0.122,0.02 0.241,0.01 0.354,-0.013 0.283,1.363 0.58,2.699 0.899,4.005 2.421,-0.095 9.266,-0.353 18.836,-0.71 1.599,1.207 3.503,2.058 5.615,2.401 3.9,0.633 7.679,-0.584 10.442,-3.001 4.56,-0.17 9.4,-0.351 14.428,-0.538 l -0.131,-3.387 0.209,-0.006 0.014,3.39 c 1.726,-0.065 3.472,-0.129 5.237,-0.195 l -0.227,-5.899 0.209,-0.006 0.022,5.905 c 47.372,-1.764 107.82,-4.007 107.82,-4.007 0,0 7.469,-50.708 6.793,-63.708 C 276.544,80.253 261.197,61.157 249.727,49.898 234.935,35.378 199.631,15.936 218.55,4.062 c 13.496,-8.469 40.012,-44.496 42.855,-56.027 0.957,0.188 1.936,-0.34 2.267,-1.295 10e-4,-0.003 10e-4,-0.006 0.002,-0.008 0.366,-1.042 -0.187,-2.18 -1.229,-2.542 -0.106,-0.036 -0.223,-0.066 -0.341,-0.086 -0.729,-0.118 -1.454,0.184 -1.896,0.76 -1.949,-0.604 -3.893,-1.232 -5.834,-1.879 0.15,-0.919 -0.362,-1.851 -1.265,-2.194 -0.136,-0.042 -0.261,-0.083 -0.389,-0.104 -0.832,-0.134 -1.673,0.281 -2.077,1.034 -1.893,-0.659 -3.783,-1.339 -5.67,-2.037 0.353,-1.001 -0.14,-2.108 -1.136,-2.504 -0.141,-0.064 -0.278,-0.096 -0.426,-0.12 -0.893,-0.146 -1.808,0.339 -2.168,1.214 -0.001,0.003 -0.003,0.005 -0.004,0.008 -1.866,-0.717 -3.729,-1.458 -5.587,-2.214 0.016,-0.033 0.039,-0.062 0.054,-0.096 0.002,-0.003 0.002,-0.006 0.002,-0.009 0.432,-1.012 -0.034,-2.186 -1.044,-2.622 -0.152,-0.066 -0.316,-0.112 -0.474,-0.139 -0.877,-0.141 -1.782,0.327 -2.155,1.177 0,0.002 -0.001,0.003 -0.002,0.004 -0.025,0.057 -0.035,0.117 -0.054,0.176 -1.85,-0.779 -3.696,-1.58 -5.539,-2.395 0.041,-0.068 0.087,-0.134 0.121,-0.209 0.001,-0.002 0.001,-0.004 0.002,-0.006 0.452,-0.999 0.017,-2.18 -0.989,-2.647 -0.17,-0.077 -0.335,-0.125 -0.513,-0.154 -0.866,-0.141 -1.746,0.302 -2.137,1.137 -0.001,0.002 -0.003,0.003 -0.003,0.005 -0.038,0.084 -0.061,0.171 -0.088,0.257 -1.829,-0.835 -3.658,-1.687 -5.482,-2.557 0.052,-0.078 0.106,-0.155 0.147,-0.242 0.002,-0.004 0.002,-0.007 0.003,-0.011 0.478,-0.993 0.056,-2.188 -0.937,-2.662 -0.178,-0.091 -0.362,-0.14 -0.55,-0.171 -0.846,-0.136 -1.722,0.286 -2.109,1.099 -0.001,0.003 -0.004,0.004 -0.005,0.007 -0.041,0.084 -0.067,0.171 -0.095,0.258 -1.806,-0.888 -3.61,-1.789 -5.411,-2.709 0.045,-0.068 0.094,-0.13 0.132,-0.205 0,0 10e-4,-0.001 10e-4,-0.002 0.492,-0.983 0.099,-2.19 -0.893,-2.684 -0.187,-0.092 -0.38,-0.154 -0.577,-0.186 -0.838,-0.136 -1.703,0.27 -2.106,1.065 0,0.001 -0.001,0.001 -0.002,0.002 -0.03,0.058 -0.045,0.121 -0.069,0.18 -1.771,-0.929 -3.54,-1.875 -5.304,-2.837 0.016,-0.029 0.038,-0.052 0.053,-0.081 0,-0.001 0,-0.002 0.001,-0.003 0.512,-0.98 0.13,-2.185 -0.849,-2.698 -0.198,-0.102 -0.399,-0.166 -0.606,-0.2 -0.827,-0.134 -1.678,0.263 -2.092,1.042 0,0.002 -0.002,0.004 -0.003,0.006 v 0.001 c -0.088,-0.05 -0.177,-0.099 -0.265,-0.148 -1.655,-0.927 -3.309,-1.868 -4.958,-2.822 0.408,-0.948 0.037,-2.055 -0.88,-2.559 -0.206,-0.105 -0.417,-0.18 -0.625,-0.213 -0.719,-0.117 -1.447,0.187 -1.895,0.784 -1.062,-0.628 -2.124,-1.253 -3.183,-1.893 0,0 -0.05,0.151 -0.152,0.428 -1.506,4.068 -14.675,36.287 -57.24,45.979 -22.979,5.232 -50.139,0.595 -71.751,-4.87 -0.3,0.75 -0.579,1.507 -0.817,2.277 l -0.438,-0.142 c 0.258,-0.756 0.553,-1.5 0.867,-2.234 -20.949,-5.323 -36.597,-11.381 -37.987,-9.863 -2.828,3.086 -8.809,43.652 -8.65,53.302 0.046,2.784 1.139,4.931 3.802,7.913 -8.586,-0.339 -21.888,-0.99 -25.877,-1.89 -0.657,-0.474 -1.237,-0.908 -1.719,-1.28 -1.459,-1.124 -3.474,-2.113 -5.272,-2.405 -0.632,-0.102 -1.223,-0.094 -1.768,10e-4 l -4.296,-2.497 c -0.072,-0.295 -0.204,-0.58 -0.416,-0.827 -7.856,-9.176 -40.919,-28.532 -75.444,-39.272 38.274,-11.016 61.834,-64.87 49.764,-83.144 l -3.245,0.446 c 0.289,1.047 0.524,2.112 0.708,3.184 l -0.451,0.063 c -0.126,-1.075 -0.282,-2.149 -0.486,-3.215 l -62.999,8.661 c 1.061,-0.193 1.77,-1.207 1.607,-2.279 v -0.003 c -0.143,-0.864 -0.829,-1.512 -1.658,-1.646 -0.207,-0.034 -0.429,-0.039 -0.648,-0.004 -1.082,0.179 -1.826,1.203 -1.648,2.296 0.172,1.062 1.145,1.786 2.204,1.655 l -8.913,1.226 c 0.572,-0.433 0.896,-1.152 0.767,-1.91 0,-0.001 -10e-4,-0.002 -10e-4,-0.003 -0.134,-0.871 -0.818,-1.519 -1.646,-1.653 -0.207,-0.034 -0.429,-0.039 -0.647,-0.003 -1.083,0.178 -1.829,1.212 -1.649,2.295 v 0.002 c 0.118,0.723 0.613,1.286 1.247,1.536 l -7.653,1.053 c 0.377,-0.431 0.573,-1.015 0.475,-1.626 v -0.003 c -0.142,-0.874 -0.827,-1.522 -1.657,-1.657 -0.207,-0.033 -0.42,-0.027 -0.639,0.009 -1.091,0.177 -1.823,1.2 -1.658,2.29 v 0.004 c 0.094,0.571 0.43,1.043 0.881,1.34 l -7.089,0.974 c 0.243,-0.392 0.358,-0.868 0.278,-1.362 0,-0.001 0,-0.002 -0.001,-0.003 -0.142,-0.872 -0.827,-1.519 -1.655,-1.654 -0.207,-0.033 -0.419,-0.037 -0.638,-10e-4 -1.081,0.169 -1.824,1.192 -1.656,2.283 v 0.002 c 0.075,0.464 0.31,0.858 0.632,1.153 l -6.726,0.925 c 0.158,-0.344 0.221,-0.736 0.156,-1.139 v -0.002 c -0.132,-0.881 -0.826,-1.53 -1.655,-1.665 -0.197,-0.032 -0.409,-0.035 -0.628,-0.001 -1.09,0.168 -1.834,1.192 -1.668,2.283 0.001,0 0,0.001 0,0.001 0.059,0.378 0.225,0.71 0.455,0.982 l -6.497,0.894 c 0.107,-0.301 0.152,-0.627 0.101,-0.965 v -0.002 c -0.132,-0.872 -0.814,-1.54 -1.653,-1.676 -0.198,-0.032 -0.409,-0.036 -0.618,0.001 -1.088,0.167 -1.84,1.184 -1.678,2.272 0.001,0.003 0,0.006 0.001,0.009 0.045,0.316 0.17,0.598 0.342,0.842 l -6.353,0.874 c 0.078,-0.268 0.106,-0.554 0.065,-0.848 0,-0.001 -0.001,-0.001 -0.001,-0.001 -0.13,-0.881 -0.822,-1.55 -1.66,-1.686 -0.197,-0.032 -0.4,-0.035 -0.607,-0.008 -1.087,0.158 -1.848,1.166 -1.695,2.263 v 0.005 c 0.041,0.284 0.142,0.543 0.285,0.771 l -6.304,0.867 c 0.073,-0.256 0.098,-0.531 0.06,-0.811 0,-0.003 -0.002,-0.005 -0.002,-0.007 -0.111,-0.896 -0.807,-1.574 -1.655,-1.712 -0.188,-0.03 -0.379,-0.03 -0.586,-0.004 -1.086,0.148 -1.856,1.145 -1.712,2.24 v 0.005 c 0.038,0.289 0.138,0.553 0.281,0.786 l -6.365,0.875 c 0.105,-0.284 0.154,-0.593 0.118,-0.917 0,-0.001 -10e-4,-0.001 -10e-4,-0.002 -0.107,-0.907 -0.805,-1.597 -1.662,-1.737 -0.188,-0.03 -0.37,-0.029 -0.556,-0.009 -1.092,0.126 -1.878,1.109 -1.758,2.21 v 0.007 c 0.04,0.349 0.176,0.661 0.368,0.928 l -6.629,0.911 c 0.214,-0.353 0.326,-0.772 0.284,-1.218 0,-0.002 -0.001,-0.003 -0.001,-0.005 -0.085,-0.922 -0.786,-1.642 -1.663,-1.785 -0.168,-0.027 -0.339,-0.035 -0.503,-0.021 -1.096,0.105 -1.908,1.067 -1.813,2.161 0.001,0.006 0,0.012 0,0.017 0.045,0.509 0.282,0.95 0.628,1.273 l -7.413,1.019 c -10.802,63.646 70.801,57.828 102.651,61.098 0.656,0.161 1.311,0.325 1.966,0.494 1.622,-0.677 3.242,-1.354 4.868,-2.004 l 0.173,0.435 c -1.637,0.552 -3.28,1.076 -4.921,1.6 17.201,4.448 34.261,11.473 48.464,18.62 l 8.162,13.736 c 0,0 4.105,6.854 14.806,16.273 -0.388,1.246 -0.356,3.321 0.596,5.551 1.277,2.986 4.525,7.044 12.755,9.416 2.019,0.581 5.12,0.962 8.827,1.204 3.251,2.155 6.66,4.502 10.152,6.978 l -0.108,0.616 c -0.096,0.542 -2.097,13.392 19.03,21.005 2.351,0.847 4.847,1.581 7.417,2.21 -0.302,0.576 -0.39,1.462 0.235,2.803 0.189,0.405 0.374,0.872 0.579,1.386 1.58,3.965 4.225,10.6 16.4,13.964 0.298,0.082 0.608,0.163 0.918,0.244 -0.023,6.82 6.722,15.491 15.555,16.363 l 0.549,0.055 c 0.718,2.713 1.417,5.692 2.092,8.85 l -0.65,0.416 c -0.252,0.162 -6.194,4.029 -6.732,10.069 -0.324,3.643 1.382,7.222 5.071,10.635 2.107,1.951 4.453,3.708 6.944,5.303 0.157,1.065 0.309,2.125 0.457,3.176 l -1.194,0.836 c -0.35,0.244 -8.559,6.07 -9.104,14.141 -0.287,4.238 1.594,8.256 5.59,11.943 2.619,2.416 5.32,4.556 8.065,6.471 0.032,4.998 0.203,13.544 0.259,22.981 -14.175,0.899 -24.965,-2.223 -32.151,-9.335 C 19.657,161.686 16.514,142.96 20.756,117.615 23.118,103.503 18.836,85.502 6.083,78.401 3.988,77.236 1.498,76.267 -1.4,75.796 c -7.941,-1.288 -18.933,1.176 -33.132,13.646 -0.918,0.807 -1.361,1.939 -1.342,3.072 l -17.115,12.69 c -0.888,0.658 -1.073,1.91 -0.415,2.798 0.658,0.886 1.908,1.073 2.798,0.415 l 16.812,-12.465 c 1.43,0.776 3.247,0.638 4.541,-0.498 12.388,-10.881 23.555,-14.453 31.444,-10.063 8.264,4.602 12.853,17.887 10.675,30.903 -4.757,28.422 -0.937,48.999 11.351,61.16 8.793,8.699 21.474,12.602 37.792,11.662 -0.02,7.376 -0.148,14.833 -0.493,21.205 -0.381,7.03 6.841,8.079 11.173,8.145 20.978,0.319 40.131,3.206 41.565,3.426 0.563,3.244 1.16,5.521 1.726,6.048 2.641,2.455 150.645,-0.205 153.331,-0.107 2.686,0.098 3.522,-0.901 3.88,-5.702 0.6,-8.043 1.3,-30.586 0.943,-39.566 M 89.01,-161.577 c 39.558,6.753 75.532,25.1 95.084,36.556 l 15.452,9.737 1.55,1.1 15.086,-20.408 c 12.442,3.055 30.511,7.944 35.487,10.422 0.051,3.267 0.728,11.508 6.199,13.111 1.465,0.435 2.911,0.22 4.181,-0.606 2.901,-1.886 4.235,-6.683 4.774,-9.398 1.868,0.108 5.556,0.707 10.79,3.277 0.073,2.714 1.069,6.832 3.034,9.332 1.473,1.875 3.082,2.367 4.172,2.454 4.348,0.339 6.407,-5.373 7.243,-8.78 2.896,0.752 8.406,2.297 12.826,4.209 0.096,3.147 0.781,9.863 4.81,11.595 1.597,0.685 3.075,0.72 4.385,0.103 2.16,-1.016 3.28,-3.474 4.356,-6.875 4.142,1.212 14.644,4.792 23.258,11.981 0.196,5.147 -1.25,35.404 -3.753,50.833 -77.188,-13.241 -122.49,-38.112 -162.502,-60.079 -21.8,-11.967 -42.392,-23.272 -65.067,-30.591 -49.161,-15.867 -112.216,-11.563 -167.414,-5.261 -17.696,2.02 -42.315,6.029 -68.378,10.273 -40.982,6.673 -87.216,14.201 -101.238,12.538 -0.007,-8.348 0.957,-16.222 2.186,-17.496 2.193,-0.683 11.04,-2.38 19.601,-4.022 7.228,-1.386 14.701,-2.82 19.367,-3.862 9.501,-2.12 100.883,-17.872 116.53,-20.565 0.438,4.154 2.565,9.645 8.684,10.639 2.167,0.351 4.095,-0.185 5.576,-1.551 2.921,-2.693 3.365,-8.022 3.37,-10.961 l 13.86,-1.263 c 0.09,4.642 1.655,10.593 7.042,11.273 2.343,0.306 4.394,-0.319 5.929,-1.806 2.764,-2.676 3.194,-7.513 3.186,-10.329 l 14.611,-0.571 c -0.019,2.042 0.301,4.986 1.956,7.323 1.349,1.907 3.301,3.079 5.799,3.485 2.231,0.362 4.266,-0.165 5.884,-1.523 3.032,-2.545 3.903,-7.386 4.153,-9.981 5.535,-0.815 27.737,-2.874 77.931,5.687 m -319.657,42.971 c -0.061,0.167 -0.108,0.34 -0.123,0.526 l 0.011,0.002 c -0.023,0.279 0.015,0.548 0.1,0.796 -0.004,1.002 0.003,1.994 0.019,2.966 l 0.027,1.587 1.552,0.333 c 0.01,0.003 0.021,0.003 0.031,0.005 12.504,2.706 59.17,-4.912 104.256,-12.253 26.015,-4.237 50.587,-8.238 68.189,-10.248 54.773,-6.253 117.296,-10.539 165.73,5.095 22.316,7.202 42.744,18.417 64.372,30.291 40.627,22.305 86.676,47.584 165.727,60.851 l 0.588,0.098 1.352,0.227 0.358,-1.935 c 0.175,-0.95 0.347,-1.999 0.517,-3.122 0.29,-0.305 0.492,-0.698 0.544,-1.146 0.048,-0.413 -0.038,-0.81 -0.219,-1.152 0.351,-2.607 0.686,-5.519 0.996,-8.605 0.133,-0.238 0.221,-0.506 0.247,-0.796 0.023,-0.272 -0.012,-0.536 -0.091,-0.781 0.295,-3.055 0.568,-6.235 0.813,-9.416 0.029,-0.117 0.052,-0.238 0.06,-0.363 0.007,-0.105 0,-0.206 -0.009,-0.307 1.045,-13.76 1.569,-27.229 1.174,-29.203 l -0.136,-0.672 -0.518,-0.448 c -11.791,-10.187 -26.754,-13.713 -27.385,-13.86 l -1.837,-0.422 -0.068,0.231 c 0.003,-0.06 0.005,-0.1 0.005,-0.1 l -6.475,2.698 c -0.209,-1.395 -0.304,-2.862 -0.283,-4.103 l 0.024,-1.296 -1.173,-0.551 c -6.704,-3.149 -16.345,-5.399 -16.752,-5.494 l -2.083,-0.482 -0.007,0.04 -7.13,3.257 c -0.154,-0.971 -0.195,-1.813 -0.115,-2.308 l 0.231,-1.423 -1.277,-0.669 c -9.814,-5.142 -15.548,-4.29 -15.788,-4.251 l -1.464,0.24 -0.029,0.214 -7.314,3.98 c -0.284,-1.722 -0.366,-3.467 -0.323,-4.666 l 0.038,-1.087 -0.887,-0.623 c -4.979,-3.494 -35.063,-10.887 -38.896,-11.82 -0.178,-0.088 -0.366,-0.158 -0.562,-0.19 -0.089,-0.015 -0.181,-0.01 -0.271,-0.013 l -0.553,-0.133 -0.175,0.237 -29.815,9.495 c -20.162,-11.663 -55.774,-29.471 -94.872,-36.145 -1.845,-0.315 -3.651,-0.616 -5.421,-0.903 -24.389,-3.958 -41.755,-5.345 -53.638,-5.637 -38.48,-4.014 -91.344,-5.604 -152.954,6.073 -66.736,12.647 -90.563,22.738 -98.778,27.535 -2.259,0.479 -3.925,0.873 -4.747,1.146 -3.637,1.212 -4.672,10.082 -4.793,18.7 M 288.226,97.03 c -0.103,-1.976 -0.334,-3.943 -0.681,-5.887 l 0.83,-0.132 c 0.28,1.989 0.441,3.993 0.473,5.998 z m -1.285,-8.785 c -0.465,-1.919 -1.005,-3.818 -1.658,-5.681 l 1.043,-0.35 c 0.614,1.913 1.15,3.855 1.541,5.827 z m -2.7,-8.447 -2.469,-5.376 1.163,-0.58 2.392,5.531 z m -3.874,-7.98 -3.109,-5.04 1.255,-0.818 3.05,5.199 z m -4.795,-7.475 -3.594,-4.707 1.324,-1.051 3.552,4.861 z m -5.477,-6.995 -1.955,-2.23 c -0.643,-0.751 -1.321,-1.47 -1.99,-2.196 l 1.284,-1.198 c 0.675,0.742 1.358,1.479 2.005,2.245 l 1.968,2.278 z m -6.004,-6.562 -4.258,-4.142 1.25,-1.325 4.278,4.222 z m -6.446,-6.165 -4.441,-3.974 1.254,-1.412 4.435,4.028 z m 6.197,-77.822 2.513,-5.392 0.582,0.231 -2.336,5.531 z m -3.451,8.336 -0.945,-0.571 3.001,-5.139 0.843,0.446 z m -9.43,63.543 -4.493,-3.95 1.304,-1.457 4.453,3.975 z m 6.882,-61.612 0.987,0.634 -3.32,5.009 -1.061,-0.759 z m -7.747,12.847 -1.161,-0.957 3.73,-4.629 1.096,0.824 z m -5.859,42.809 -4.357,-4.162 1.407,-1.394 4.286,4.101 z m -1.257,-37.134 4.015,-4.381 1.191,1.025 -3.97,4.513 z m -5.182,30.77 c -1.358,-1.501 -2.658,-3.076 -3.804,-4.79 l 1.589,-1.067 c 1.083,1.594 2.336,3.095 3.662,4.539 z m -5.369,-7.479 c -0.922,-1.868 -1.577,-3.966 -1.578,-6.149 l 1.848,-0.008 c 0.013,1.818 0.576,3.627 1.425,5.315 z m 2.078,-14.817 1.342,1.172 c -1.245,1.437 -2.263,3.051 -2.775,4.804 l -1.751,-0.519 c 0.627,-2.082 1.815,-3.9 3.184,-5.457 m 6.414,-6.333 1.228,1.197 -4.262,4.237 -1.212,-1.275 z m 28.233,-44.789 0.287,0.058 c -0.362,1.97 -0.894,3.903 -1.509,5.808 l -0.489,-0.169 c 0.681,-1.863 1.27,-3.762 1.711,-5.697 m 51.888,10.358 c 0.219,-0.251 0.386,-0.554 0.458,-0.902 0.002,-0.003 0.002,-0.006 0.002,-0.009 0.219,-1.075 -0.477,-2.135 -1.551,-2.361 -0.031,-0.003 -0.06,-0.008 -0.089,-0.013 -1.043,-0.17 -2.051,0.511 -2.279,1.563 0,0.004 -0.002,0.007 -0.003,0.011 -0.038,0.182 -0.038,0.36 -0.026,0.537 -2.041,-0.553 -4,-1.085 -5.896,-1.601 0.024,-0.07 0.053,-0.135 0.07,-0.208 10e-4,-0.004 10e-4,-0.008 0.002,-0.012 0.239,-1.081 -0.436,-2.147 -1.507,-2.392 -0.039,-0.007 -0.078,-0.012 -0.128,-0.02 -1.023,-0.166 -2.017,0.488 -2.262,1.517 0,0.003 0,0.006 -0.001,0.01 -0.005,0.019 -0.003,0.039 -0.008,0.06 -0.622,-0.17 -1.245,-0.34 -1.851,-0.506 -1.362,-0.373 -2.674,-0.733 -3.953,-1.084 0.188,-1.034 -0.444,-2.042 -1.47,-2.295 -0.059,-0.01 -0.108,-0.018 -0.168,-0.028 -0.94,-0.153 -1.845,0.38 -2.179,1.27 -2.055,-0.566 -4.001,-1.106 -5.826,-1.614 0.113,-0.964 -0.481,-1.886 -1.447,-2.153 -0.067,-0.02 -0.138,-0.032 -0.216,-0.044 -0.881,-0.143 -1.756,0.331 -2.125,1.139 -2.109,-0.591 -4.048,-1.137 -5.819,-1.638 0.137,-0.966 -0.439,-1.909 -1.404,-2.194 -0.078,-0.022 -0.165,-0.048 -0.254,-0.061 -0.898,-0.147 -1.779,0.338 -2.143,1.174 -2.262,-0.645 -4.18,-1.199 -5.785,-1.666 0.268,-1.015 -0.296,-2.075 -1.308,-2.406 -0.105,-0.036 -0.204,-0.053 -0.302,-0.068 -0.66,-0.108 -1.313,0.129 -1.757,0.595 0.022,0.299 0.032,0.601 0.034,0.902 0.002,0.406 -0.009,0.813 -0.033,1.219 l -0.147,-0.014 c 0.045,-0.408 0.076,-0.819 0.093,-1.231 0.013,-0.277 0.016,-0.554 0.01,-0.832 -0.18,0.201 -0.325,0.436 -0.414,0.708 0,0.002 -0.001,0.003 -0.001,0.004 -2.122,-0.63 -3.053,-0.92 -3.053,-0.92 0,0 -8.069,29.824 -41.68,57.061 -21.87,17.725 58.231,45.92 59.082,95.811 0.084,4.9 3.101,5.473 3.998,1.605 10.156,-43.848 67.746,-105.061 33.336,-138.914 M 140.556,173.482 c 1.371,-0.532 2.82,-1.067 4.325,-1.604 -1.46,2.369 -4.248,3.752 -7.165,3.279 -3.861,-0.627 -6.484,-4.265 -5.857,-8.127 0.627,-3.862 4.265,-6.484 8.126,-5.857 0.926,0.15 1.776,0.477 2.532,0.934 -1.944,0.685 -3.818,1.369 -5.585,2.056 -2.573,1 -3.849,3.898 -2.849,6.472 1,2.573 3.898,3.847 6.473,2.847 m -51.843,7.68 c 1.34,1.701 2.09,3.825 2.406,5.976 0.241,2.16 0.058,4.405 -0.805,6.392 -0.425,0.988 -1.036,1.896 -1.808,2.594 -0.772,0.695 -1.728,1.136 -2.696,1.204 -1.977,0.087 -3.67,-1.289 -4.74,-2.95 -1.097,-1.68 -1.731,-3.669 -1.996,-5.683 -0.255,-2.016 -0.144,-4.099 0.489,-6.002 0.615,-1.876 1.898,-3.636 3.83,-4.055 0.952,-0.181 1.987,0.002 2.912,0.477 0.924,0.478 1.745,1.2 2.408,2.047 M 328.978,-34.111 c -1.081,-0.205 -1.804,-1.245 -1.597,-2.336 0.001,-0.002 0.002,-0.004 0.002,-0.006 0.207,-1.068 1.221,-1.772 2.284,-1.599 0.021,0.003 0.031,0.005 0.05,0.008 1.075,0.205 1.796,1.235 1.598,2.321 -10e-4,0.005 0,0.011 -10e-4,0.016 -0.206,1.08 -1.245,1.803 -2.336,1.596 m -548.007,-71.477 c -1.099,0.035 -2.023,-0.834 -2.067,-1.935 0,-0.008 0.002,-0.015 0.002,-0.023 -0.022,-1.09 0.841,-2 1.934,-2.044 0.133,-0.009 0.263,0.002 0.391,0.024 0.913,0.147 1.63,0.923 1.673,1.891 0,0.007 0.002,0.013 0.003,0.021 0.033,1.11 -0.826,2.034 -1.936,2.066 m 383.502,5.371 v 0.001 c -0.522,0.969 -1.735,1.329 -2.704,0.807 -0.977,-0.534 -1.338,-1.746 -0.816,-2.715 v -0.001 c 0.42,-0.772 1.271,-1.151 2.081,-1.019 0.216,0.035 0.439,0.101 0.633,0.214 0.979,0.523 1.339,1.737 0.806,2.713 m 8.766,4.795 -0.001,10e-4 c -0.522,0.97 -1.745,1.328 -2.712,0.796 -0.967,-0.531 -1.326,-1.754 -0.796,-2.721 0.001,-10e-4 0.001,-10e-4 0.001,-0.002 0.428,-0.76 1.269,-1.14 2.079,-1.008 0.217,0.035 0.438,0.111 0.642,0.224 l 0.002,-0.01 c 0.967,0.533 1.315,1.753 0.785,2.72 m 6.05,5.603 c -0.967,-0.532 -1.328,-1.742 -0.795,-2.719 0,-0.001 0,-0.002 0.001,-0.003 0.417,-0.763 1.259,-1.143 2.078,-1.01 0.217,0.035 0.427,0.11 0.633,0.224 0.966,0.52 1.326,1.741 0.798,2.708 -0.003,0.002 -0.003,0.003 -0.003,0.005 -0.532,0.967 -1.745,1.327 -2.712,0.795 m -271.575,-35.845 v -0.002 c -0.167,-1.09 0.576,-2.113 1.667,-2.281 0.219,-0.035 0.431,-0.032 0.628,0.001 0.829,0.135 1.523,0.794 1.654,1.666 v 0.004 c 0.165,1.09 -0.577,2.112 -1.667,2.279 -1.091,0.167 -2.115,-0.576 -2.282,-1.667 m 13.845,-2.1 v 0 c 0.167,1.091 -0.586,2.114 -1.685,2.27 -1.089,0.157 -2.101,-0.594 -2.27,-1.684 v -0.002 c -0.158,-1.088 0.596,-2.111 1.686,-2.269 0.208,-0.037 0.42,-0.033 0.617,-10e-4 0.84,0.136 1.521,0.804 1.652,1.686 m -33.616,5.253 v -0.007 c -0.173,-1.09 0.569,-2.11 1.649,-2.288 0.219,-0.036 0.442,-0.04 0.649,-0.007 0.82,0.133 1.505,0.782 1.647,1.656 v 0.003 c 0.175,1.091 -0.568,2.114 -1.65,2.293 -1.092,0.176 -2.116,-0.567 -2.295,-1.65 m 89.283,-11.547 c -10e-4,-0.001 0,-0.002 0,-0.002 -0.092,-1.109 0.732,-2.068 1.828,-2.153 0.165,-0.013 0.326,-0.008 0.484,0.018 0.889,0.144 1.6,0.878 1.672,1.811 v 0.003 c 0.093,1.099 -0.732,2.068 -1.83,2.152 -1.097,0.086 -2.068,-0.731 -2.154,-1.829 m -19.917,1.874 v 0 c -0.105,-1.101 0.692,-2.086 1.784,-2.193 0.185,-0.02 0.357,-0.013 0.524,0.014 0.878,0.142 1.573,0.854 1.678,1.771 v 0.001 c 0.104,1.102 -0.691,2.076 -1.794,2.192 -1.093,0.116 -2.075,-0.692 -2.192,-1.785 m 9.957,-0.988 v -0.002 c -0.105,-1.1 0.701,-2.073 1.801,-2.177 0.175,-0.012 0.346,-0.005 0.504,0.02 0.888,0.145 1.592,0.867 1.677,1.782 0,0.002 -0.001,0.005 -0.001,0.007 0.099,1.107 -0.715,2.076 -1.812,2.17 -1.102,0.105 -2.075,-0.7 -2.169,-1.8 m -29.831,3.225 c 0,-0.001 0,-0.001 -0.001,-0.002 -0.137,-1.096 0.644,-2.094 1.739,-2.23 0.196,-0.019 0.388,-0.018 0.566,0.011 0.858,0.139 1.557,0.829 1.665,1.729 v 0.008 c 0.131,1.093 -0.648,2.085 -1.74,2.222 -1.095,0.136 -2.093,-0.642 -2.229,-1.738 m 9.933,-1.166 c -0.126,-1.094 0.672,-2.078 1.767,-2.205 0.185,-0.021 0.365,-0.011 0.544,0.017 0.859,0.14 1.565,0.842 1.661,1.749 v 0.005 c 0.122,1.102 -0.665,2.086 -1.766,2.2 -1.094,0.126 -2.078,-0.66 -2.205,-1.763 0,-10e-4 -10e-4,-0.002 -10e-4,-0.003 m -19.854,2.494 c 0,-0.001 -10e-4,-0.001 -10e-4,-0.002 -0.146,-1.098 0.615,-2.109 1.703,-2.256 0.207,-0.028 0.409,-0.024 0.596,0.006 0.84,0.136 1.539,0.815 1.658,1.705 0,0.001 0.001,0.002 0.001,0.002 0.157,1.09 -0.614,2.099 -1.701,2.246 l -0.002,0.011 c -1.098,0.145 -2.108,-0.616 -2.254,-1.712 m -29.687,4.513 v -0.001 c -0.178,-1.093 0.566,-2.118 1.657,-2.286 0.218,-0.035 0.431,-0.031 0.638,0.003 0.828,0.134 1.513,0.783 1.656,1.657 0.167,1.09 -0.577,2.115 -1.669,2.293 -1.09,0.167 -2.113,-0.577 -2.282,-1.666 m 189.016,-7.018 c 0.002,-0.009 10e-4,-0.018 0.003,-0.027 0.225,-1.078 1.28,-1.778 2.359,-1.552 1.089,0.217 1.789,1.273 1.562,2.36 -10e-4,0.006 -0.004,0.011 -0.005,0.016 -0.223,1.071 -1.272,1.763 -2.354,1.537 -1.071,-0.214 -1.765,-1.254 -1.565,-2.334 m -99.644,-3.702 v -0.005 c -0.076,-1.095 0.759,-2.054 1.854,-2.129 0.163,-0.005 0.315,-0.001 0.462,0.024 0.899,0.145 1.607,0.899 1.667,1.84 v 0.006 c 0.07,1.104 -0.761,2.049 -1.855,2.124 -1.105,0.074 -2.052,-0.757 -2.128,-1.86 m 122.881,9.643 c -0.001,0.005 -0.004,0.009 -0.006,0.014 -0.338,1.042 -1.45,1.624 -2.506,1.292 -1.043,-0.331 -1.628,-1.436 -1.311,-2.48 0.003,-0.007 0.003,-0.014 0.005,-0.022 0.308,-0.963 1.263,-1.538 2.231,-1.381 0.088,0.015 0.185,0.041 0.282,0.067 1.051,0.333 1.639,1.451 1.305,2.51 m -13.465,-3.801 c 0.002,-0.008 0.002,-0.015 0.004,-0.023 0.255,-1.013 1.239,-1.643 2.256,-1.478 0.059,0.009 0.118,0.019 0.177,0.029 1.07,0.274 1.714,1.362 1.439,2.432 -0.002,0.007 -0.006,0.013 -0.008,0.021 -0.284,1.056 -1.363,1.7 -2.426,1.428 -1.061,-0.274 -1.702,-1.347 -1.442,-2.409 m 47.509,20.319 c -0.983,-0.493 -1.385,-1.69 -0.895,-2.674 10e-4,-0.001 10e-4,-0.002 0.002,-0.004 0.404,-0.805 1.27,-1.212 2.109,-1.076 0.198,0.032 0.392,0.084 0.578,0.185 l 0.001,-0.01 c 0.983,0.504 1.386,1.704 0.892,2.687 -0.002,0.003 -0.004,0.005 -0.005,0.008 -0.499,0.989 -1.692,1.378 -2.682,0.884 m -8.944,-4.318 c -0.996,-0.465 -1.43,-1.654 -0.972,-2.65 0.003,-0.003 0.003,-0.007 0.004,-0.01 0.389,-0.829 1.272,-1.272 2.14,-1.131 0.168,0.027 0.351,0.086 0.521,0.165 0.998,0.466 1.433,1.651 0.965,2.659 0,0.001 0,0.001 -0.001,0.002 -0.465,0.996 -1.65,1.431 -2.657,0.965 m -6.438,-5.087 c -10e-4,0.002 -0.002,0.003 -0.003,0.006 -0.431,1.009 -1.6,1.486 -2.613,1.058 -1.018,-0.428 -1.495,-1.599 -1.067,-2.609 0.002,-0.005 0.003,-0.01 0.005,-0.015 0.363,-0.863 1.272,-1.344 2.159,-1.199 0.149,0.024 0.304,0.069 0.455,0.134 1.025,0.429 1.493,1.599 1.064,2.625 m -9.246,-3.771 c -0.002,0.005 -0.005,0.009 -0.007,0.014 -0.395,1.021 -1.538,1.548 -2.564,1.16 -1.041,-0.381 -1.562,-1.524 -1.187,-2.556 0.001,-0.002 0.001,-0.004 0.002,-0.006 0.342,-0.917 1.276,-1.435 2.194,-1.286 0.128,0.021 0.253,0.061 0.379,0.102 1.032,0.38 1.563,1.54 1.183,2.572 m -98.35,-14.416 c 0.016,1.102 -0.867,2.004 -1.959,2.018 l -0.01,-0.001 c -1.094,0.024 -1.999,-0.856 -2.019,-1.956 0,-0.005 -0.002,-0.009 -0.002,-0.014 -0.025,-1.098 0.863,-2.007 1.96,-2.021 l 0.001,-0.01 c 0.122,-10e-4 0.241,0.009 0.36,0.027 0.938,0.153 1.656,0.969 1.67,1.943 0,0.005 -10e-4,0.009 -10e-4,0.014 m 10,-0.006 c -0.011,1.1 -0.902,1.986 -2.004,1.979 -1.107,-0.009 -1.99,-0.895 -1.992,-2 0,-0.005 -10e-4,-0.01 -10e-4,-0.016 0.007,-1.102 0.911,-1.99 2.015,-1.983 0.101,-0.003 0.21,0.015 0.308,0.03 0.958,0.156 1.685,0.982 1.674,1.983 v 0.007 m -33.979,0.816 c 0,-0.002 0,-0.003 -10e-4,-0.005 -0.053,-1.103 0.797,-2.038 1.901,-2.103 0.144,-0.006 0.284,0.006 0.421,0.029 0.909,0.147 1.625,0.911 1.672,1.872 0.001,0.001 0,0.002 0,0.004 0.062,1.102 -0.788,2.036 -1.889,2.09 -1.103,0.064 -2.038,-0.785 -2.104,-1.887 m 9.994,-0.463 c 0,-0.003 -10e-4,-0.005 -10e-4,-0.007 -0.044,-1.101 0.826,-2.034 1.926,-2.068 0.133,-0.008 0.263,0.002 0.392,0.022 0.918,0.15 1.641,0.936 1.676,1.904 0,0.004 -10e-4,0.008 -10e-4,0.013 0.027,1.104 -0.829,2.021 -1.924,2.055 -1.109,0.043 -2.031,-0.822 -2.068,-1.919 m 33.987,-0.125 c -0.032,1.105 -0.96,1.963 -2.057,1.936 -1.104,-0.038 -1.963,-0.95 -1.943,-2.052 0,-0.005 -0.001,-0.01 -0.001,-0.015 0.037,-1.1 0.957,-1.963 2.057,-1.935 0.09,0.004 0.18,0.007 0.27,0.022 0.977,0.159 1.707,1.027 1.675,2.035 0,0.003 -10e-4,0.006 -10e-4,0.009 m 9.993,0.477 c 0,0.006 -0.002,0.011 -0.003,0.016 -0.076,1.097 -1.009,1.938 -2.107,1.871 -1.103,-0.058 -1.95,-1.003 -1.886,-2.104 v -0.005 c 0.057,-1.105 1.003,-1.945 2.109,-1.887 0.07,0.012 0.14,0.013 0.209,0.024 0.996,0.162 1.732,1.062 1.678,2.085 m 104.538,30.601 c -0.002,0.004 -0.005,0.006 -0.006,0.009 -0.516,0.973 -1.728,1.35 -2.695,0.841 -0.98,-0.515 -1.361,-1.731 -0.839,-2.701 0.411,-0.784 1.266,-1.182 2.085,-1.048 0.208,0.033 0.42,0.098 0.616,0.201 0.979,0.523 1.35,1.728 0.839,2.698 m -78.68,-27.868 C 77,-132.834 77,-132.842 77,-132.85 c 0.176,-1.085 1.2,-1.832 2.286,-1.655 1.095,0.178 1.831,1.198 1.665,2.286 -0.002,0.009 -0.005,0.016 -0.007,0.025 -0.189,1.081 -1.202,1.815 -2.29,1.639 -1.077,-0.174 -1.818,-1.183 -1.655,-2.27 m -19.871,-2.289 v -0.009 c 0.097,-1.098 1.06,-1.914 2.169,-1.815 0.051,-0.002 0.09,0.004 0.14,0.012 1.026,0.167 1.767,1.097 1.678,2.147 -0.001,0.006 -0.003,0.011 -0.004,0.018 -0.107,1.09 -1.073,1.895 -2.166,1.808 -1.097,-0.097 -1.909,-1.065 -1.817,-2.161 m 9.954,0.971 c 0,-0.004 -10e-4,-0.008 0,-0.012 0.138,-1.103 1.136,-1.883 2.228,-1.746 1.094,0.127 1.874,1.125 1.745,2.228 0,0.005 -0.002,0.01 -0.003,0.015 -0.144,1.085 -1.126,1.859 -2.223,1.722 l -10e-4,0.009 c -1.088,-0.136 -1.866,-1.127 -1.746,-2.216 m -294.169,26.385 c 0,0.004 0,0.008 -0.001,0.012 -0.084,0.522 -0.375,1.003 -0.8,1.308 -0.537,0.379 -1.253,0.486 -1.874,0.253 -0.123,-0.05 -0.236,-0.109 -0.346,-0.177 -0.111,-0.069 -0.22,-0.148 -0.316,-0.234 -0.097,-0.096 -0.182,-0.191 -0.256,-0.295 -0.075,-0.103 -0.147,-0.226 -0.197,-0.346 -0.054,-0.11 -0.104,-0.239 -0.134,-0.367 -0.03,-0.125 -0.039,-0.258 -0.05,-0.382 -0.008,-0.133 0.004,-0.273 0.025,-0.401 0.085,-0.523 0.372,-0.983 0.809,-1.298 0.346,-0.249 0.749,-0.369 1.162,-0.367 0.107,0 0.214,0.003 0.322,0.021 0.267,0.044 0.515,0.135 0.736,0.272 0.221,0.137 0.416,0.31 0.572,0.529 0.303,0.43 0.429,0.953 0.348,1.472 m 567.861,72.248 c -0.311,-0.431 -0.768,-0.707 -1.284,-0.795 -0.005,0 -0.01,-0.003 -0.015,-0.003 -0.532,-0.087 -1.058,0.031 -1.494,0.345 -0.104,0.074 -0.2,0.17 -0.296,0.266 -0.086,0.088 -0.164,0.197 -0.232,0.306 -0.069,0.111 -0.128,0.223 -0.168,0.348 -0.049,0.118 -0.077,0.239 -0.098,0.362 -0.001,0.006 -0.004,0.011 -0.005,0.017 -0.02,0.129 -0.033,0.268 -0.024,0.401 10e-4,0.121 0.019,0.256 0.05,0.383 0.029,0.126 0.069,0.255 0.121,0.375 0.062,0.11 0.124,0.233 0.199,0.336 0.084,0.105 0.17,0.199 0.264,0.296 0.099,0.086 0.198,0.164 0.308,0.232 0.111,0.069 0.233,0.128 0.358,0.169 0.247,0.101 0.503,0.143 0.77,0.125 0.131,0.001 0.256,-0.019 0.382,-0.049 0.127,-0.03 0.255,-0.071 0.375,-0.122 0.121,-0.061 0.232,-0.124 0.336,-0.198 0.103,-0.074 0.21,-0.169 0.295,-0.256 0.087,-0.097 0.175,-0.205 0.244,-0.315 0.068,-0.111 0.118,-0.234 0.167,-0.348 0.051,-0.124 0.083,-0.26 0.103,-0.388 0.022,-0.128 0.033,-0.259 0.024,-0.392 -0.009,-0.133 -0.02,-0.257 -0.049,-0.383 -0.031,-0.126 -0.071,-0.254 -0.134,-0.366 -0.052,-0.119 -0.112,-0.241 -0.197,-0.346"
             style="fill:#000000;fill-opacity:1;fill-rule:nonzero;stroke:none"
             id="path290" />
        </g>
      </g>
    </g>
  </g>
</svg>
