<?xml version="1.0" encoding="UTF-8" standalone="no"?>
<!-- Created with Inkscape (http://www.inkscape.org/) -->

<svg
   version="1.1"
   id="svg1031"
   width="784"
   height="784"
   viewBox="0 0 784 784"
   sodipodi:docname="dove-bird-clipart-pdv.svg"
   inkscape:version="1.2 (dc2aedaf03, 2022-05-15)"
   xmlns:inkscape="http://www.inkscape.org/namespaces/inkscape"
   xmlns:sodipodi="http://sodipodi.sourceforge.net/DTD/sodipodi-0.dtd"
   xmlns="http://www.w3.org/2000/svg"
   xmlns:svg="http://www.w3.org/2000/svg">
  <defs
     id="defs1035">
    <clipPath
       clipPathUnits="userSpaceOnUse"
       id="clipPath1047">
      <path
         d="m 534.756,54.965 0.138,0.002 -0.008,0.33 c -0.042,-0.113 -0.088,-0.221 -0.13,-0.332"
         id="path1045" />
    </clipPath>
    <clipPath
       clipPathUnits="userSpaceOnUse"
       id="clipPath1055">
      <path
         d="m 535.084,55.65 h 0.416 v -0.416 h -0.416 z"
         id="path1053" />
    </clipPath>
    <clipPath
       clipPathUnits="userSpaceOnUse"
       id="clipPath1065">
      <path
         d="m 535.08444,55.64962 h 0.13908 v -0.3321 h -0.13908 z"
         id="path1063" />
    </clipPath>
    <linearGradient
       x1="0"
       y1="0"
       x2="1"
       y2="0"
       gradientUnits="userSpaceOnUse"
       gradientTransform="matrix(0.1388,0,0,-0.1388,535.08401,55.483417)"
       spreadMethod="pad"
       id="linearGradient1071">
      <stop
         style="stop-opacity:1;stop-color:#ffffff"
         offset="0"
         id="stop1067" />
      <stop
         style="stop-opacity:1;stop-color:#231f20"
         offset="1"
         id="stop1069" />
    </linearGradient>
    <clipPath
       clipPathUnits="userSpaceOnUse"
       id="clipPath1081">
      <path
         d="M 0,588 H 588 V 0 H 0 Z"
         id="path1079" />
    </clipPath>
  </defs>
  <sodipodi:namedview
     id="namedview1033"
     pagecolor="#ffffff"
     bordercolor="#000000"
     borderopacity="0.25"
     inkscape:showpageshadow="2"
     inkscape:pageopacity="0.0"
     inkscape:pagecheckerboard="0"
     inkscape:deskcolor="#d1d1d1"
     showgrid="false"
     inkscape:zoom="1.067602"
     inkscape:cx="392.93668"
     inkscape:cy="392.46834"
     inkscape:window-width="1920"
     inkscape:window-height="1017"
     inkscape:window-x="-8"
     inkscape:window-y="-8"
     inkscape:window-maximized="1"
     inkscape:current-layer="g1039">
    <inkscape:page
       x="0"
       y="0"
       id="page1037"
       width="784"
       height="784" />
  </sodipodi:namedview>
  <g
     id="g1039"
     inkscape:groupmode="layer"
     inkscape:label="Page 1"
     transform="matrix(1.3333333,0,0,-1.3333333,0,784)">
    <g
       id="g1041">
      <g
         id="g1043"
         clip-path="url(#clipPath1047)">
        <g
           id="g1049">
          <g
             id="g1051"
             clip-path="url(#clipPath1055)">
            <g
               id="g1057">
              <g
                 id="g1059">
                <g
                   id="g1061"
                   clip-path="url(#clipPath1065)">
                  <path
                     d="m 535.084,55.65 h 0.416 v -0.416 h -0.416 z"
                     style="fill:url(#linearGradient1071);stroke:none"
                     id="path1073" />
                </g>
              </g>
            </g>
          </g>
        </g>
      </g>
    </g>
    <g
       id="g1075">
      <g
         id="g1077"
         clip-path="url(#clipPath1081)">
        <g
           id="g1083"
           transform="translate(515.0889,489.2593)">
          <path
             d="m 0,0 c -1.78,-0.066 -4.006,-0.466 -6.674,-1.372 -10.663,-3.617 -23.39,-13.76 -27.804,-28.266 l -0.659,-2.168 -0.167,0.032 c -7.557,-25.086 -30.672,-102.915 -30.517,-116.402 1.394,0.117 2.828,-0.194 3.965,-0.968 1.511,-0.938 2.461,-2.425 3.44,-3.786 -1.109,1.275 -2.224,2.598 -3.686,3.371 -1.435,0.816 -3.145,0.889 -4.653,0.357 -1.524,-0.51 -2.874,-1.496 -4.091,-2.586 -1.116,-1.002 -2.129,-2.128 -3.087,-3.302 l -3.995,-33.086 1.515,33.437 c -0.793,0.494 -1.637,0.901 -2.506,1.181 -1.289,0.42 -2.652,0.539 -3.874,0.224 -1.225,-0.303 -2.278,-1.05 -3.058,-2.084 -0.705,-0.919 -1.213,-2.028 -1.593,-3.198 l 0.056,0.005 1.183,-30.007 -3.627,29.254 c -0.635,0.273 -1.36,0.489 -2.036,0.587 -0.924,0.141 -1.843,0.09 -2.683,-0.17 -1.552,-0.478 -2.807,-1.714 -3.712,-3.263 l 4.563,-27.733 -6.879,26.788 c -0.166,0 -0.337,-0.006 -0.499,-0.02 -0.456,-0.041 -0.918,-0.126 -1.366,-0.249 -0.898,-0.246 -1.742,-0.652 -2.453,-1.205 -1.376,-1.048 -2.214,-2.653 -2.553,-4.454 l 6.011,-25.054 -8.282,24.005 c -0.489,0.063 -1.165,-0.032 -1.785,-0.268 -0.856,-0.314 -1.683,-0.834 -2.382,-1.471 -1.308,-1.18 -2.139,-2.795 -2.144,-4.454 l 8.45,-22.651 -10.47,21.061 c -0.461,-0.036 -0.907,-0.244 -1.345,-0.656 -0.615,-0.575 -1.106,-1.433 -1.452,-2.346 -0.587,-1.583 -0.825,-3.362 -0.663,-5.063 l 8.671,-18.024 -10.301,15.94 c -1.709,-0.278 -3.393,-1.115 -4.341,-2.451 -0.552,-0.774 -0.808,-1.722 -0.738,-2.714 0.042,-0.68 0.226,-1.365 0.486,-2.036 l 9.069,-13.783 -11.194,12.494 c -0.595,0.118 -1.204,0.18 -1.815,0.18 -1.22,-0.001 -2.47,-0.238 -3.516,-0.849 -1.041,-0.601 -1.784,-1.699 -1.775,-2.954 -0.013,-0.368 0.033,-0.737 0.105,-1.1 l 11.953,-12.776 -9.986,8.171 c -0.003,-0.645 -0.122,-1.281 -0.392,-1.866 -0.907,-1.954 -3.012,-2.904 -5.633,-2.536 l -0.447,0.063 -0.397,0.214 c -20.103,10.815 -48.448,52.357 -49.644,54.12 l -0.207,0.305 -0.112,0.352 c -5.851,18.526 -20.09,69.987 -18.259,90.779 -3.709,-4.527 -6.683,-13.204 -5.549,-21.554 2.883,-11.701 5.935,-27.008 9.009,-37.7 1.71,-5.967 3.47,-11.92 5.333,-17.841 0.922,-2.963 1.897,-5.91 2.913,-8.841 0.546,-1.45 1.016,-2.934 1.626,-4.36 l 0.89,-2.149 1.095,-2.053 -1.166,2.019 -0.964,2.122 c -0.661,1.41 -1.18,2.875 -1.777,4.311 -1.115,2.901 -2.192,5.818 -3.215,8.751 -2.064,5.863 -4.027,11.76 -5.939,17.672 -3.576,11.018 -6.997,22.08 -10.345,33.173 -1.215,-0.418 -2.173,-1.189 -2.828,-2.339 -1.109,-1.947 -1.349,-4.753 -0.769,-7.997 3.133,-10.078 6.423,-22.604 9.685,-31.695 1.889,-5.269 3.812,-10.525 5.825,-15.748 0.998,-2.613 2.034,-5.214 3.11,-7.796 0.562,-1.28 1.068,-2.588 1.687,-3.841 l 0.901,-1.895 1.044,-1.82 -1.113,1.782 -0.973,1.863 c -0.669,1.235 -1.223,2.522 -1.834,3.784 -1.174,2.544 -2.309,5.106 -3.405,7.687 -2.211,5.149 -4.332,10.336 -6.42,15.536 -3.2,7.967 -6.307,15.969 -9.379,23.987 -3.126,-2.953 -3.195,-6.652 -2.501,-9.577 3.071,-7.615 6.286,-16.535 9.081,-23.21 1.778,-4.264 3.539,-8.534 5.206,-12.844 0.839,-2.153 1.657,-4.314 2.418,-6.497 0.383,-1.09 0.768,-2.179 1.093,-3.29 0.371,-1.094 0.629,-2.227 0.883,-3.35 -0.332,1.109 -0.662,2.206 -1.107,3.273 -0.397,1.08 -0.854,2.138 -1.309,3.196 -0.905,2.117 -1.866,4.212 -2.847,6.296 -1.951,4.174 -3.995,8.306 -6.055,12.428 -2.671,5.326 -7.094,12.585 -11.055,19.251 l -0.018,-0.008 c -0.018,0.042 -0.033,0.083 -0.051,0.124 -1.012,1.705 -1.996,3.373 -2.908,4.955 -1.826,2.226 -4.487,4.22 -8.084,4.084 3.972,-7.439 7.907,-14.896 11.751,-22.402 2.594,-5.064 5.151,-10.148 7.614,-15.279 1.241,-2.56 2.438,-5.143 3.594,-7.743 0.548,-1.314 1.167,-2.596 1.649,-3.938 l 0.759,-1.994 0.581,-2.055 -0.655,2.028 -0.83,1.962 c -0.53,1.316 -1.196,2.576 -1.79,3.865 -1.249,2.551 -2.538,5.082 -3.871,7.592 -2.646,5.027 -5.386,10.008 -8.162,14.967 -3.576,6.392 -9.03,14.724 -13.999,22.464 l -0.012,-0.002 -0.076,0.139 c -1.477,2.3 -2.904,4.541 -4.23,6.666 -1.758,2.136 -3.475,3.399 -5.024,3.635 -1.284,0.194 -2.583,-0.345 -3.956,-1.594 5.678,-9.572 11.298,-19.171 16.792,-28.847 3.181,-5.59 6.311,-11.208 9.351,-16.876 1.527,-2.83 3.005,-5.689 4.446,-8.564 0.681,-1.458 1.433,-2.879 2.056,-4.364 l 0.948,-2.22 c 0.265,-0.758 0.485,-1.535 0.728,-2.298 -0.269,0.758 -0.512,1.524 -0.801,2.27 l -1.018,2.182 c -0.668,1.459 -1.467,2.857 -2.193,4.287 -1.532,2.823 -3.099,5.625 -4.716,8.399 -3.219,5.56 -6.529,11.066 -9.887,16.544 -4.649,7.6 -11.835,17.949 -18.116,27.187 l -0.022,-0.021 -1.341,2.029 c -0.159,0.235 -0.315,0.466 -0.473,0.7 -5.1,7.548 -14.07,11.764 -20.365,12.029 15.661,-12.032 43.337,-53.956 55.819,-75.943 l 0.171,-0.303 0.084,-0.338 c 0.508,-2.063 12.381,-50.779 6.53,-72.872 l -0.115,-0.436 -0.259,-0.368 c -1.521,-2.166 -3.653,-3.054 -5.701,-2.38 -0.605,0.2 -1.142,0.541 -1.611,0.972 l -0.877,-12.857 -1.19,17.505 c -0.209,0.284 -0.437,0.55 -0.701,0.781 -0.91,0.863 -2.218,1.072 -3.369,0.722 -1.16,-0.345 -2.188,-1.095 -3.024,-1.986 -0.421,-0.453 -0.798,-0.948 -1.123,-1.473 l 1.487,-16.687 -3.955,16.209 c -0.304,0.591 -0.664,1.136 -1.11,1.58 -0.703,0.712 -1.602,1.137 -2.569,1.229 -1.599,0.15 -3.307,-0.483 -4.674,-1.483 l 4.645,-18.339 -7.101,18.112 c -0.885,1.803 -2.353,3.291 -4.115,4.004 -0.896,0.36 -1.87,0.512 -2.726,0.349 -0.634,-0.113 -1.164,-0.394 -1.555,-0.805 l 8.231,-22.064 -10.761,21.648 c -1.215,1.131 -2.961,1.628 -4.718,1.479 -0.941,-0.075 -1.887,-0.323 -2.701,-0.734 -0.597,-0.29 -1.128,-0.719 -1.415,-1.121 l 11.865,-22.449 -14.183,21.51 c -1.547,0.982 -3.291,1.468 -4.996,1.18 -0.89,-0.142 -1.763,-0.48 -2.557,-0.968 -0.396,-0.243 -0.773,-0.523 -1.115,-0.828 -0.121,-0.107 -0.241,-0.228 -0.356,-0.349 l 14.857,-23.329 -17.129,22.283 c -1.75,0.399 -3.51,0.325 -4.919,-0.48 -0.764,-0.434 -1.429,-1.072 -1.957,-1.843 -0.391,-0.561 -0.729,-1.237 -0.963,-1.887 l 18.879,-22.639 -21.099,21.369 0.042,0.038 c -1.114,0.523 -2.271,0.909 -3.423,1.022 -1.289,0.138 -2.554,-0.121 -3.612,-0.808 -1.065,-0.677 -1.909,-1.753 -2.484,-2.98 -0.412,-0.875 -0.706,-1.822 -0.884,-2.794 l 25.479,-21.59 -27.115,19.706 c -1.435,0.088 -2.871,0.116 -4.289,-0.007 -1.629,-0.143 -3.27,-0.456 -4.684,-1.219 -1.419,-0.738 -2.534,-2.037 -2.919,-3.642 -0.435,-1.596 -0.232,-3.313 -0.057,-4.994 -0.324,1.645 -0.762,3.353 -0.414,5.098 0.211,1.359 0.964,2.617 2.001,3.555 -10.074,9.594 -89.715,48.869 -112.261,59.9 -12.575,4.377 -26.433,2.012 -35.333,-2.755 -2.484,-1.329 -4.299,-2.682 -5.562,-3.936 42.549,4.692 150.366,-61.932 197.647,-91.149 2.897,-1.789 5.517,-3.409 7.822,-4.825 15.405,-9.464 24.583,-12.487 30.687,-10.109 0.12,0.048 0.241,0.098 0.36,0.149 9.283,4.026 14.473,22.287 23.003,52.292 l 1.462,5.139 2.148,-0.272 c 1.697,-0.215 16.606,-2.218 22.223,-6.898 1.24,-0.782 6.94,-4.567 8.882,-9.264 0.551,-1.329 1.082,-3.024 1.645,-4.819 1.356,-4.327 3.043,-9.71 5.767,-12.634 3.38,-3.627 12.768,-10.445 16.046,-12.789 l 2.642,1.146 c 1.218,7.459 2.7,19.085 2.034,22.343 -0.859,4.198 -2.96,7.543 -4.813,10.496 -1.397,2.224 -2.604,4.147 -3.117,6.143 -1.14,4.432 -0.329,11.032 -0.294,11.312 l 0.028,0.171 c 1.077,5.476 9.214,19.583 10.137,21.174 l 1.202,2.07 4.957,-2.551 c 27.732,-14.277 44.612,-22.966 53.893,-18.94 0.12,0.051 0.238,0.106 0.356,0.161 5.908,2.831 9.972,11.597 13.59,29.311 0.542,2.65 1.15,5.669 1.823,9.008 C -57.544,-152.099 -32.503,-27.857 0,0 m -419.61,-196.512 c 19.987,-10.003 97.271,-49.011 106.29,-58.56 1.194,0.535 2.476,0.844 3.742,1.054 1.478,0.217 2.962,0.279 4.44,0.269 0.105,1.327 0.387,2.645 0.918,3.895 0.127,0.301 0.279,0.595 0.436,0.887 -9.383,9.241 -70.5,44.611 -91.603,56.713 -7.884,3.769 -17.574,5.286 -24.223,-4.258 m 31.283,4.273 c 18.14,-10.643 75.353,-44.523 86.042,-54.673 0.328,0.333 0.68,0.647 1.073,0.922 1.394,0.997 3.187,1.425 4.847,1.304 1.221,-0.077 2.373,-0.389 3.461,-0.811 0.271,0.734 0.609,1.413 1.039,2.086 0.004,0.007 0.009,0.013 0.012,0.018 -9.939,9.634 -57.033,40.779 -73.535,51.603 -5.817,3.591 -14.191,6.957 -22.939,-0.449 m 28.47,1.248 c 14.224,-9.627 59.145,-40.281 69.685,-50.514 0.305,0.256 0.624,0.498 0.97,0.706 1.095,0.664 2.37,1.027 3.607,1.088 0.941,0.054 1.863,-0.029 2.749,-0.203 0.238,0.284 0.48,0.522 0.737,0.769 0.119,0.106 0.245,0.203 0.369,0.305 -10.62,10.668 -54.635,44.302 -62.607,50.383 -2.379,1.032 -4.898,1.479 -7.413,1.247 -3.169,-0.294 -6.05,-1.653 -8.097,-3.781 m 24.435,0.107 c 9.758,-7.689 46.305,-36.65 55.862,-46.575 0.747,0.347 1.539,0.612 2.365,0.752 1.235,0.208 2.532,0.161 3.733,-0.172 0.763,-0.2 1.476,-0.507 2.15,-0.87 0.244,0.307 0.512,0.569 0.798,0.797 l -44.681,44.823 c -3.853,3.115 -9.634,5.685 -14.435,5.048 -2.605,-0.344 -4.5,-1.593 -5.792,-3.803 m 26.241,-2.188 40.994,-42.612 c 0.86,0.309 1.749,0.49 2.65,0.558 1.242,0.087 2.517,-0.046 3.733,-0.468 0.803,-0.286 1.558,-0.723 2.232,-1.261 0.301,0.269 0.63,0.495 0.982,0.684 l -29.707,36.55 -1.133,1.289 c -4.547,5.173 -8.62,7.789 -12.451,7.998 -2.491,0.137 -4.888,-0.768 -7.3,-2.738 m 23.951,-4.903 29.373,-37.545 c 1.013,-0.014 1.986,-0.263 2.872,-0.641 2.016,-0.86 3.568,-2.452 4.587,-4.274 0.585,0.398 1.207,0.733 1.859,1.003 l -24.328,38.378 -0.589,0.699 c -2.738,3.245 -5.342,4.953 -7.741,5.076 -1.924,0.098 -3.905,-0.793 -6.033,-2.696 m 18.107,-2.312 23.166,-38.501 c 0.527,0.043 1.061,0.046 1.597,-0.039 1.311,-0.191 2.564,-0.886 3.413,-1.861 0.538,-0.602 0.931,-1.279 1.246,-1.979 0.483,0.753 1.052,1.445 1.703,2.047 0.226,0.205 0.464,0.4 0.708,0.586 l -15.407,31.353 -1.881,3.092 c -4.211,6.923 -8.364,8.484 -14.545,5.302 m 18.701,-5.626 15.369,-32.935 c 0.2,0.066 0.397,0.14 0.605,0.185 1.347,0.313 2.894,-0.079 3.807,-1.107 0.149,-0.161 0.265,-0.339 0.39,-0.513 l -0.006,0.086 -7.744,30.126 c -2.352,5.078 -5.006,7.894 -7.486,7.938 -2.086,0.036 -3.992,-1.892 -4.682,-3.273 z m 111.177,5.056 c -0.046,0.222 -0.099,0.442 -0.115,0.674 -0.126,1.369 0.644,2.766 1.793,3.536 0.174,0.121 0.363,0.213 0.547,0.314 l -13.542,33.73 -0.541,0.161 c -1.478,0.44 -4.185,0.367 -5.588,-1.182 -1.663,-1.841 -1.421,-5.703 0.679,-10.89 z m -8.013,39.008 12.636,-33.66 c 0.302,0.051 0.605,0.092 0.909,0.116 0.883,0.063 1.775,0.007 2.652,-0.155 -0.291,0.686 -0.518,1.409 -0.612,2.185 -0.167,1.255 0.104,2.637 0.812,3.749 0.334,0.54 0.751,1.009 1.213,1.419 l -12.24,43.088 c -6.54,-2.339 -8.245,-6.434 -6.067,-14.242 z m 8.357,20.143 11.507,-45.092 c 0.62,0.266 1.262,0.472 1.925,0.606 -0.274,2.027 -0.095,4.074 0.579,6.023 0.273,0.757 0.627,1.508 1.111,2.213 l -7.421,47.648 c -2.842,-0.253 -4.846,-1.088 -6.092,-2.562 -1.514,-1.793 -2.05,-4.77 -1.609,-8.836 m 10.648,16.916 6.751,-51.151 c 0.108,0.047 0.214,0.098 0.327,0.137 0.265,0.092 0.543,0.145 0.823,0.18 0.067,0.865 0.265,1.72 0.606,2.506 0.523,1.176 1.297,2.198 2.21,3.044 0.665,0.612 1.405,1.137 2.219,1.555 l -3.095,59.047 c -3.087,-0.415 -5.385,-1.546 -6.987,-3.458 -2.128,-2.536 -3.065,-6.437 -2.854,-11.86 m 13.254,20.467 2.196,-63.365 c 0.362,0.053 0.738,0.07 1.126,0.039 0.198,0.738 0.46,1.47 0.837,2.163 0.576,1.105 1.428,2.085 2.424,2.843 0.668,0.508 1.402,0.905 2.166,1.212 -0.71,13.647 3.056,59.471 4.146,72.301 -3.072,0.121 -5.715,-0.842 -7.859,-2.9 -2.863,-2.749 -4.726,-7.401 -5.036,-12.293 M -96.118,-84 c -1.385,-13.87 -6.14,-62.674 -5.634,-76.782 0.158,0.02 0.315,0.047 0.476,0.06 0.355,0.018 0.694,0.034 1.062,0.014 0.481,0.765 1.05,1.495 1.734,2.145 0.888,0.861 2.025,1.544 3.257,1.889 0.389,0.111 0.783,0.177 1.178,0.226 -0.267,14.687 8.05,68.418 10.744,85.389 -5.74,-0.151 -10.669,-5.186 -12.817,-12.941 m 16.717,14.129 c -3.325,-19.253 -12.369,-72.954 -12.119,-86.64 0.008,-0.001 0.016,-0.001 0.024,-0.003 0.786,-0.147 1.513,-0.363 2.232,-0.667 0.436,1.082 0.996,2.136 1.774,3.08 1.047,1.295 2.585,2.311 4.265,2.647 0.469,0.1 0.938,0.143 1.405,0.155 -0.104,14.74 14.26,79.662 18.886,100.178 -11.793,-1.372 -14.881,-10.367 -16.15,-17.17 -0.061,-0.324 -0.113,-0.602 -0.16,-0.828 z m 21.114,23.276 c -4.756,-20.12 -21.37,-91.403 -21.009,-105.015 0.321,-0.084 0.641,-0.176 0.947,-0.287 1.276,-0.467 2.431,-1.162 3.471,-1.992 1.003,1.086 2.063,2.126 3.231,3.057 1.018,0.782 2.119,1.505 3.326,2.011 -0.808,13.11 23.53,96.192 29.885,117.618 -11.792,1.712 -17.291,-6.849 -19.851,-15.392 M 10.672,0.837 7.159,-1.09 c -32.745,-17.962 -60.351,-154.928 -70.744,-206.491 -0.673,-3.343 -1.283,-6.366 -1.825,-9.02 -4.024,-19.692 -8.76,-29.21 -16.35,-32.848 -11.529,-5.486 -28.255,3.152 -58.735,18.844 l -0.681,0.351 c -2.831,-5.032 -7.616,-13.994 -8.344,-17.453 -0.208,-1.721 -0.549,-6.487 0.183,-9.338 0.318,-1.236 1.332,-2.851 2.505,-4.719 1.978,-3.151 4.439,-7.071 5.481,-12.165 1.13,-5.519 -1.878,-23.511 -2.227,-25.544 l -0.23,-1.345 -0.6,-0.262 c 0.515,-3.778 1.37,-10.411 1.077,-10.864 -0.289,-0.448 -4.796,4.898 -7.441,8.105 l -0.785,-0.34 -1.155,0.811 c -0.55,0.385 -13.525,9.508 -17.984,14.292 -3.505,3.761 -5.382,9.75 -6.892,14.563 -0.527,1.686 -1.027,3.279 -1.491,4.401 -1.225,2.961 -5.491,6.056 -7.031,7 l -0.34,0.25 c -2.902,2.529 -11.549,4.582 -17.57,5.53 l -0.268,-0.937 c -9.376,-32.98 -14.566,-51.144 -26.383,-55.759 -7.843,-3.056 -18.028,-0.011 -35.155,10.51 -2.307,1.418 -4.93,3.039 -7.832,4.832 -44.745,27.649 -163.605,101.097 -199.095,89.466 l -3.809,-1.247 0.525,3.971 c 0.547,4.146 4.3,8.275 10.566,11.628 10.579,5.661 27.486,8.306 42.247,1.976 7.248,9.778 18.319,11.344 31.523,4.434 8.326,7.142 17.894,7.562 28.489,1.247 2.858,2.829 6.751,4.627 10.987,5.02 4.909,0.455 9.799,-0.945 14.02,-3.97 2.013,2.261 4.704,3.655 7.913,4.078 6.455,0.854 13.869,-2.423 18.693,-6.477 3.17,2.353 6.522,3.449 9.992,3.26 4.712,-0.258 9.399,-2.837 14.274,-7.869 2.743,2.086 5.558,3.069 8.394,2.922 3.423,-0.173 6.697,-1.921 9.963,-5.329 7.403,3.601 13.544,2.158 18.669,-4.423 1.783,1.69 4.199,2.954 6.908,2.905 4.694,-0.082 8.757,-3.811 12.075,-11.084 l 0.093,-0.202 8.253,-32.108 c 4.414,20.639 -5.804,64.281 -6.826,68.55 -16.281,28.607 -47.609,73.451 -58.089,76.347 l -3.653,1.009 2.344,2.979 c 1.582,2.009 4.463,2.985 8.333,2.826 6.802,-0.281 16.504,-4.247 22.913,-12.283 2.429,1.505 4.642,1.624 6.215,1.386 3.935,-0.597 7.711,-3.912 11.241,-9.859 4.39,0.351 7.808,-1.327 10.362,-3.545 0.587,2.879 2.042,5.451 4.318,7.534 -1.777,5.843 -1.597,11.05 0.538,14.799 1.124,1.973 2.732,3.432 4.72,4.308 -1.297,10.146 2.468,20.452 7.187,25.779 2.387,2.696 4.923,4.018 7.335,3.822 l 3.777,-0.308 -1.746,-3.365 c -4.99,-9.617 6.622,-59.966 16.977,-92.847 2.56,-3.723 28.211,-40.6 46.329,-51.456 l -17.803,27.971 -0.085,0.206 c -3.041,7.392 -2.987,12.907 0.16,16.389 1.815,2.011 4.39,2.913 6.841,3.059 -1.302,8.237 1.826,13.73 9.529,16.652 -0.254,4.714 0.707,8.298 2.918,10.917 1.833,2.171 4.475,3.554 7.873,4.13 -0.343,6.999 0.975,12.182 4.008,15.798 2.233,2.66 5.32,4.359 9.195,5.065 0.233,5.344 2.047,11.846 6.615,16.232 2.789,2.677 6.248,4.145 10.102,4.312 2.455,10.649 9.336,17.676 17.581,18.054 2.629,12.055 9.484,18.758 20.382,19.952 3.98,14.363 12.689,21.375 24.78,19.984 5.464,15.101 18.943,25.632 30.312,29.492 6.731,2.284 12.309,2.202 15.709,-0.232 z m -209.821,-218.716 c 0.087,0.552 0.436,0.951 0.855,1.228 0.419,0.291 0.977,0.414 1.506,0.529 0.551,0.098 1.118,0.141 1.689,0.165 l 0.692,0.029 -0.009,0.812 c -0.01,0.874 0.3,1.773 0.796,2.141 0.454,0.378 1.181,0.316 2.009,0.046 l 1.211,-0.394 0.227,1.401 c 0.026,0.156 0.118,0.487 0.229,0.679 0.112,0.215 0.252,0.37 0.404,0.476 0.159,0.098 0.312,0.185 0.542,0.219 0.213,0.049 0.484,0.039 0.764,0.019 l 1.283,0.817 c -0.039,-0.096 0.037,0.055 0.103,0.12 0.068,0.085 0.16,0.168 0.247,0.245 0.183,0.153 0.386,0.264 0.584,0.324 0.394,0.111 0.814,0.078 1.317,-0.138 l 1.765,0.956 c -0.05,-0.2 -0.023,-0.018 0.156,0.091 0.164,0.124 0.399,0.233 0.632,0.29 0.483,0.112 0.895,0.046 1.206,-0.158 l 1.824,0.48 c 0.02,0.017 0.054,0.04 0.125,0.067 0.165,0.061 0.431,0.084 0.688,0.047 0.524,-0.077 1.006,-0.333 1.181,-0.663 l 0.805,-1.523 0.852,1.294 c 0.306,0.464 0.887,0.853 1.344,0.921 0.231,0.036 0.447,0.005 0.675,-0.133 0.226,-0.138 0.442,-0.384 0.635,-0.67 l 0.987,-1.458 0.196,1.601 c 0.09,0.735 0.516,1.537 1.155,1.937 0.318,0.19 0.699,0.234 1.062,0.042 0.371,-0.18 0.672,-0.548 0.924,-0.938 -0.137,0.44 -0.312,0.901 -0.699,1.261 -0.384,0.362 -1.033,0.478 -1.564,0.3 -0.534,-0.168 -0.962,-0.519 -1.314,-0.913 -0.084,-0.096 -0.15,-0.21 -0.226,-0.314 -0.087,0.102 -0.157,0.21 -0.264,0.305 -0.411,0.374 -1.017,0.617 -1.603,0.625 -0.589,0.02 -1.128,-0.152 -1.593,-0.393 -0.091,-0.048 -0.17,-0.112 -0.257,-0.166 -0.127,0.13 -0.26,0.252 -0.399,0.356 -0.455,0.34 -0.964,0.55 -1.494,0.665 -0.532,0.11 -1.09,0.138 -1.701,-0.013 -0.252,-0.06 -0.536,-0.186 -0.807,-0.362 -0.209,0.085 -0.42,0.169 -0.636,0.212 -0.57,0.109 -1.133,0.082 -1.66,-0.036 -0.528,-0.121 -1.027,-0.325 -1.502,-0.654 -0.165,-0.126 -0.341,-0.277 -0.51,-0.45 -0.141,0.031 -0.276,0.075 -0.427,0.088 -0.548,0.061 -1.129,-0.005 -1.661,-0.185 -0.533,-0.18 -1.007,-0.468 -1.406,-0.817 -0.199,-0.178 -0.386,-0.363 -0.556,-0.581 -0.008,-0.012 -0.017,-0.024 -0.026,-0.035 -0.235,-0.013 -0.475,-0.038 -0.722,-0.095 -0.534,-0.097 -1.086,-0.379 -1.526,-0.753 -0.448,-0.378 -0.775,-0.859 -0.984,-1.343 -0.049,-0.12 -0.092,-0.233 -0.13,-0.347 -0.252,0.019 -0.504,0.04 -0.774,0.011 -0.709,-0.071 -1.477,-0.404 -2.003,-0.948 -0.533,-0.538 -0.826,-1.2 -0.969,-1.833 -0.092,-0.406 -0.105,-0.808 -0.088,-1.206 -0.382,-0.089 -0.763,-0.19 -1.14,-0.321 -0.609,-0.263 -1.231,-0.531 -1.737,-1.04 -0.517,-0.479 -0.831,-1.217 -0.775,-1.887 0.019,-0.678 0.329,-1.242 0.583,-1.786 -0.107,0.603 -0.202,1.212 -0.091,1.754 m -0.005,-11.242 c 0.091,0.639 0.485,1.117 0.97,1.447 0.484,0.347 1.123,0.498 1.732,0.64 0.633,0.119 1.283,0.175 1.939,0.209 l 0.701,0.035 -0.019,0.806 c -0.023,1.019 0.317,2.079 0.923,2.551 0.565,0.487 1.463,0.414 2.429,0.101 l 1.236,-0.399 0.201,1.407 c 0.03,0.21 0.138,0.594 0.27,0.834 0.135,0.263 0.307,0.465 0.502,0.603 0.201,0.131 0.404,0.245 0.685,0.287 0.267,0.062 0.592,0.05 0.926,0.027 l 1.282,0.817 c -0.029,-0.071 0.063,0.103 0.148,0.188 0.084,0.107 0.193,0.209 0.301,0.303 0.224,0.188 0.474,0.327 0.724,0.403 0.251,0.08 0.505,0.091 0.774,0.071 0.269,-0.007 0.561,-0.124 0.856,-0.235 l 1.765,0.957 c -0.04,-0.147 0.028,0.078 0.249,0.219 0.209,0.156 0.497,0.286 0.783,0.355 0.589,0.138 1.12,0.055 1.516,-0.219 l 1.826,0.481 c -0.013,-0.008 0.014,0.085 0.249,0.168 0.221,0.077 0.545,0.098 0.856,0.051 0.634,-0.097 1.226,-0.418 1.443,-0.853 l 0.769,-1.528 0.889,1.298 c 0.377,0.552 1.063,1.009 1.635,1.081 0.289,0.039 0.563,-0.011 0.835,-0.185 0.272,-0.174 0.52,-0.468 0.74,-0.802 l 0.957,-1.455 0.227,1.597 c 0.121,0.858 0.625,1.778 1.384,2.234 0.376,0.213 0.83,0.253 1.246,0.023 0.424,-0.218 0.758,-0.645 1.036,-1.091 -0.163,0.498 -0.371,1.017 -0.81,1.414 -0.438,0.401 -1.16,0.522 -1.75,0.319 -0.593,-0.195 -1.07,-0.591 -1.46,-1.037 -0.117,-0.133 -0.208,-0.289 -0.309,-0.436 -0.11,0.134 -0.229,0.265 -0.368,0.387 -0.456,0.409 -1.12,0.672 -1.763,0.677 -0.646,0.019 -1.241,-0.171 -1.756,-0.441 -0.137,-0.074 -0.26,-0.168 -0.388,-0.253 -0.159,0.169 -0.326,0.327 -0.504,0.459 -0.502,0.372 -1.065,0.603 -1.65,0.728 -0.587,0.121 -1.203,0.149 -1.867,-0.018 -0.301,-0.071 -0.639,-0.218 -0.952,-0.438 -0.25,0.107 -0.506,0.203 -0.767,0.254 -0.624,0.119 -1.242,0.089 -1.823,-0.042 -0.582,-0.133 -1.132,-0.358 -1.651,-0.72 -0.204,-0.156 -0.421,-0.339 -0.624,-0.562 -0.184,0.045 -0.364,0.099 -0.562,0.115 -0.601,0.067 -1.237,-0.004 -1.82,-0.201 -0.584,-0.197 -1.106,-0.512 -1.546,-0.896 -0.219,-0.197 -0.425,-0.402 -0.61,-0.64 -0.025,-0.032 -0.047,-0.063 -0.071,-0.095 -0.287,-0.009 -0.58,-0.041 -0.882,-0.111 -0.585,-0.106 -1.187,-0.414 -1.67,-0.821 -0.49,-0.412 -0.85,-0.938 -1.082,-1.47 -0.067,-0.164 -0.124,-0.322 -0.174,-0.478 -0.321,0.032 -0.646,0.052 -0.989,0.016 -0.783,-0.076 -1.624,-0.437 -2.203,-1.033 -0.587,-0.589 -0.916,-1.318 -1.079,-2.023 -0.11,-0.477 -0.123,-0.95 -0.1,-1.418 -0.467,-0.103 -0.933,-0.217 -1.394,-0.374 -0.688,-0.291 -1.393,-0.585 -1.964,-1.15 -0.582,-0.532 -0.943,-1.349 -0.888,-2.105 0.011,-0.764 0.35,-1.411 0.63,-2.034 -0.133,0.684 -0.255,1.373 -0.139,2.001 m 42.537,6.379 c 0.548,-0.474 0.824,-1.111 1.042,-1.728 -0.333,0.566 -0.736,1.111 -1.268,1.405 -0.522,0.31 -1.123,0.281 -1.62,0.014 -1,-0.567 -1.664,-1.729 -1.849,-2.84 l -0.267,-1.589 -0.917,1.448 c -0.276,0.436 -0.592,0.827 -0.955,1.074 -0.363,0.248 -0.754,0.335 -1.16,0.293 -0.808,-0.082 -1.707,-0.677 -2.231,-1.406 l -0.93,-1.296 -0.727,1.525 c -0.311,0.652 -1.123,1.102 -1.978,1.241 -0.423,0.069 -0.866,0.048 -1.197,-0.061 -0.345,-0.111 -0.476,-0.273 -0.508,-0.376 l -0.447,-1.482 -1.378,1.003 c -0.572,0.416 -1.346,0.535 -2.151,0.345 -0.395,-0.095 -0.786,-0.27 -1.086,-0.491 -0.312,-0.204 -0.461,-0.517 -0.442,-0.482 l -1.766,-0.957 c -0.396,0.155 -0.79,0.311 -1.169,0.327 -0.379,0.028 -0.744,0.007 -1.1,-0.106 -0.354,-0.111 -0.701,-0.306 -1.007,-0.565 -0.15,-0.133 -0.299,-0.272 -0.417,-0.422 -0.119,-0.129 -0.242,-0.347 -0.232,-0.328 l -1.283,-0.817 c -0.443,0.031 -0.879,0.047 -1.253,-0.042 -0.391,-0.06 -0.694,-0.227 -0.981,-0.425 -0.28,-0.207 -0.518,-0.499 -0.7,-0.862 -0.176,-0.341 -0.314,-0.833 -0.353,-1.153 l -0.173,-1.412 -1.266,0.407 c -1.245,0.399 -2.49,0.492 -3.282,-0.216 -0.826,-0.684 -1.231,-2.073 -1.179,-3.386 l 0.032,-0.781 -0.714,-0.06 -1.237,-0.104 c -0.409,-0.047 -0.803,-0.136 -1.211,-0.199 -0.771,-0.195 -1.579,-0.401 -2.194,-0.862 -0.619,-0.438 -1.107,-1.079 -1.202,-1.891 -0.13,-0.801 0.05,-1.659 0.234,-2.505 -0.331,0.787 -0.727,1.6 -0.726,2.538 -0.05,0.929 0.406,1.909 1.122,2.548 0.702,0.68 1.574,1.031 2.426,1.375 0.433,0.123 0.871,0.264 1.31,0.364 l 0.598,0.115 c -0.034,0.614 -0.02,1.232 0.129,1.854 0.203,0.849 0.602,1.717 1.301,2.41 0.688,0.699 1.678,1.12 2.612,1.205 0.493,0.049 0.967,0.024 1.426,-0.039 0.073,0.251 0.158,0.499 0.266,0.758 0.278,0.631 0.704,1.249 1.28,1.73 0.569,0.475 1.27,0.835 1.965,0.959 0.408,0.096 0.802,0.124 1.192,0.129 0.055,0.078 0.113,0.153 0.174,0.232 0.219,0.283 0.465,0.525 0.725,0.758 0.524,0.456 1.141,0.828 1.829,1.059 0.688,0.231 1.435,0.312 2.146,0.236 0.293,-0.025 0.566,-0.098 0.836,-0.173 0.265,0.33 0.571,0.578 0.856,0.792 0.61,0.426 1.266,0.696 1.956,0.856 0.689,0.155 1.421,0.19 2.154,0.051 0.361,-0.069 0.717,-0.188 1.056,-0.347 0.391,0.305 0.829,0.508 1.224,0.603 0.775,0.198 1.509,0.168 2.208,0.026 0.697,-0.146 1.369,-0.42 1.965,-0.857 0.26,-0.188 0.503,-0.417 0.722,-0.671 0.211,0.154 0.422,0.306 0.654,0.432 0.615,0.328 1.324,0.558 2.088,0.543 0.757,-0.003 1.541,-0.304 2.086,-0.787 0.216,-0.185 0.394,-0.39 0.556,-0.602 0.153,0.256 0.314,0.508 0.503,0.735 0.469,0.549 1.045,1.038 1.76,1.286 0.711,0.255 1.579,0.123 2.123,-0.356"
             style="fill:#000000;fill-opacity:1;fill-rule:nonzero;stroke:none"
             id="path1085" />
        </g>
      </g>
    </g>
  </g>
</svg>
