<?xml version="1.0" encoding="UTF-8" standalone="no"?>
<!-- Created with Inkscape (http://www.inkscape.org/) -->

<svg
   version="1.1"
   id="svg3719"
   width="784"
   height="784"
   viewBox="0 0 784 784"
   sodipodi:docname="tiger-monochrome-clipart-pdv.svg"
   inkscape:version="1.2 (dc2aedaf03, 2022-05-15)"
   xmlns:inkscape="http://www.inkscape.org/namespaces/inkscape"
   xmlns:sodipodi="http://sodipodi.sourceforge.net/DTD/sodipodi-0.dtd"
   xmlns="http://www.w3.org/2000/svg"
   xmlns:svg="http://www.w3.org/2000/svg">
  <defs
     id="defs3723">
    <clipPath
       clipPathUnits="userSpaceOnUse"
       id="clipPath3735">
      <path
         d="m 534.756,54.965 0.138,0.002 -0.008,0.33 c -0.042,-0.113 -0.088,-0.221 -0.13,-0.332"
         id="path3733" />
    </clipPath>
    <clipPath
       clipPathUnits="userSpaceOnUse"
       id="clipPath3743">
      <path
         d="m 535.084,55.65 h 0.416 v -0.416 h -0.416 z"
         id="path3741" />
    </clipPath>
    <clipPath
       clipPathUnits="userSpaceOnUse"
       id="clipPath3753">
      <path
         d="m 535.08444,55.64962 h 0.13908 v -0.3321 h -0.13908 z"
         id="path3751" />
    </clipPath>
    <linearGradient
       x1="0"
       y1="0"
       x2="1"
       y2="0"
       gradientUnits="userSpaceOnUse"
       gradientTransform="matrix(0.1388,0,0,-0.1388,535.08401,55.483417)"
       spreadMethod="pad"
       id="linearGradient3759">
      <stop
         style="stop-opacity:1;stop-color:#ffffff"
         offset="0"
         id="stop3755" />
      <stop
         style="stop-opacity:1;stop-color:#231f20"
         offset="1"
         id="stop3757" />
    </linearGradient>
    <clipPath
       clipPathUnits="userSpaceOnUse"
       id="clipPath3769">
      <path
         d="M 0,588 H 588 V 0 H 0 Z"
         id="path3767" />
    </clipPath>
  </defs>
  <sodipodi:namedview
     id="namedview3721"
     pagecolor="#ffffff"
     bordercolor="#000000"
     borderopacity="0.25"
     inkscape:showpageshadow="2"
     inkscape:pageopacity="0.0"
     inkscape:pagecheckerboard="0"
     inkscape:deskcolor="#d1d1d1"
     showgrid="false"
     inkscape:zoom="1.067602"
     inkscape:cx="392.93668"
     inkscape:cy="392.46834"
     inkscape:window-width="1920"
     inkscape:window-height="1017"
     inkscape:window-x="-8"
     inkscape:window-y="-8"
     inkscape:window-maximized="1"
     inkscape:current-layer="g3727">
    <inkscape:page
       x="0"
       y="0"
       id="page3725"
       width="784"
       height="784" />
  </sodipodi:namedview>
  <g
     id="g3727"
     inkscape:groupmode="layer"
     inkscape:label="Page 1"
     transform="matrix(1.3333333,0,0,-1.3333333,0,784)">
    <g
       id="g3729">
      <g
         id="g3731"
         clip-path="url(#clipPath3735)">
        <g
           id="g3737">
          <g
             id="g3739"
             clip-path="url(#clipPath3743)">
            <g
               id="g3745">
              <g
                 id="g3747">
                <g
                   id="g3749"
                   clip-path="url(#clipPath3753)">
                  <path
                     d="m 535.084,55.65 h 0.416 v -0.416 h -0.416 z"
                     style="fill:url(#linearGradient3759);stroke:none"
                     id="path3761" />
                </g>
              </g>
            </g>
          </g>
        </g>
      </g>
    </g>
    <g
       id="g3763">
      <g
         id="g3765"
         clip-path="url(#clipPath3769)">
        <g
           id="g3771"
           transform="translate(442.8604,405.8228)">
          <path
             d="m 0,0 -31.421,66.828 c 0,0 22.103,14.29 24.159,20.414 -6.108,-20.006 -9.17,-27.638 -9.17,-27.638 l 9.66,-22.801 C 2.164,52.501 4.008,97.039 2.023,112.15 0.958,110.618 -0.225,108.814 -1.283,107.198 -8.622,96 -18.672,80.663 -31.571,79.092 c -5.62,-0.684 -11.006,1.327 -16.013,5.974 -0.937,0.87 -5.783,4.708 -11.393,9.152 -16.268,12.888 -43.498,34.456 -50.452,42.637 -6.118,7.194 -54.291,-3.57 -93.332,-24.028 l -2.54,-1.331 -2.114,1.937 c -4.65,4.264 -7.604,9.746 -10.731,15.549 -6.069,11.267 -12.34,22.91 -32.533,26.704 -30.154,-12.741 -42.563,-70.972 -36.163,-104.698 l 0.402,-2.122 -1.526,-1.527 c -5.855,-5.854 -14.542,-20.754 -22.351,-37.752 1.963,2.115 4.327,3.969 6.918,5.529 2.661,1.526 5.514,2.779 8.457,3.814 2.946,1.006 5.975,1.785 9.053,2.395 1.542,0.307 3.095,0.563 4.667,0.767 1.12,0.142 2.168,0.271 3.326,0.356 2.009,3.077 4.175,6.054 6.675,8.726 -4.3,-8.897 -7.171,-18.214 -9.837,-27.528 -2.589,-9.334 -4.675,-18.756 -6.237,-28.21 -3.132,-18.894 -4.14,-37.998 -1.998,-56.643 2.093,-18.652 7.83,-36.672 17.149,-53.02 4.666,-8.183 10.419,-15.763 16.707,-23.024 6.265,-7.336 13.586,-13.73 20.979,-20.366 -0.749,0.357 -1.49,0.732 -2.232,1.104 -1.54,-0.501 -5.417,-2.617 -6.652,-2.911 -1.376,-0.323 -2.752,-0.681 -4.13,-1.062 -2.757,-0.75 -5.498,-1.613 -8.228,-2.531 -5.45,-1.864 -10.803,-4.08 -16.019,-6.625 -5.25,-2.503 -10.229,-5.532 -15.053,-8.858 -4.198,-2.88 -8.046,-6.229 -11.726,-9.835 2.261,-2.221 4.602,-4.374 7.057,-6.43 27.686,28.057 72.253,39.238 88.186,37.036 4.402,-0.61 7.294,-2.235 8.594,-4.834 2.53,-5.062 -0.562,-14.919 -5.091,-24.795 1.295,1.096 2.599,2.18 3.923,3.239 4.211,3.32 8.545,6.476 13.074,9.315 4.563,2.788 9.3,5.279 14.245,7.179 -4.666,-2.523 -8.974,-5.558 -13.059,-8.841 -4.054,-3.335 -7.86,-6.94 -11.516,-10.677 -3.634,-3.765 -7.089,-7.693 -10.404,-11.724 -2.662,-3.255 -5.279,-6.63 -7.701,-10.007 1.069,-1.632 2.222,-3.29 3.452,-4.965 4.358,5.755 18.986,23.14 44.552,35.127 -0.968,2.83 -1.696,5.644 -2.126,8.417 6.803,0.323 46.766,8.873 62.98,12.389 -0.014,0.007 -0.028,0.01 -0.042,0.017 5.802,4.204 15.335,20.208 15.335,20.208 l -24.904,44.91 c 0,0 14.382,-12.163 31.121,-20.328 10.891,-5.314 24.088,-6.533 39.602,0.816 -5.307,-11.841 -32.662,-22.863 -32.662,-22.863 0,0 -10.831,-17.122 -20.621,-22.114 l 31.665,-26.918 c 0,0 -1.671,-2.725 -4.458,-6.924 l 2.843,-1.534 c 1.661,-0.95 3.276,-1.994 4.906,-2.984 1.597,-1.057 3.155,-2.181 4.709,-3.29 1.474,-1.239 3.042,-2.326 4.415,-3.679 2.871,-2.527 5.427,-5.44 7.519,-8.632 0.325,-0.49 0.627,-0.997 0.918,-1.509 0.306,0.55 0.612,1.091 0.921,1.646 l -0.167,-0.005 c 0.202,2.436 0.37,5.014 -0.207,7.535 -0.483,2.533 -1.337,5.107 -2.681,7.512 -1.305,2.424 -2.964,4.749 -4.907,6.879 -0.021,0.021 -0.041,0.042 -0.062,0.063 -0.193,-0.11 -0.381,-0.227 -0.575,-0.335 0.155,0.15 0.307,0.304 0.46,0.455 -1.908,2.049 -4.036,3.969 -6.421,5.585 2.825,-0.936 5.548,-2.274 8.15,-3.874 4.76,4.774 9.193,9.71 13.079,15.028 l 3.287,4.619 2.965,4.817 c 1.01,1.582 1.818,3.295 2.744,4.921 0.94,1.622 1.723,3.33 2.525,5.023 6.506,13.509 10.403,28.11 12.727,42.96 2.334,14.872 2.949,30.07 2.522,45.293 -0.24,7.612 -0.65,15.257 -1.482,22.878 -0.792,7.634 -1.755,15.264 -3.566,22.824 0.003,-0.007 0.007,-0.013 0.011,-0.02 l -0.434,1.063 -1.09,1.629 c 2.484,-0.228 7.17,5.868 9.454,5.442 2.247,-0.436 4.48,-0.95 6.693,-1.608 2.205,-0.662 4.407,-1.441 6.485,-2.576 1.033,-0.572 2.041,-1.238 2.889,-2.092 0.272,-0.271 0.522,-0.572 0.741,-0.89 C 8.509,-24.607 4.453,-11.833 0,0 m 13.625,-43.902 c -0.358,1.418 -0.724,2.83 -1.093,4.235 -0.58,0.63 -1.317,1.003 -2.071,1.219 -0.931,0.261 -1.909,0.33 -2.891,0.325 -1.848,-0.022 -3.72,-0.324 -5.577,-0.725 1.224,-0.36 2.439,-0.75 3.646,-1.18 2.397,-0.857 4.779,-1.864 6.997,-3.214 0.336,-0.209 0.664,-0.431 0.989,-0.66 m 8.664,-170.264 c -2.544,2.075 -5.385,3.77 -8.24,5.339 -4.66,2.507 -9.552,4.571 -14.518,6.414 -4.964,1.851 -10.024,3.456 -15.116,4.921 -3.491,0.993 -7.057,1.934 -10.572,2.772 3.216,-1.53 6.348,-3.112 9.495,-4.769 4.902,-2.599 9.72,-5.357 14.398,-8.344 4.674,-2.986 9.223,-6.199 13.44,-9.816 2.702,-2.37 5.349,-4.909 7.549,-7.745 1.318,3.484 2.509,7.227 3.564,11.228 m -43.144,31.11 c -0.16,-0.229 -0.315,-0.462 -0.476,-0.689 3.178,-1.497 6.28,-3.04 9.395,-4.653 4.88,-2.554 9.686,-5.236 14.358,-8.156 4.67,-2.912 9.228,-6.037 13.465,-9.571 2.385,-2.022 4.737,-4.185 6.775,-6.572 0.995,3.95 1.87,8.128 2.612,12.541 -2.203,1.654 -4.604,3.043 -7.02,4.324 -4.443,2.308 -9.107,4.171 -13.838,5.829 -4.728,1.658 -9.548,3.08 -14.394,4.363 -3.592,0.939 -7.274,1.827 -10.877,2.584 m 7.523,12.483 c -0.354,-0.691 -0.72,-1.376 -1.09,-2.059 2.681,-1.243 5.311,-2.525 7.953,-3.859 4.655,-2.377 9.241,-4.883 13.698,-7.616 4.454,-2.73 8.804,-5.663 12.837,-9.008 1.913,-1.608 3.805,-3.313 5.508,-5.168 0.681,4.309 1.25,8.813 1.693,13.523 -1.88,1.297 -3.891,2.403 -5.91,3.431 -4.221,2.107 -8.66,3.773 -13.153,5.24 -4.493,1.467 -9.07,2.704 -13.668,3.806 -2.598,0.613 -5.243,1.189 -7.868,1.71 m 5.951,13.819 c -0.388,-1.088 -0.787,-2.172 -1.205,-3.249 2.174,-0.993 4.315,-2.014 6.473,-3.073 4.432,-2.2 8.797,-4.525 13.042,-7.076 4.237,-2.549 8.382,-5.29 12.214,-8.442 1.482,-1.235 2.949,-2.535 4.314,-3.925 0.386,4.551 0.662,9.274 0.826,14.169 -1.563,0.983 -3.204,1.847 -4.851,2.647 -4.003,1.906 -8.212,3.37 -12.467,4.649 -4.257,1.275 -8.588,2.328 -12.937,3.249 -1.786,0.371 -3.599,0.722 -5.409,1.051 m 21.742,109.882 c -0.916,0.289 -1.882,0.443 -2.822,0.553 -2.22,0.195 -4.477,0.069 -6.729,-0.188 -1.564,-0.182 -3.123,-0.449 -4.676,-0.746 0.289,-0.087 0.563,-0.169 0.803,-0.238 2.678,-0.784 5.328,-1.675 7.926,-2.72 2.463,-1.003 4.892,-2.155 7.16,-3.611 -0.538,2.331 -1.094,4.647 -1.662,6.95 m 2.48,-10.576 c -0.57,0.155 -1.146,0.28 -1.716,0.391 -2.451,0.422 -4.971,0.496 -7.49,0.431 -2.523,-0.078 -5.049,-0.301 -7.563,-0.625 -0.732,-0.096 -1.476,-0.203 -2.22,-0.316 1.748,-0.489 3.446,-1.014 5.176,-1.581 2.894,-0.959 5.751,-2.033 8.548,-3.27 2.456,-1.103 4.87,-2.34 7.143,-3.831 -0.602,2.95 -1.229,5.884 -1.878,8.801 m 2.663,-12.711 c -0.415,0.124 -0.832,0.242 -1.248,0.347 -2.678,0.648 -5.453,0.919 -8.231,1.048 -2.785,0.114 -5.581,0.07 -8.372,-0.085 -1.479,-0.085 -2.999,-0.198 -4.485,-0.344 0.054,-0.263 0.106,-0.527 0.158,-0.79 2.484,-0.731 4.819,-1.527 7.215,-2.393 3.11,-1.137 6.179,-2.391 9.175,-3.822 2.66,-1.282 5.269,-2.705 7.717,-4.396 -0.608,3.491 -1.251,6.971 -1.929,10.435 m 2.595,-14.377 c -0.413,0.144 -0.827,0.281 -1.24,0.408 -2.902,0.863 -5.925,1.336 -8.959,1.657 -3.038,0.308 -6.101,0.444 -9.162,0.464 -1.131,0.004 -2.281,-0.008 -3.429,-0.033 0.087,-0.677 0.194,-1.353 0.273,-2.033 0.023,-0.195 0.042,-0.391 0.064,-0.588 1.947,-0.671 3.844,-1.376 5.767,-2.126 3.329,-1.316 6.609,-2.748 9.809,-4.367 3.01,-1.537 5.961,-3.23 8.702,-5.247 -0.56,3.962 -1.172,7.919 -1.825,11.865 m 5.631,-49.455 c -0.969,0.497 -1.959,0.953 -2.953,1.379 -3.565,1.494 -7.307,2.566 -11.082,3.462 -3.777,0.891 -7.611,1.573 -11.454,2.132 -0.87,0.124 -1.75,0.241 -2.63,0.353 -0.191,-1.522 -0.398,-3.043 -0.633,-4.561 1.525,-0.657 3.04,-1.328 4.564,-2.024 3.988,-1.849 7.917,-3.816 11.736,-5.998 3.814,-2.182 7.547,-4.542 10.987,-7.31 0.704,-0.571 1.401,-1.167 2.085,-1.779 -0.117,4.664 -0.325,9.451 -0.62,14.346 m -1.358,17.154 c -0.721,0.328 -1.45,0.636 -2.181,0.924 -3.345,1.287 -6.851,2.16 -10.381,2.864 -3.535,0.697 -7.116,1.196 -10.702,1.575 -0.764,0.078 -1.538,0.15 -2.311,0.218 -0.045,-1.499 -0.111,-2.999 -0.197,-4.498 1.463,-0.602 2.918,-1.215 4.38,-1.855 3.768,-1.672 7.479,-3.46 11.089,-5.455 3.605,-1.998 7.134,-4.17 10.383,-6.743 0.357,-0.285 0.711,-0.577 1.065,-0.874 -0.065,0.939 -0.122,1.872 -0.192,2.82 -0.271,3.661 -0.591,7.338 -0.953,11.024 m -1.927,16.613 c -0.526,0.211 -1.054,0.413 -1.584,0.599 -3.125,1.078 -6.391,1.751 -9.673,2.263 -3.29,0.504 -6.614,0.82 -9.939,1.02 -0.871,0.049 -1.753,0.089 -2.636,0.125 0.07,-1.284 0.121,-2.571 0.163,-3.858 1.611,-0.615 3.199,-1.251 4.806,-1.919 3.547,-1.493 7.042,-3.103 10.446,-4.911 3.397,-1.814 6.725,-3.795 9.785,-6.175 0.064,-0.048 0.126,-0.101 0.189,-0.15 -0.459,4.33 -0.979,8.668 -1.557,13.006 m -28.54,-45.873 c 1.773,-0.791 3.53,-1.599 5.296,-2.438 4.21,-2.024 8.356,-4.171 12.387,-6.536 4.025,-2.367 7.963,-4.916 11.598,-7.877 1.079,-0.887 2.147,-1.822 3.172,-2.8 0.117,4.674 0.132,9.496 0.047,14.455 -1.255,0.718 -2.555,1.359 -3.857,1.957 -3.784,1.701 -7.761,2.969 -11.777,4.057 -4.017,1.083 -8.102,1.949 -12.199,2.691 -1.209,0.213 -2.433,0.416 -3.66,0.609 -0.315,-1.376 -0.647,-2.75 -1.007,-4.118 m 22.391,-80.434 c -2.737,2.435 -5.855,4.406 -9.001,6.209 -4.654,2.596 -9.543,4.747 -14.518,6.664 -4.974,1.918 -10.045,3.595 -15.158,5.104 -4.681,1.373 -14.943,3.678 -20.454,4.874 -1.927,-1.439 -3.905,-2.795 -5.941,-4.053 2.339,-1.521 4.562,-3.302 6.585,-5.382 1.987,-1.994 3.683,-4.349 5.098,-6.926 l 0.241,0.458 0.884,0.576 c 0.431,0.285 4.411,2.715 10.991,1.217 9.702,-2.21 19.892,-11.483 30.331,-27.587 4.276,4.837 7.931,11.174 10.942,18.846 m -60.844,-7.202 c -0.426,0.616 -0.871,1.22 -1.348,1.795 -2.343,2.839 -5.067,5.339 -8.076,7.45 -1.432,1.139 -3.069,2.025 -4.582,3.043 -1.606,0.898 -3.201,1.803 -4.83,2.644 -1.671,0.777 -3.308,1.6 -4.99,2.334 l -3.564,1.448 c -1.134,-1.654 -2.373,-3.435 -3.701,-5.291 l 2.081,-1.494 c 1.552,-1.196 3.057,-2.458 4.579,-3.68 1.453,-1.321 2.914,-2.625 4.307,-3.996 1.337,-1.442 2.75,-2.788 3.953,-4.347 2.532,-2.98 4.731,-6.268 6.372,-9.809 0.433,-0.872 0.745,-1.805 1.12,-2.697 0.16,-0.51 0.326,-1.012 0.483,-1.52 2.714,4.51 5.448,9.217 8.196,14.12 m -8.684,-14.933 c -0.264,0.668 -0.56,1.325 -0.842,1.978 -0.458,0.829 -0.848,1.686 -1.356,2.48 -1.94,3.23 -4.368,6.136 -7.089,8.72 -1.293,1.354 -2.797,2.505 -4.203,3.733 -1.469,1.164 -2.999,2.259 -4.506,3.363 -1.585,1.015 -3.138,2.061 -4.735,3.04 l -2.363,1.339 c -1.313,-1.776 -2.685,-3.593 -4.105,-5.415 l 1.723,-1.596 c 1.433,-1.446 2.823,-2.933 4.226,-4.392 2.65,-3.09 5.241,-6.227 7.361,-9.706 2.175,-3.421 4.019,-7.074 5.236,-10.936 0.296,-0.966 0.546,-1.946 0.803,-2.919 0.169,-0.997 0.434,-1.969 0.516,-2.977 0.054,-0.422 0.096,-0.848 0.131,-1.276 3.039,4.588 6.109,9.449 9.203,14.564 m -34.468,48.808 c 0,0 0.63,-22.147 1.224,-22.963 0.595,-0.817 13.252,22.209 13.958,23.297 0.706,1.089 -13.627,4.838 -15.182,-0.334 m 24.877,-63.953 c -0.098,0.588 -0.21,1.173 -0.347,1.751 -0.178,0.966 -0.537,1.893 -0.797,2.835 -0.347,0.92 -0.683,1.839 -1.064,2.738 -1.554,3.597 -3.683,6.907 -6.097,9.96 -2.354,3.103 -5.148,5.849 -7.962,8.522 l -4.459,3.77 -1.691,1.273 c -1.448,-1.782 -2.929,-3.543 -4.43,-5.255 l 1.753,-2.062 c 1.298,-1.699 2.583,-3.4 3.841,-5.117 2.373,-3.549 4.676,-7.143 6.442,-11.032 1.813,-3.845 3.307,-7.861 4.132,-12.026 0.374,-2.088 0.69,-4.181 0.727,-6.295 0.035,-1.115 0.012,-2.237 -0.087,-3.348 3.301,4.419 6.651,9.191 10.039,14.286 m -20.184,-23.7 c -0.063,-1.245 -0.193,-2.49 -0.406,-3.719 3.359,3.859 6.78,8.111 10.255,12.743 0.014,1.237 -0.069,2.473 -0.228,3.692 -0.236,2.056 -0.747,4.065 -1.303,6.042 -1.193,3.947 -3.01,7.664 -5.11,11.175 -2.046,3.549 -4.598,6.781 -7.183,9.936 l -4.146,4.522 -1.588,1.537 c -1.554,-1.66 -3.116,-3.241 -4.674,-4.708 l 2.202,-3.254 c 1.154,-1.946 2.33,-3.87 3.435,-5.831 2.087,-4.004 4.093,-8.051 5.511,-12.337 1.471,-4.25 2.595,-8.633 3.056,-13.097 0.191,-2.234 0.326,-4.47 0.179,-6.701 m -0.711,-4.062 c 0.13,1.353 0.155,2.714 0.1,4.067 -0.06,2.195 -0.395,4.367 -0.779,6.512 -0.848,4.291 -2.329,8.419 -4.121,12.373 -1.737,3.985 -4.034,7.701 -6.377,11.339 -1.236,1.783 -2.537,3.527 -3.803,5.278 l -2.162,2.634 c -1.639,-1.357 -3.257,-2.555 -4.835,-3.547 l 3.177,-5.89 c 1.007,-2.184 2.066,-4.334 3.017,-6.534 1.795,-4.451 3.5,-8.94 4.578,-13.617 1.136,-4.647 1.907,-9.39 2.017,-14.16 0.02,-2.385 -0.024,-4.767 -0.342,-7.123 -0.064,-0.513 -0.14,-1.027 -0.221,-1.538 3.184,3.011 6.437,6.417 9.751,10.206 m -18.987,-10.769 c -0.281,-2.741 -0.703,-5.533 -1.427,-8.224 3.288,2.285 6.672,5.06 10.143,8.302 0.059,0.69 0.105,1.383 0.131,2.074 0.112,2.336 -0.05,4.673 -0.269,6.989 -0.511,4.637 -1.663,9.169 -3.146,13.555 -1.428,4.414 -3.457,8.608 -5.546,12.726 -1.039,1.923 -2.166,3.799 -3.248,5.69 0.417,-2.118 0.815,-4.24 1.182,-6.378 0.961,-5.732 1.735,-11.496 2.17,-17.297 0.426,-5.795 0.579,-11.636 0.01,-17.437 m -2.63,-9.04 c 0.535,3.004 0.635,6.098 0.59,9.121 -0.117,5.645 -0.936,11.263 -2.016,16.811 -0.66,3.367 -1.451,6.71 -2.318,10.033 -0.391,-2.494 -0.796,-4.986 -1.232,-7.472 -1.246,-7.037 -2.668,-14.051 -4.502,-20.967 -0.913,-3.456 -1.958,-6.884 -3.199,-10.238 -0.31,-0.825 -0.633,-1.649 -0.971,-2.465 0.441,-0.323 0.835,-0.611 1.172,-0.857 3.965,1.122 8.135,3.155 12.476,6.034 m -22.936,1.759 c 3.601,-2.736 6.558,-4.932 8.63,-6.455 0.231,0.761 0.449,1.527 0.657,2.294 0.901,3.413 1.605,6.875 2.176,10.361 1.15,6.97 1.886,14.005 2.447,21.048 0.221,2.843 0.405,5.687 0.569,8.533 -1.181,-3.516 -2.383,-7.024 -3.635,-10.52 -1.905,-5.225 -3.891,-10.424 -6.084,-15.537 -1.14,-2.543 -2.272,-5.081 -3.574,-7.548 -0.376,-0.734 -0.775,-1.458 -1.186,-2.176 m -13.113,10.188 c 4.65,-3.693 8.897,-6.98 12.525,-9.741 0.296,0.71 0.578,1.423 0.842,2.146 0.975,2.571 1.779,5.202 2.586,7.826 1.532,5.287 2.85,10.629 4.087,15.992 1.228,5.472 2.372,10.976 3.436,16.49 -2.726,-3.937 -5.461,-7.867 -8.218,-11.786 -3.138,-4.445 -6.3,-8.871 -9.507,-13.267 -1.894,-2.568 -3.798,-5.135 -5.751,-7.66 m -5.783,4.64 c 1.748,-1.417 3.457,-2.789 5.118,-4.111 1.605,2.722 3.154,5.474 4.696,8.233 2.625,4.744 5.2,9.518 7.749,14.304 2.893,5.451 5.752,10.922 8.592,16.402 -18.429,-11.291 -24.449,-28.268 -26.155,-34.828 m -11.875,9.835 c 2.159,-1.83 4.292,-3.613 6.389,-5.345 2.949,9.242 11.004,26.704 31.483,37.767 -1.996,1.261 -4.179,2.83 -6.466,4.634 -22.801,-12.263 -30.052,-32.583 -31.406,-37.056 m -12.514,10.913 c 2.385,-2.143 4.777,-4.252 7.156,-6.318 2.824,7.776 11.107,25.168 31.419,36.956 -1.848,1.652 -3.729,3.436 -5.611,5.321 -23.592,-11.694 -31.267,-30.833 -32.964,-35.959 m -11.497,10.671 c 2.267,-2.181 4.57,-4.345 6.893,-6.485 2.673,6.353 11.701,24.142 33.024,36.53 -1.627,1.784 -3.233,3.632 -4.801,5.541 -21.133,-11.705 -32.04,-29.8 -35.116,-35.586 m -4.759,4.663 c 2.509,5.06 12.797,23.327 35.778,36.167 -1.43,1.928 -2.801,3.898 -4.102,5.895 -22.02,-11.542 -34.632,-29.488 -38.29,-35.269 2.138,-2.267 4.348,-4.535 6.614,-6.793 m 38.523,64.953 c 0,0 6.968,-24.434 7.561,-25.251 0.595,-0.816 6.916,24.495 7.622,25.585 0.705,1.089 -13.627,4.837 -15.183,-0.334 m 14.037,-40.913 -0.066,-0.592 c 1.02,-0.723 7.596,-1.964 8.299,0.652 0,0 -0.718,12.308 -1.063,12.751 -0.317,0.408 -5.98,-10.579 -7.17,-12.811 m 44.694,39.614 -42.188,6.348 1.634,-13.154 40.554,-3.196 z m -11.223,-45.005 -1.127,7.288 -22.608,1.104 0.165,-5.562 z m 8.881,3.826 c -0.902,2.822 -4.093,12.793 -4.389,13.174 -0.344,0.445 -3.439,-13.739 -3.814,-14.356 -0.252,-0.417 3.322,-1.389 5.914,-1.086 z m -69.845,31.458 c -27.182,-12.866 -41.498,-32.542 -42.838,-34.445 2.014,-2.495 4.169,-5.02 6.435,-7.557 2.821,4.674 14.999,22.953 39.602,35.743 -1.168,2.074 -2.241,4.164 -3.199,6.259 m -138.069,-3.252 c 2.964,4.221 6.216,8.32 9.92,12.016 4.262,4.278 8.826,8.356 13.758,11.942 4.904,3.63 10.052,6.972 15.408,9.99 2.686,1.495 5.408,2.941 8.199,4.286 0.519,0.252 1.054,0.486 1.578,0.732 -1.325,0.84 -2.644,1.691 -3.937,2.585 l -2.551,1.955 c -1.693,-0.501 -4.458,-1.492 -5.469,-1.711 -1.322,-0.279 -2.645,-0.594 -3.97,-0.931 -2.651,-0.662 -5.29,-1.433 -7.921,-2.259 -5.25,-1.677 -10.414,-3.695 -15.454,-6.034 -5.072,-2.3 -9.887,-5.118 -14.561,-8.222 -3.278,-2.172 -6.341,-4.646 -9.279,-7.311 4.213,-6.112 8.984,-11.796 14.279,-17.038 m -24.712,35.378 c 2.846,-6.14 6.14,-11.97 9.862,-17.471 2.366,3.14 4.925,6.17 7.761,8.952 4.125,4.067 8.543,7.941 13.317,11.329 4.745,3.431 9.726,6.58 14.905,9.413 2.595,1.403 5.226,2.759 7.923,4.016 0.819,0.386 1.657,0.748 2.489,1.117 -1.608,1.545 -3.178,3.136 -4.704,4.775 -1.723,-0.495 -3.503,-1.017 -4.139,-1.138 -1.267,-0.239 -2.538,-0.508 -3.809,-0.803 -2.547,-0.575 -5.082,-1.254 -7.612,-1.988 -5.05,-1.49 -10.024,-3.309 -14.885,-5.444 -4.894,-2.095 -9.542,-4.698 -14.068,-7.583 -2.454,-1.563 -4.787,-3.307 -7.04,-5.175 m -7.038,18.814 c 1.767,-5.993 3.881,-11.764 6.354,-17.287 1.767,2.158 3.647,4.238 5.669,6.188 3.993,3.854 8.265,7.525 12.881,10.713 4.588,3.233 9.401,6.189 14.402,8.838 2.507,1.311 5.049,2.576 7.651,3.744 1.045,0.477 2.111,0.929 3.181,1.376 -0.111,0.154 -0.229,0.303 -0.341,0.458 -0.98,1.378 -1.918,2.786 -2.836,4.208 -0.879,-0.104 -1.885,-0.257 -2.824,-0.412 -1.213,-0.197 -2.429,-0.423 -3.648,-0.674 -2.44,-0.487 -4.873,-1.076 -7.3,-1.717 -4.848,-1.305 -9.63,-2.927 -14.313,-4.854 -4.713,-1.888 -9.196,-4.282 -13.571,-6.942 -1.831,-1.117 -3.592,-2.34 -5.305,-3.639 m -0.628,2.12 c 1.251,1.409 2.54,2.788 3.917,4.089 3.858,3.64 7.989,7.11 12.445,10.098 4.434,3.034 9.081,5.796 13.905,8.261 2.417,1.221 4.868,2.394 7.377,3.476 1.158,0.505 2.335,0.989 3.525,1.458 -0.803,1.603 -1.575,3.221 -2.305,4.861 -0.336,-0.042 -0.672,-0.087 -0.998,-0.131 -1.158,-0.157 -2.32,-0.34 -3.486,-0.548 -2.331,-0.4 -4.66,-0.897 -6.985,-1.447 -4.644,-1.118 -9.234,-2.541 -13.737,-4.264 -4.527,-1.687 -8.849,-3.858 -13.072,-6.299 -1.46,-0.849 -2.868,-1.787 -4.252,-2.76 0.935,-5.77 2.157,-11.372 3.666,-16.794 m -4.071,19.51 c 0.866,0.909 1.759,1.793 2.684,2.647 3.726,3.433 7.72,6.688 12.018,9.484 4.277,2.834 8.759,5.403 13.406,7.683 2.329,1.129 4.689,2.21 7.104,3.204 1.073,0.449 2.166,0.874 3.267,1.287 -0.547,1.661 -1.057,3.333 -1.532,5.015 -0.761,-0.09 -1.52,-0.175 -2.286,-0.29 -2.223,-0.314 -4.447,-0.72 -6.669,-1.178 -4.438,-0.933 -8.835,-2.159 -13.154,-3.674 -4.342,-1.489 -8.502,-3.435 -12.571,-5.655 -1.325,-0.73 -2.605,-1.535 -3.868,-2.372 0.29,-5.517 0.837,-10.895 1.601,-16.151 m 34.646,94.965 c -0.175,-0.008 -0.349,-0.01 -0.524,-0.021 -3.593,-0.2 -7.19,-0.639 -10.763,-1.324 -3.574,-0.694 -7.072,-1.732 -10.52,-3.059 -2.243,-0.894 -4.405,-2 -6.506,-3.266 -1.212,-4.732 -2.288,-9.417 -3.229,-14.049 1.05,1.035 2.132,2.043 3.281,2.985 3.217,2.596 6.683,4.986 10.356,7.011 3.671,2.028 7.499,3.817 11.446,5.354 1.887,0.731 3.799,1.412 5.746,2.031 0.221,1.45 0.455,2.897 0.713,4.338 m -34.459,-38.951 c 0.8,0.777 1.623,1.529 2.476,2.254 3.34,2.805 6.933,5.415 10.762,7.632 3.82,2.231 7.81,4.216 11.931,5.939 2.063,0.856 4.154,1.663 6.288,2.391 0.208,0.073 0.423,0.135 0.632,0.206 0.084,1.609 0.19,3.217 0.321,4.82 -0.688,-0.052 -1.376,-0.106 -2.064,-0.172 -3.81,-0.383 -7.61,-1.017 -11.374,-1.91 -3.769,-0.891 -7.436,-2.159 -11.041,-3.711 -1.907,-0.842 -3.751,-1.829 -5.549,-2.925 -0.943,-4.902 -1.741,-9.745 -2.382,-14.524 m -1.712,-18.096 c 0.659,0.641 1.323,1.28 2.017,1.888 3.466,3.015 7.191,5.842 11.174,8.252 3.972,2.432 8.124,4.612 12.421,6.522 2.152,0.946 4.331,1.845 6.56,2.662 0.542,0.203 1.099,0.385 1.649,0.578 -0.095,1.685 -0.157,3.37 -0.194,5.055 -1.366,-0.131 -2.735,-0.283 -4.104,-0.471 -4.02,-0.565 -8.022,-1.396 -11.974,-2.496 -3.961,-1.09 -7.795,-2.585 -11.555,-4.362 -1.602,-0.77 -3.15,-1.649 -4.668,-2.59 -0.617,-5.092 -1.056,-10.105 -1.326,-15.038 m -0.19,-18.737 c 0.673,0.672 1.349,1.342 2.057,1.981 3.596,3.224 7.454,6.265 11.594,8.867 4.123,2.635 8.441,5.009 12.912,7.102 2.24,1.038 4.511,2.03 6.832,2.934 0.84,0.335 1.699,0.644 2.557,0.954 -0.308,1.702 -0.583,3.409 -0.82,5.12 -0.024,-0.002 -0.05,-0.004 -0.074,-0.006 -2.115,-0.228 -4.233,-0.545 -6.35,-0.911 -4.23,-0.748 -8.43,-1.777 -12.567,-3.085 -4.152,-1.289 -8.15,-3.01 -12.066,-5.01 -1.389,-0.718 -2.733,-1.524 -4.058,-2.368 -0.213,-5.296 -0.204,-10.483 -0.017,-15.578 m 8.61,70.356 c 1.343,1.358 2.774,2.648 4.295,3.843 3.098,2.385 6.435,4.555 9.958,6.387 3.523,1.824 7.19,3.416 10.962,4.767 1.614,0.575 3.25,1.103 4.905,1.593 0.291,1.184 0.595,2.363 0.909,3.539 -3.252,-0.039 -6.517,-0.276 -9.774,-0.736 -3.376,-0.497 -6.703,-1.303 -9.991,-2.403 -2.68,-0.942 -5.263,-2.186 -7.76,-3.695 -0.548,-2.029 -1.043,-4.011 -1.469,-5.928 l -0.064,-0.25 c -0.691,-2.385 -1.348,-4.757 -1.971,-7.117 m 3.856,14.562 c 1.767,1.912 3.723,3.705 5.858,5.302 2.981,2.173 6.195,4.119 9.567,5.757 3.377,1.618 6.884,3.012 10.483,4.177 1.517,0.49 3.053,0.934 4.607,1.343 0.259,0.767 0.532,1.528 0.801,2.291 -2.988,0.123 -5.995,0.071 -9.009,-0.185 -3.173,-0.302 -6.324,-0.875 -9.453,-1.747 -2.994,-0.896 -5.899,-2.167 -8.69,-3.841 -1.585,-4.484 -2.989,-8.885 -4.164,-13.097 m 4.261,13.366 c 2.066,2.399 4.475,4.609 7.16,6.507 2.87,1.959 5.962,3.677 9.188,5.12 3.232,1.41 6.579,2.606 10.005,3.584 1.645,0.47 3.309,0.891 4.997,1.258 0.069,0.16 0.135,0.322 0.205,0.483 -0.027,0.002 -0.052,0.007 -0.078,0.009 -2.931,0.324 -5.895,0.466 -8.877,0.399 -2.97,-0.108 -5.94,-0.448 -8.905,-1.088 -2.93,-0.707 -5.811,-1.769 -8.577,-3.304 2.061,2.37 4.541,4.494 7.282,6.303 2.765,1.741 5.735,3.228 8.818,4.474 3.089,1.203 6.277,2.195 9.53,2.987 0.104,0.026 0.21,0.047 0.314,0.072 -1.569,0.199 -3.149,0.348 -4.738,0.418 -2.764,0.095 -5.549,-0.013 -8.342,-0.426 -2.735,-0.473 -5.455,-1.267 -8.085,-2.548 -3.612,-7.866 -7.033,-16.176 -9.897,-24.248 M 38.406,-8.83 c 3.575,-5.011 6.581,-10.41 8.601,-16.143 -2.655,5.481 -6.185,10.396 -10.181,14.851 -4.081,4.397 -8.63,8.303 -13.384,11.902 -4.786,3.569 -9.85,6.75 -15.032,9.679 -1.744,0.973 -3.523,1.916 -5.312,2.837 16.593,-39.541 28.707,-91.94 32.371,-141.556 4.607,-62.405 -4.923,-108.944 -26.15,-127.69 l -3.663,-3.233 -2.532,4.179 c -13.389,22.1 -23.236,27.187 -27.914,28.252 -0.113,0.025 -0.22,0.044 -0.329,0.066 0.992,-1.234 1.964,-2.48 2.915,-3.736 2.41,-3.173 4.67,-6.438 6.862,-9.737 4.34,-6.631 8.207,-13.544 11.58,-20.661 3.434,-7.088 6.141,-14.511 8.299,-22.024 l 1.498,-5.667 c 0.405,-1.91 0.739,-3.836 1.111,-5.746 l 0.541,-2.864 0.322,-2.901 0.63,-5.777 -1.31,5.652 -0.657,2.81 -0.871,2.757 c -0.59,1.833 -1.14,3.672 -1.756,5.485 l -2.122,5.347 c -2.974,7.052 -6.429,13.87 -10.541,20.278 -3.734,5.93 -7.842,11.6 -12.269,16.988 0.158,-0.583 0.33,-1.162 0.484,-1.746 2.275,-8.595 4.059,-17.295 5.375,-26.045 0.744,-4.358 1.143,-8.771 1.674,-13.145 0.286,-4.413 0.779,-8.789 0.824,-13.2 0.444,-8.793 -0.034,-17.592 -0.699,-26.298 -0.257,8.748 -0.704,17.456 -2.056,26.054 -0.499,4.313 -1.443,8.57 -2.172,12.831 -0.976,4.231 -1.814,8.472 -2.988,12.64 -2.179,8.366 -4.796,16.602 -7.863,24.641 -1.53,4.02 -3.156,7.996 -4.881,11.911 -0.336,0.752 -0.683,1.509 -1.03,2.265 -22.162,-39.908 -52.562,-83.875 -81.565,-90.251 l -1.769,-0.389 -1.475,1.051 c -3.095,2.203 -76.079,54.421 -100.554,94.273 l -1.318,2.148 1.329,2.141 c 5.343,8.607 10.016,17.437 13.238,24.692 -3.905,-3.496 -7.736,-7.092 -11.521,-10.747 -8.037,-7.825 -15.738,-16.022 -23.091,-24.548 -7.416,-8.484 -14.214,-17.486 -20.674,-26.763 l -4.702,-7.063 c -1.547,-2.373 -2.927,-4.84 -4.403,-7.262 l -2.185,-3.656 c -0.713,-1.227 -1.331,-2.502 -2.003,-3.752 l -3.966,-7.558 3.04,7.986 c 0.52,1.329 0.99,2.686 1.554,3.996 l 1.742,3.912 c 1.185,2.6 2.28,5.257 3.546,7.822 l 3.876,7.676 c 5.38,10.12 11.184,20.088 17.672,29.602 6.428,9.556 13.275,18.858 20.537,27.852 0.377,0.465 0.765,0.921 1.143,1.384 -8.278,-3.606 -16.391,-7.632 -24.273,-12.115 -8.61,-4.984 -16.83,-10.636 -24.626,-16.916 -7.682,-6.407 -14.679,-13.65 -20.845,-21.724 5.012,8.803 11.087,17.105 18.036,24.687 7.054,7.453 14.713,14.404 22.881,20.731 8.205,6.261 16.801,12.047 25.717,17.331 2.111,1.251 4.242,2.472 6.388,3.668 -19.082,-4.107 -46.869,-15.147 -65.57,-35.698 l -2.557,-2.81 -2.987,2.349 c -20.38,16.028 -35.27,37.956 -43.638,64.038 -0.074,-0.068 -0.15,-0.136 -0.224,-0.205 0.065,0.093 0.135,0.183 0.201,0.276 -1.649,5.148 -3.049,10.456 -4.182,15.913 -0.199,0.953 -0.361,1.926 -0.543,2.888 -0.139,-0.124 -0.282,-0.24 -0.421,-0.366 0.126,0.179 0.263,0.353 0.391,0.529 -5.98,31.815 -3.336,68.73 7.744,107.044 5.167,23.135 18.932,54.047 30.494,72.855 -0.424,-0.232 -0.856,-0.457 -1.276,-0.692 -5.183,-2.929 -10.246,-6.109 -15.033,-9.679 -4.753,-3.601 -9.302,-7.504 -13.384,-11.902 -3.996,-4.455 -7.525,-9.369 -10.18,-14.851 2.019,5.733 5.025,11.131 8.6,16.143 3.656,4.953 7.867,9.486 12.344,13.74 4.508,4.225 9.344,8.082 14.357,11.709 0.519,0.372 1.042,0.727 1.562,1.092 -4.145,0.045 -8.31,-0.059 -12.441,-0.458 -4.225,-0.421 -8.481,-0.979 -12.591,-2.112 -4.107,-1.114 -8.165,-2.615 -11.831,-5.003 3.152,3.029 6.987,5.362 10.984,7.302 4.007,1.964 8.247,3.364 12.526,4.626 4.289,1.251 8.654,2.189 13.054,2.967 2.587,0.444 5.144,0.83 7.747,1.15 -0.57,0.658 -1.135,1.321 -1.699,1.992 -2.402,2.861 -4.694,5.811 -6.823,8.879 -2.133,3.06 -4.141,6.215 -5.794,9.564 -1.648,3.332 -3.069,6.83 -3.594,10.47 1.192,-3.475 3.176,-6.529 5.328,-9.392 2.156,-2.869 4.621,-5.499 7.18,-8.011 2.555,-2.516 5.247,-4.897 8.021,-7.168 0.163,-0.134 0.329,-0.265 0.493,-0.398 -1.604,17.662 0.664,37.96 6.455,56.181 7.904,24.87 21.115,41.963 37.2,48.129 l 1.043,0.399 1.1,-0.186 c 25.015,-4.237 33.033,-19.122 39.477,-31.083 2.273,-4.218 4.443,-8.248 7.133,-11.396 30.388,15.286 88.597,34.82 100.618,20.685 6.433,-7.569 34.319,-29.658 49.301,-41.525 0.207,-0.165 0.401,-0.319 0.603,-0.479 17.176,-0.017 42.026,14.338 51.12,19.977 1.746,2.033 3.307,3.129 5.163,3.32 1.524,0.151 3.004,-0.378 4.091,-1.464 C 13.331,115.714 9.949,74.907 9.913,74.496 8.656,60.141 5.919,42.738 -0.015,32.442 c 0.031,0.026 0.062,0.05 0.092,0.075 2.773,2.271 5.465,4.651 8.02,7.168 2.56,2.512 5.025,5.142 7.181,8.011 2.153,2.864 4.136,5.918 5.328,9.392 -0.526,-3.64 -1.947,-7.138 -3.593,-10.47 -1.654,-3.348 -3.661,-6.504 -5.794,-9.563 -2.131,-3.069 -4.422,-6.019 -6.823,-8.88 -0.565,-0.671 -1.13,-1.333 -1.7,-1.992 2.603,-0.32 5.16,-0.706 7.747,-1.149 4.401,-0.778 8.766,-1.717 13.054,-2.967 4.278,-1.262 8.52,-2.663 12.526,-4.627 3.997,-1.939 7.832,-4.273 10.984,-7.302 -3.667,2.389 -7.723,3.889 -11.831,5.004 -4.111,1.132 -8.365,1.69 -12.59,2.111 -4.133,0.4 -8.296,0.504 -12.443,0.457 0.52,-0.364 1.043,-0.72 1.563,-1.089 5.012,-3.628 9.85,-7.487 14.356,-11.71 4.478,-4.255 8.689,-8.788 12.344,-13.741 m -60.893,-54.305 c 0,0 6.205,-7.485 6.055,-20.821 3.661,6.804 2.926,38.104 2.926,38.104 l -24.8,-17.283 z m -33.754,21.304 -0.094,0.674 c 0,0 0.003,-0.264 0.094,-0.674 m 13.364,13.717 c 0.496,-1.445 1.559,-2.76 2.933,-3.549 1.38,-0.776 2.965,-1.075 4.454,-0.929 1.49,0.13 2.899,0.642 4.069,1.478 -1.44,-0.065 -2.779,-0.102 -4.055,0.051 -1.266,0.166 -2.463,0.49 -3.485,1.095 -1.047,0.566 -1.87,1.451 -2.536,2.503 -0.658,1.066 -1.104,2.323 -1.522,3.702 -0.392,-1.38 -0.374,-2.909 0.142,-4.351 m 30.323,-58.564 c 0,0 -15.922,-18.78 -25.752,-31.522 -4.115,5.222 -13.996,48.056 -13.996,48.056 l -3.939,28.313 c 0.093,-0.414 0.277,-0.975 0.643,-1.57 -0.267,1.577 -0.456,2.984 -0.574,4.246 l -0.133,0.033 c -0.007,-0.022 -0.007,-0.045 -0.011,-0.068 0.01,0.179 0.017,0.398 0.028,0.592 l 0.01,0.831 c -0.071,1.205 -0.072,2.27 -0.01,3.218 l -0.008,0.962 -0.105,6.86 c -0.069,4.587 -0.117,9.185 -0.081,13.787 0.039,4.601 0.142,9.209 0.466,13.814 0.164,2.3 0.379,4.602 0.754,6.888 0.202,1.141 0.417,2.281 0.761,3.395 0.326,1.088 0.752,2.269 1.654,3.005 -0.774,-0.858 -0.995,-2.016 -1.157,-3.119 -0.169,-1.111 -0.212,-2.246 -0.241,-3.373 -0.032,-2.262 0.095,-4.53 0.27,-6.792 0.357,-4.525 0.93,-9.041 1.568,-13.547 0.478,-3.379 1.011,-6.753 1.558,-10.129 4.955,5.84 16.752,13.997 19.312,12.567 6.94,-3.879 10.512,-11.941 10.512,-11.941 0,0 0,-9.119 -14.96,-15.675 -5.475,-2.4 -11.744,2.064 -15.176,-8.393 5.189,-1.164 15.586,0.494 36.417,11.847 -4.181,-10.828 -30.878,-27.03 -30.878,-27.03 0,0 0.913,-19.047 5.107,-27.705 1.846,-3.811 10.815,-6.125 27.961,2.45 M -44.806,49.148 -81.424,95.407 -58.959,85.17 c 0,0 -38.191,40.967 -50.124,40.721 -11.932,-0.247 -3.589,-17.419 -3.589,-17.419 0.91,0 67.866,-59.324 67.866,-59.324 m 29.94,-66.154 c 1.087,-1.356 -4.964,49.291 -23.44,66.154 0,0 12.687,-35.841 0,-48.866 14.73,-5.036 22.351,-15.933 23.44,-17.288 m -31.639,-128.137 -7.362,-9.187 c 0,0 28.161,0.273 28.161,18.372 -4.083,-14.697 -20.799,-9.185 -20.799,-9.185 m -12.543,-15.164 -3.809,-6.548 c 4.082,-1.355 33.476,-5.095 36.334,15.792 -3.266,-17.086 -27.217,-8.02 -32.525,-9.244 m -7.383,-11.901 c -1.224,0.314 -5.92,-2.85 -7.757,-8.911 0,0 25.924,-4.694 38.581,5.512 -4.899,-3.266 -29.598,3.083 -30.824,3.399 m 10.077,132.644 0.029,0.253 c 0.004,0.033 0.005,0.082 0.009,0.121 -0.019,-0.07 -0.036,-0.143 -0.042,-0.217 -0.009,-0.074 0,-0.261 0.004,-0.157 m -36.354,88.701 c -2.178,0.545 -37.017,-18.508 -37.017,-18.508 l 35.928,3.954 43.547,-14.586 c 0,0 -40.281,28.596 -42.458,29.14 m -66.412,3.266 c 0,0 65.867,9.254 67.5,7.201 1.633,-2.053 39.193,-16.675 39.193,-16.675 0,0 -37.56,32.881 -47.902,38.869 -10.343,5.988 -58.791,-27.197 -58.791,-27.197 z m 19.75,56.316 c 1.683,-5.76 3.931,-14.551 2.909,-17.395 -1.564,-4.355 -33.713,-27.15 -33.713,-27.15 12.55,4.628 47.935,24.905 47.935,24.905 0,0 5.283,29.763 -9.856,39.288 -10.735,8.853 -72.146,-25.203 -72.146,-25.203 37.516,11.567 56.542,8.619 64.871,5.555 M -249.143,54.601 c 11.84,4.103 93.035,38.146 93.035,38.146 0,0 5.298,5.518 -4.645,9.05 -42.256,5.041 -85.285,-44.756 -88.39,-47.196 m 93.035,-14.718 c 0,0 12.708,-11.408 14.544,-19.886 10.207,12.129 2.351,26.01 2.351,26.01 z m -12.81,-26.673 c 1.632,0.953 24.323,3.356 29.396,-7.122 4.082,15.423 -33.479,27.817 -33.479,27.817 2.449,-0.963 2.449,-21.647 4.083,-20.695 m 27.489,-32.933 c -2.399,-0.109 -4.63,-0.171 -6.755,0.086 -2.12,0.254 -4.093,0.851 -5.808,1.824 -1.721,0.97 -3.13,2.4 -4.227,4.168 -1.095,1.778 -1.836,3.872 -2.534,6.17 -0.654,-2.298 -0.622,-4.848 0.237,-7.25 0.84,-2.39 2.574,-4.625 4.885,-5.912 2.287,-1.327 4.95,-1.771 7.421,-1.55 2.484,0.217 4.832,1.071 6.781,2.464 m 13.337,-18.237 c -9.947,2.589 -18.679,6.397 -24.574,9.663 -10.419,5.773 -23.391,18.1 -22.815,32.254 0,0 26.159,6.531 37.047,-3.268 10.886,-9.798 4.899,-27.217 12.52,-33.204 7.62,-5.988 8.923,-8.332 -2.178,-5.445 m -51.85,51.17 c 0,0 -2.544,42.459 -7.192,41.371 -4.647,-1.089 -25.332,-16.875 -22.067,-23.407 3.266,-6.533 29.259,-17.964 29.259,-17.964 m 33.635,-54.98 c -6.238,2.723 -37.853,21.229 -49.83,49.537 -17.419,-11.976 -3.265,-45.182 0,-48.992 3.267,-3.811 21.775,0 21.775,0 -11.975,4.354 -20.383,24.219 -20.383,24.219 9.767,-10.611 30.598,-21.977 48.438,-24.764 m -55.273,-25.584 c 3.811,-2.722 51.6,0.115 51.6,0.115 l -59.568,20.189 c 0,0 4.158,-17.582 7.968,-20.304 m 62.367,-28.307 c 3.879,13.066 -61.516,10.925 -70.498,19.907 -8.981,8.982 -14.168,68.279 -6.391,92.774 -13.624,-14.697 -40.914,-105.807 11.256,-125.744 21.229,14.697 52.772,15.514 65.633,13.063 m -107.548,17.488 c -10.886,-3.266 -21.773,-8.709 -21.773,-8.709 l -2.687,-29.804 c 0,0 64.742,-30.619 71.819,-53.482 6.532,23.952 -61.513,63.145 -47.359,91.995 m 6.678,158.41 c 3.622,2.538 7.159,5.027 10.355,7.281 0,0.001 0.001,0.002 0.002,0.002 7.73,5.452 13.449,9.52 13.449,9.52 2.041,1.633 -14.29,43.684 -24.904,46.95 -13.881,-8.165 -29.395,-50.625 -29.395,-50.625 13.472,17.556 31.436,36.744 39.193,25.313 2.766,-4.076 -0.958,-12.199 -7.057,-21.151 -9.914,-8.06 -42.747,-37.027 -48.741,-71.604 8.608,20.838 29.229,40.874 47.098,54.314 m -1.506,-141.66 c 0,0 -45.182,47.552 49.808,128.251 0,0 -56.341,-14.289 -70.222,-46.133 -13.88,-31.845 -20.822,-92.268 -9.389,-95.942 11.431,-3.674 29.803,13.824 29.803,13.824 m 56.455,-89.64 c 5.307,-5.716 37.774,-20.604 73.191,-14.289 -47.453,0.815 -74.856,28.034 -74.856,28.034 0,0 -3.642,-8.029 1.665,-13.745 m 5.92,34.294 c 0,0 -9.621,-3.538 -7.192,-7.554 2.428,-4.013 48.155,-34.77 80.272,-30.823 -42.46,5.308 -73.08,38.377 -73.08,38.377 m 76.84,-23.271 c -29.997,-3.835 -60.646,18.78 -72.077,30.756 0.272,4.355 9.118,5.988 9.118,5.988 0,0 30.792,-33.071 62.959,-36.744"
             style="fill:#000000;fill-opacity:1;fill-rule:nonzero;stroke:none"
             id="path3773" />
        </g>
      </g>
    </g>
  </g>
</svg>
