<?xml version="1.0" encoding="UTF-8"?>
<!DOCTYPE svg PUBLIC "-//W3C//DTD SVG 1.1//EN" "http://www.w3.org/Graphics/SVG/1.1/DTD/svg11.dtd">
<svg version="1.2" width="240.15mm" height="119.5mm" viewBox="0 0 24015 11950" preserveAspectRatio="xMidYMid" fill-rule="evenodd" stroke-width="28.222" stroke-linejoin="round" xmlns="http://www.w3.org/2000/svg" xmlns:ooo="http://xml.openoffice.org/svg/export" xmlns:xlink="http://www.w3.org/1999/xlink" xmlns:presentation="http://sun.com/xmlns/staroffice/presentation" xmlns:smil="http://www.w3.org/2001/SMIL20/" xmlns:anim="urn:oasis:names:tc:opendocument:xmlns:animation:1.0" xml:space="preserve">
 <defs class="ClipPathGroup">
  <clipPath id="presentation_clip_path" clipPathUnits="userSpaceOnUse">
   <rect x="0" y="0" width="24015" height="11950"/>
  </clipPath>
  <clipPath id="presentation_clip_path_shrink" clipPathUnits="userSpaceOnUse">
   <rect x="24" y="11" width="23967" height="11927"/>
  </clipPath>
 </defs>
 <defs class="TextShapeIndex">
  <g ooo:slide="id1" ooo:id-list="id3 id4 id5 id6 id7 id8 id9 id10 id11 id12"/>
 </defs>
 <defs class="EmbeddedBulletChars">
  <g id="bullet-char-template-57356" transform="scale(0.00048828125,-0.00048828125)">
   <path d="M 580,1141 L 1163,571 580,0 -4,571 580,1141 Z"/>
  </g>
  <g id="bullet-char-template-57354" transform="scale(0.00048828125,-0.00048828125)">
   <path d="M 8,1128 L 1137,1128 1137,0 8,0 8,1128 Z"/>
  </g>
  <g id="bullet-char-template-10146" transform="scale(0.00048828125,-0.00048828125)">
   <path d="M 174,0 L 602,739 174,1481 1456,739 174,0 Z M 1358,739 L 309,1346 659,739 1358,739 Z"/>
  </g>
  <g id="bullet-char-template-10132" transform="scale(0.00048828125,-0.00048828125)">
   <path d="M 2015,739 L 1276,0 717,0 1260,543 174,543 174,936 1260,936 717,1481 1274,1481 2015,739 Z"/>
  </g>
  <g id="bullet-char-template-10007" transform="scale(0.00048828125,-0.00048828125)">
   <path d="M 0,-2 C -7,14 -16,27 -25,37 L 356,567 C 262,823 215,952 215,954 215,979 228,992 255,992 264,992 276,990 289,987 310,991 331,999 354,1012 L 381,999 492,748 772,1049 836,1024 860,1049 C 881,1039 901,1025 922,1006 886,937 835,863 770,784 769,783 710,716 594,584 L 774,223 C 774,196 753,168 711,139 L 727,119 C 717,90 699,76 672,76 641,76 570,178 457,381 L 164,-76 C 142,-110 111,-127 72,-127 30,-127 9,-110 8,-76 1,-67 -2,-52 -2,-32 -2,-23 -1,-13 0,-2 Z"/>
  </g>
  <g id="bullet-char-template-10004" transform="scale(0.00048828125,-0.00048828125)">
   <path d="M 285,-33 C 182,-33 111,30 74,156 52,228 41,333 41,471 41,549 55,616 82,672 116,743 169,778 240,778 293,778 328,747 346,684 L 369,508 C 377,444 397,411 428,410 L 1163,1116 C 1174,1127 1196,1133 1229,1133 1271,1133 1292,1118 1292,1087 L 1292,965 C 1292,929 1282,901 1262,881 L 442,47 C 390,-6 338,-33 285,-33 Z"/>
  </g>
  <g id="bullet-char-template-9679" transform="scale(0.00048828125,-0.00048828125)">
   <path d="M 813,0 C 632,0 489,54 383,161 276,268 223,411 223,592 223,773 276,916 383,1023 489,1130 632,1184 813,1184 992,1184 1136,1130 1245,1023 1353,916 1407,772 1407,592 1407,412 1353,268 1245,161 1136,54 992,0 813,0 Z"/>
  </g>
  <g id="bullet-char-template-8226" transform="scale(0.00048828125,-0.00048828125)">
   <path d="M 346,457 C 273,457 209,483 155,535 101,586 74,649 74,723 74,796 101,859 155,911 209,963 273,989 346,989 419,989 480,963 531,910 582,859 608,796 608,723 608,648 583,586 532,535 482,483 420,457 346,457 Z"/>
  </g>
  <g id="bullet-char-template-8211" transform="scale(0.00048828125,-0.00048828125)">
   <path d="M -4,459 L 1135,459 1135,606 -4,606 -4,459 Z"/>
  </g>
  <g id="bullet-char-template-61548" transform="scale(0.00048828125,-0.00048828125)">
   <path d="M 173,740 C 173,903 231,1043 346,1159 462,1274 601,1332 765,1332 928,1332 1067,1274 1183,1159 1299,1043 1357,903 1357,740 1357,577 1299,437 1183,322 1067,206 928,148 765,148 601,148 462,206 346,322 231,437 173,577 173,740 Z"/>
  </g>
 </defs>
 <g>
  <g id="id2" class="Master_Slide">
   <g id="bg-id2" class="Background"/>
   <g id="bo-id2" class="BackgroundObjects"/>
  </g>
 </g>
 <g class="SlideGroup">
  <g>
   <g id="container-id1">
    <g id="id1" class="Slide" clip-path="url(#presentation_clip_path)">
     <g class="Page">
      <g class="com.sun.star.drawing.ClosedBezierShape">
       <g id="id3">
        <rect class="BoundingBox" stroke="none" fill="none" x="879" y="894" width="22006" height="10644"/>
        <path fill="rgb(0,0,0)" stroke="none" d="M 9740,4437 C 9847,4408 9922,4383 9906,4382 9814,4375 7678,3924 6910,3751 6410,3637 6005,3548 6010,3553 6015,3557 6138,3654 6283,3770 6567,3993 6799,4250 6900,4450 6935,4518 6967,4579 6972,4584 6977,4590 7039,4555 7110,4507 7453,4275 8224,4379 8598,4709 8693,4792 8793,4851 8830,4845 8865,4839 8894,4853 8894,4876 8894,4898 8959,4858 9040,4786 9120,4713 9266,4617 9366,4571 9465,4526 9634,4465 9740,4437 Z M 13536,11485 C 12133,11206 10603,10128 9643,8744 9065,7910 8647,6774 8647,6037 8647,5767 8643,5752 8559,5720 8478,5690 8471,5669 8471,5473 8471,5082 8323,4894 7918,4769 7444,4622 7306,4687 7306,5058 7306,5232 7293,5274 7218,5339 7146,5402 7130,5447 7130,5597 7130,5696 7113,5868 7093,5978 7073,6088 7051,6262 7045,6363 7030,6625 6747,7277 6559,7484 6507,7541 6394,7680 6307,7792 5944,8265 5494,8601 4996,8775 4754,8860 4658,8874 4326,8875 3907,8876 3694,8825 3391,8653 2684,8252 2032,7375 1643,6300 1510,5932 1335,5262 1294,4960 1266,4754 1255,4735 1123,4651 937,4532 808,4185 924,4114 944,4101 975,4054 992,4009 1013,3955 1058,3922 1123,3915 1218,3904 1223,3893 1262,3621 1340,3074 1432,2846 1658,2642 1883,2438 2103,2391 2719,2415 3232,2435 3494,2484 4118,2679 L 4334,2747 4912,2502 C 5230,2368 5917,2084 6440,1872 6962,1661 7423,1458 7463,1422 7614,1287 8568,965 8973,913 9349,865 9739,912 10027,1039 10134,1086 10505,1292 10854,1497 11202,1701 11724,2001 12014,2163 12631,2508 12692,2574 12579,2783 12474,2978 12308,3075 12078,3075 11974,3075 11856,3058 11818,3037 11779,3017 11498,2750 11194,2444 9878,1122 9455,1014 7980,1619 7781,1701 7651,1734 7586,1721 7492,1703 6634,2037 5145,2672 L 4659,2879 4845,2962 C 4947,3008 5095,3050 5172,3056 5250,3063 5583,3132 5913,3210 6491,3347 7660,3609 8506,3792 8729,3841 9292,3955 9758,4046 10224,4137 10640,4234 10683,4261 10731,4290 10861,4309 11018,4309 12392,4310 14241,4704 15260,5215 16190,5681 16624,6285 16809,7376 16872,7749 16905,7779 17218,7750 17807,7694 17786,7703 18158,7377 19848,5900 21592,4280 21592,4189 21592,4114 21838,3870 22252,3534 22833,3062 22998,3271 22808,4239 22757,4500 22704,4722 22692,4732 22679,4742 22638,4810 22601,4883 22547,4989 22514,5015 22433,5015 22336,5015 22333,5009 22333,4838 22333,4741 22373,4493 22422,4286 22470,4080 22504,3904 22496,3897 22489,3889 22350,4010 22189,4167 22028,4323 21868,4450 21834,4450 21800,4450 21346,4850 20827,5338 20307,5825 19456,6606 18937,7074 18104,7823 17990,7939 17972,8049 17961,8118 17926,8209 17894,8252 17813,8359 17498,8447 17183,8451 L 16918,8454 16879,8896 C 16762,10200 16385,10868 15528,11294 15154,11479 14840,11540 14276,11536 14002,11534 13669,11511 13536,11485 Z"/>
       </g>
      </g>
      <g class="com.sun.star.drawing.ClosedBezierShape">
       <g id="id4">
        <rect class="BoundingBox" stroke="none" fill="none" x="8723" y="4383" width="8092" height="7085"/>
        <path fill="rgb(255,0,0)" stroke="none" d="M 16551,10060 C 16830,9318 16886,8423 16719,7360 16497,5945 15639,5232 13537,4716 12535,4470 11179,4322 10717,4409 10597,4431 10353,4458 10175,4469 9698,4497 9363,4624 9081,4884 8897,5054 8784,5255 8812,5363 8823,5404 8812,5463 8787,5492 8712,5583 8701,6162 8768,6498 8905,7177 9288,8059 9713,8673 10674,10058 12203,11135 13606,11414 13984,11489 14649,11482 14970,11400 15724,11208 16304,10715 16551,10060 Z"/>
       </g>
      </g>
      <g class="com.sun.star.drawing.ClosedBezierShape">
       <g id="id5">
        <rect class="BoundingBox" stroke="none" fill="none" x="1314" y="2480" width="5738" height="6336"/>
        <path fill="rgb(255,0,0)" stroke="none" d="M 6237,7722 C 6323,7609 6437,7470 6489,7413 6662,7222 6959,6558 6950,6381 6946,6318 6971,6139 7004,5984 7052,5763 7060,5616 7041,5297 7019,4926 7006,4869 6888,4629 6734,4316 6355,3913 5983,3667 5727,3498 5116,3181 5047,3181 5025,3181 4966,3149 4917,3110 4867,3071 4748,3016 4650,2987 4552,2958 4438,2911 4396,2884 4314,2830 3904,2699 3444,2580 3037,2475 2343,2447 2074,2525 1578,2669 1364,3077 1321,3964 1296,4477 1338,4862 1487,5473 1927,7271 2943,8586 4061,8801 4254,8838 4656,8792 4927,8701 5417,8536 5871,8197 6237,7722 Z"/>
       </g>
      </g>
      <g class="com.sun.star.drawing.ClosedBezierShape">
       <g id="id6">
        <rect class="BoundingBox" stroke="none" fill="none" x="16893" y="4414" width="4721" height="3973"/>
        <path fill="rgb(255,255,0)" stroke="none" d="M 17906,7970 C 17936,7855 18060,7729 18752,7108 19864,6111 21636,4447 21612,4423 21588,4399 21611,4379 20693,5230 19883,5979 19168,6625 18390,7307 17829,7799 17883,7775 17206,7823 L 16893,7845 16915,7950 C 16926,8009 16936,8125 16936,8208 16936,8347 16944,8362 17033,8376 17171,8399 17348,8379 17571,8315 17782,8255 17850,8185 17906,7970 Z"/>
       </g>
      </g>
      <g class="com.sun.star.drawing.ClosedBezierShape">
       <g id="id7">
        <rect class="BoundingBox" stroke="none" fill="none" x="7117" y="4468" width="1595" height="1166"/>
        <path fill="rgb(255,255,0)" stroke="none" d="M 8701,5092 C 8725,4985 8714,4963 8551,4806 8322,4585 8004,4470 7624,4469 7418,4468 7332,4484 7236,4542 7119,4611 7113,4625 7120,4789 7124,4884 7138,5032 7150,5118 7179,5329 7235,5238 7235,4979 7236,4692 7295,4627 7552,4627 7811,4627 8186,4741 8333,4864 8480,4989 8541,5143 8541,5396 8541,5510 8552,5614 8566,5628 8602,5663 8653,5517 8664,5350 8670,5272 8686,5156 8701,5092 Z"/>
       </g>
      </g>
      <g class="com.sun.star.drawing.ClosedBezierShape">
       <g id="id8">
        <rect class="BoundingBox" stroke="none" fill="none" x="21675" y="3397" width="1107" height="1553"/>
        <path fill="rgb(232,162,2)" stroke="none" d="M 22779,3678 C 22767,3421 22762,3409 22677,3399 22613,3391 22528,3436 22381,3556 22008,3858 21699,4146 21678,4211 21659,4272 21732,4380 21793,4380 21810,4380 21973,4236 22155,4062 22337,3887 22515,3745 22552,3745 22629,3745 22626,3777 22487,4371 22361,4916 22385,5116 22540,4794 22679,4505 22794,3970 22779,3678 Z"/>
       </g>
      </g>
      <g class="com.sun.star.drawing.ClosedBezierShape">
       <g id="id9">
        <rect class="BoundingBox" stroke="none" fill="none" x="967" y="3991" width="238" height="602"/>
        <path fill="rgb(255,255,0)" stroke="none" d="M 1150,3992 C 1120,3992 1086,4020 1074,4054 1062,4088 1029,4142 1001,4175 971,4210 960,4263 974,4307 996,4377 1159,4592 1189,4592 1197,4592 1204,4457 1204,4292 1204,4046 1194,3992 1150,3992 Z"/>
       </g>
      </g>
      <g class="com.sun.star.drawing.ClosedBezierShape">
       <g id="id10">
        <rect class="BoundingBox" stroke="none" fill="none" x="5518" y="3224" width="4978" height="1116"/>
        <path fill="rgb(255,255,0)" stroke="none" d="M 10492,4315 C 10531,4299 10223,4224 9698,4120 9227,4027 8658,3911 8435,3863 7641,3691 6751,3493 6148,3352 5812,3274 5529,3217 5520,3226 5511,3236 5572,3281 5656,3328 5803,3410 6834,3660 8312,3972 8642,4041 9165,4152 9476,4218 10025,4334 10362,4366 10492,4315 Z"/>
       </g>
      </g>
      <g class="com.sun.star.drawing.ClosedBezierShape">
       <g id="id11">
        <rect class="BoundingBox" stroke="none" fill="none" x="7537" y="967" width="4986" height="2037"/>
        <path fill="rgb(232,162,2)" stroke="none" d="M 12506,2590 C 12484,2556 12230,2396 11942,2234 11653,2072 11131,1772 10783,1567 10026,1122 9852,1042 9527,989 9197,934 8853,984 8329,1164 7582,1419 7516,1453 7543,1557 7570,1661 7628,1663 7855,1568 8269,1396 8762,1243 9033,1203 9763,1097 10244,1349 11263,2372 11567,2677 11845,2944 11880,2964 11990,3028 12190,3010 12317,2924 12475,2817 12557,2673 12506,2590 Z"/>
       </g>
      </g>
      <g class="com.sun.star.drawing.ClosedBezierShape">
       <g id="id12">
        <rect class="BoundingBox" stroke="none" fill="none" x="4519" y="1592" width="2901" height="1230"/>
        <path fill="rgb(255,255,0)" stroke="none" d="M 5090,2596 C 5387,2468 6020,2205 6495,2011 7260,1698 7488,1593 7401,1593 7368,1593 6093,2108 5199,2482 4825,2638 4520,2780 4520,2797 4520,2842 4502,2848 5090,2596 Z"/>
       </g>
      </g>
     </g>
    </g>
   </g>
  </g>
 </g>
</svg>