<?xml version="1.0" encoding="UTF-8"?>
<!DOCTYPE svg PUBLIC "-//W3C//DTD SVG 1.1//EN" "http://www.w3.org/Graphics/SVG/1.1/DTD/svg11.dtd">
<svg version="1.2" width="167mm" height="254.7mm" viewBox="0 0 16700 25470" preserveAspectRatio="xMidYMid" fill-rule="evenodd" stroke-width="28.222" stroke-linejoin="round" xmlns="http://www.w3.org/2000/svg" xmlns:ooo="http://xml.openoffice.org/svg/export" xmlns:xlink="http://www.w3.org/1999/xlink" xmlns:presentation="http://sun.com/xmlns/staroffice/presentation" xmlns:smil="http://www.w3.org/2001/SMIL20/" xmlns:anim="urn:oasis:names:tc:opendocument:xmlns:animation:1.0" xml:space="preserve">
 <defs class="ClipPathGroup">
  <clipPath id="presentation_clip_path" clipPathUnits="userSpaceOnUse">
   <rect x="0" y="0" width="16700" height="25470"/>
  </clipPath>
  <clipPath id="presentation_clip_path_shrink" clipPathUnits="userSpaceOnUse">
   <rect x="16" y="25" width="16667" height="25420"/>
  </clipPath>
 </defs>
 <defs class="TextShapeIndex">
  <g ooo:slide="id1" ooo:id-list="id3 id4 id5 id6 id7 id8 id9"/>
 </defs>
 <defs class="EmbeddedBulletChars">
  <g id="bullet-char-template-57356" transform="scale(0.00048828125,-0.00048828125)">
   <path d="M 580,1141 L 1163,571 580,0 -4,571 580,1141 Z"/>
  </g>
  <g id="bullet-char-template-57354" transform="scale(0.00048828125,-0.00048828125)">
   <path d="M 8,1128 L 1137,1128 1137,0 8,0 8,1128 Z"/>
  </g>
  <g id="bullet-char-template-10146" transform="scale(0.00048828125,-0.00048828125)">
   <path d="M 174,0 L 602,739 174,1481 1456,739 174,0 Z M 1358,739 L 309,1346 659,739 1358,739 Z"/>
  </g>
  <g id="bullet-char-template-10132" transform="scale(0.00048828125,-0.00048828125)">
   <path d="M 2015,739 L 1276,0 717,0 1260,543 174,543 174,936 1260,936 717,1481 1274,1481 2015,739 Z"/>
  </g>
  <g id="bullet-char-template-10007" transform="scale(0.00048828125,-0.00048828125)">
   <path d="M 0,-2 C -7,14 -16,27 -25,37 L 356,567 C 262,823 215,952 215,954 215,979 228,992 255,992 264,992 276,990 289,987 310,991 331,999 354,1012 L 381,999 492,748 772,1049 836,1024 860,1049 C 881,1039 901,1025 922,1006 886,937 835,863 770,784 769,783 710,716 594,584 L 774,223 C 774,196 753,168 711,139 L 727,119 C 717,90 699,76 672,76 641,76 570,178 457,381 L 164,-76 C 142,-110 111,-127 72,-127 30,-127 9,-110 8,-76 1,-67 -2,-52 -2,-32 -2,-23 -1,-13 0,-2 Z"/>
  </g>
  <g id="bullet-char-template-10004" transform="scale(0.00048828125,-0.00048828125)">
   <path d="M 285,-33 C 182,-33 111,30 74,156 52,228 41,333 41,471 41,549 55,616 82,672 116,743 169,778 240,778 293,778 328,747 346,684 L 369,508 C 377,444 397,411 428,410 L 1163,1116 C 1174,1127 1196,1133 1229,1133 1271,1133 1292,1118 1292,1087 L 1292,965 C 1292,929 1282,901 1262,881 L 442,47 C 390,-6 338,-33 285,-33 Z"/>
  </g>
  <g id="bullet-char-template-9679" transform="scale(0.00048828125,-0.00048828125)">
   <path d="M 813,0 C 632,0 489,54 383,161 276,268 223,411 223,592 223,773 276,916 383,1023 489,1130 632,1184 813,1184 992,1184 1136,1130 1245,1023 1353,916 1407,772 1407,592 1407,412 1353,268 1245,161 1136,54 992,0 813,0 Z"/>
  </g>
  <g id="bullet-char-template-8226" transform="scale(0.00048828125,-0.00048828125)">
   <path d="M 346,457 C 273,457 209,483 155,535 101,586 74,649 74,723 74,796 101,859 155,911 209,963 273,989 346,989 419,989 480,963 531,910 582,859 608,796 608,723 608,648 583,586 532,535 482,483 420,457 346,457 Z"/>
  </g>
  <g id="bullet-char-template-8211" transform="scale(0.00048828125,-0.00048828125)">
   <path d="M -4,459 L 1135,459 1135,606 -4,606 -4,459 Z"/>
  </g>
  <g id="bullet-char-template-61548" transform="scale(0.00048828125,-0.00048828125)">
   <path d="M 173,740 C 173,903 231,1043 346,1159 462,1274 601,1332 765,1332 928,1332 1067,1274 1183,1159 1299,1043 1357,903 1357,740 1357,577 1299,437 1183,322 1067,206 928,148 765,148 601,148 462,206 346,322 231,437 173,577 173,740 Z"/>
  </g>
 </defs>
 <g>
  <g id="id2" class="Master_Slide">
   <g id="bg-id2" class="Background"/>
   <g id="bo-id2" class="BackgroundObjects"/>
  </g>
 </g>
 <g class="SlideGroup">
  <g>
   <g id="container-id1">
    <g id="id1" class="Slide" clip-path="url(#presentation_clip_path)">
     <g class="Page">
      <g class="com.sun.star.drawing.ClosedBezierShape">
       <g id="id3">
        <rect class="BoundingBox" stroke="none" fill="none" x="145" y="141" width="16415" height="25183"/>
        <path fill="rgb(0,169,51)" stroke="none" d="M 6010,25098 C 6115,24901 6121,24869 6103,24637 6085,24410 6091,24375 6174,24249 6223,24173 6275,24063 6289,24005 6302,23946 6328,23880 6346,23858 6366,23832 6363,23808 6338,23792 6313,23777 6307,23717 6323,23626 6336,23548 6331,23452 6310,23410 6224,23230 6177,22700 6241,22620 6261,22596 6266,22522 6254,22456 6241,22389 6246,22325 6264,22314 6282,22303 6293,22230 6289,22151 6285,22072 6296,21999 6313,21988 6331,21977 6335,21931 6324,21886 6313,21841 6319,21795 6337,21783 6356,21772 6362,21739 6351,21710 6340,21681 6350,21636 6372,21608 6395,21581 6419,21498 6425,21424 6432,21349 6440,21288 6444,21288 6447,21288 6457,21233 6465,21165 6479,21060 6692,20480 6757,20371 6785,20325 6800,20250 6803,20142 6804,20093 6819,20037 6835,20017 6877,19965 6850,19334 6805,19288 6785,19268 6776,19231 6785,19206 6795,19181 6785,19151 6765,19138 6702,19099 6720,19041 6897,18708 6990,18533 7060,18371 7052,18347 7044,18324 7057,18282 7080,18254 7104,18226 7114,18179 7103,18150 7092,18122 7098,18088 7117,18077 7136,18065 7149,17958 7145,17838 7142,17718 7151,17591 7166,17557 7182,17522 7185,17449 7174,17395 7163,17341 7175,17257 7199,17209 7224,17162 7254,17076 7265,17018 7277,16961 7306,16866 7330,16808 7354,16750 7376,16694 7380,16685 7383,16675 7398,16641 7412,16608 7426,16576 7441,16528 7445,16502 7449,16476 7462,16440 7474,16420 7485,16401 7508,16329 7523,16261 7558,16110 7557,16115 7584,16050 7596,16021 7710,15695 7837,15327 7965,14958 8096,14605 8129,14542 8186,14433 8200,14427 8386,14427 L 8583,14427 8621,14595 C 8649,14717 9181,16300 9199,16312 9200,16313 9208,16348 9216,16389 9223,16430 9248,16509 9271,16565 9294,16621 9319,16698 9326,16735 9333,16772 9356,16824 9378,16849 9399,16875 9405,16896 9390,16896 9376,16896 9384,16920 9408,16949 9432,16978 9440,17002 9426,17002 9411,17002 9417,17024 9439,17050 9461,17077 9486,17160 9495,17236 9504,17311 9522,17468 9535,17584 9549,17701 9556,17847 9552,17910 9547,17972 9557,18044 9572,18068 9588,18093 9604,18172 9609,18243 9614,18315 9650,18430 9689,18499 9728,18568 9751,18625 9740,18625 9729,18625 9753,18670 9793,18726 9916,18900 9977,19075 9935,19136 9827,19295 9802,20074 9901,20194 9924,20222 9933,20262 9919,20283 9906,20304 9912,20340 9931,20364 9951,20387 9967,20414 9967,20424 9968,20446 10005,20562 10041,20653 10056,20692 10068,20732 10068,20741 10067,20751 10088,20799 10115,20847 10142,20896 10166,20943 10168,20953 10170,20963 10185,21034 10200,21112 10216,21189 10243,21271 10260,21293 10277,21314 10282,21356 10270,21386 10259,21416 10267,21451 10288,21464 10309,21477 10317,21503 10305,21522 10293,21541 10295,21583 10308,21616 10322,21649 10340,21740 10347,21817 10355,21895 10370,21982 10382,22011 10406,22071 10426,22281 10428,22476 10428,22547 10444,22615 10463,22627 10499,22649 10483,23010 10440,23176 10428,23224 10415,23280 10412,23299 10409,23318 10397,23358 10386,23387 10346,23492 10335,23865 10371,23952 10390,24000 10411,24059 10415,24082 10420,24105 10465,24178 10516,24244 10586,24336 10607,24405 10607,24539 10607,24635 10592,24729 10572,24749 10549,24772 10573,24855 10642,24994 10699,25109 10747,25223 10747,25247 10749,25303 10900,25341 11011,25314 11058,25302 11107,25260 11119,25221 11144,25142 11181,25134 11279,25187 11369,25235 11731,25258 11757,25217 11768,25198 11806,25192 11840,25203 11875,25214 11923,25199 11948,25169 11973,25139 12021,25123 12055,25134 12099,25148 12122,25128 12139,25060 12158,24988 12135,24926 12038,24786 11787,24419 11485,23472 11537,23212 11551,23139 11530,23072 11455,22959 L 11354,22805 11354,21950 C 11354,21480 11367,21087 11383,21077 11399,21067 11404,21027 11394,20989 11384,20950 11387,20891 11401,20857 11468,20697 11479,19519 11417,19288 11394,19205 11372,19121 11367,19101 11363,19082 11350,19042 11339,19013 11327,18984 11284,18865 11242,18749 11201,18633 11151,18518 11131,18495 11112,18472 11100,18367 11105,18263 11110,18159 11104,18058 11093,18040 11058,17984 11001,17596 11000,17408 10999,17311 11045,17046 11102,16818 11223,16328 11296,15494 11262,14991 11220,14383 11136,13654 11096,13555 11075,13501 11036,13362 11011,13245 10985,13129 10941,12950 10911,12849 10882,12747 10842,12484 10821,12264 10785,11880 10684,11397 10611,11259 10591,11223 10552,11132 10524,11056 10369,10645 10285,10429 10168,10146 10097,9973 10029,9755 10018,9661 9998,9486 10064,9079 10119,9045 10135,9035 10149,8996 10149,8958 10149,8920 10165,8890 10184,8890 10203,8890 10219,8872 10219,8852 10219,8831 10273,8731 10339,8631 10450,8461 10625,8132 10736,7884 10762,7826 10823,7617 10872,7419 10990,6938 11015,6879 11099,6879 11150,6879 11195,6932 11257,7064 11358,7276 11496,7402 12031,7762 12447,8043 12739,8324 12936,8633 13097,8885 13371,9141 13872,9506 14405,9893 14918,10319 15207,10612 15432,10841 15450,10871 15457,11022 15460,11112 15452,11193 15437,11202 15423,11211 15417,11262 15424,11315 15432,11368 15444,11500 15451,11608 15458,11716 15472,11820 15482,11838 15493,11856 15497,12049 15492,12267 15483,12623 15492,12692 15578,12937 15630,13087 15687,13206 15703,13201 15719,13196 15736,13133 15740,13060 15745,12987 15766,12865 15787,12788 15809,12710 15827,12540 15827,12411 15828,12281 15843,12166 15860,12155 15928,12112 16004,12184 16042,12324 16063,12404 16096,12489 16115,12512 16134,12535 16146,12646 16143,12759 16140,12872 16144,13024 16151,13098 16158,13173 16151,13241 16136,13251 16121,13260 16118,13283 16129,13302 16141,13321 16136,13356 16118,13379 16099,13402 16084,13489 16084,13572 16083,13654 16067,13741 16047,13766 15974,13856 15975,14056 16049,14147 16092,14200 16125,14217 16134,14191 16142,14168 16203,14081 16270,13997 16336,13913 16391,13834 16391,13821 16391,13808 16410,13752 16432,13697 16455,13643 16471,13586 16468,13571 16464,13556 16486,13486 16515,13416 16581,13259 16567,12281 16496,12029 16330,11439 16170,11042 16034,10883 16001,10844 15937,10741 15892,10653 15768,10418 15510,10004 15299,9701 15279,9672 15235,9606 15201,9555 15168,9504 15073,9364 14990,9244 14908,9124 14840,9011 14840,8993 14840,8975 14828,8960 14813,8960 14798,8960 14739,8837 14682,8687 14625,8536 14542,8384 14498,8349 14453,8314 14417,8255 14417,8219 14417,8182 14397,8140 14372,8124 14347,8109 14299,8052 14266,7999 14232,7946 14183,7902 14158,7902 14132,7902 14091,7864 14066,7817 14041,7771 13917,7672 13789,7597 13661,7522 13524,7442 13484,7418 13444,7395 13372,7355 13324,7330 13217,7275 13006,7071 13006,7023 13006,7004 12985,6976 12959,6960 12933,6944 12881,6884 12845,6826 12808,6768 12770,6712 12760,6703 12750,6693 12711,6625 12674,6553 12637,6480 12595,6420 12582,6420 12568,6420 12536,6373 12512,6314 12488,6256 12454,6209 12436,6209 12390,6209 12201,5985 12046,5747 11972,5634 11881,5524 11843,5504 11748,5453 11537,5233 11418,5061 11364,4982 11263,4887 11193,4850 11123,4812 11066,4771 11066,4759 11066,4690 10735,4408 10537,4308 10411,4245 10241,4150 10159,4098 10078,4046 9895,3934 9754,3848 9612,3762 9491,3679 9484,3663 9478,3647 9455,3633 9432,3633 9372,3633 9127,3347 9101,3246 9087,3191 9109,3079 9160,2946 9205,2829 9249,2668 9258,2587 9269,2481 9292,2436 9341,2423 9388,2411 9408,2374 9408,2299 9408,2240 9425,2147 9446,2092 9478,2009 9582,1345 9584,1209 9584,1177 9561,1175 9494,1200 9444,1219 9397,1235 9390,1235 9383,1235 9378,1126 9379,993 9382,673 9357,611 9196,529 9121,490 8988,388 8902,300 L 8746,141 8351,141 7956,141 7780,316 C 7683,412 7551,510 7487,533 7355,581 7328,666 7327,1031 L 7327,1233 7216,1211 7105,1189 7130,1414 C 7143,1539 7180,1751 7210,1887 7241,2023 7273,2202 7282,2284 7295,2402 7313,2434 7366,2434 7421,2434 7433,2461 7433,2584 7434,2666 7466,2803 7504,2888 7542,2972 7574,3108 7574,3189 7574,3310 7550,3363 7439,3485 7365,3567 7293,3633 7277,3633 7262,3633 7202,3673 7144,3722 7086,3770 7017,3810 6991,3810 6964,3810 6930,3830 6914,3855 6882,3907 6464,4167 6136,4339 6015,4403 5916,4474 5916,4498 5916,4522 5869,4562 5811,4586 5753,4609 5670,4676 5626,4733 5581,4790 5479,4876 5398,4925 5254,5011 4999,5271 4999,5331 4999,5348 4975,5362 4946,5362 4917,5362 4893,5374 4893,5388 4893,5403 4852,5462 4803,5520 4753,5577 4678,5680 4637,5749 4595,5817 4544,5893 4524,5916 4415,6043 4399,6068 4399,6101 4399,6121 4367,6157 4327,6182 4288,6206 4157,6377 4038,6561 3703,7081 3551,7241 3216,7429 3053,7521 2867,7644 2802,7704 2736,7765 2599,7885 2496,7972 2279,8157 2169,8317 2066,8599 2025,8710 1774,9135 1507,9542 620,10897 368,11375 201,12024 179,12109 155,12403 148,12677 131,13349 199,13647 462,14047 522,14139 579,14214 589,14214 620,14215 695,14028 695,13953 695,13913 671,13835 642,13779 613,13724 589,13619 589,13547 589,13475 564,13342 533,13251 494,13137 487,13071 512,13042 532,13018 543,12903 538,12788 531,12634 547,12546 595,12460 631,12395 653,12330 644,12315 620,12276 758,12135 820,12135 860,12135 872,12193 873,12408 874,12559 897,12745 925,12823 953,12900 976,13026 977,13102 977,13284 1021,13233 1110,12945 1162,12780 1183,12610 1186,12329 1188,12116 1207,11846 1228,11730 1250,11605 1255,11391 1241,11209 L 1217,10900 1494,10614 C 1787,10310 2387,9812 2970,9385 3425,9053 3557,8927 3764,8625 4015,8260 4233,8052 4665,7765 5144,7446 5372,7237 5458,7035 5507,6923 5546,6879 5598,6879 5682,6879 5708,6936 5811,7347 5851,7507 5893,7661 5905,7690 5917,7719 5930,7759 5933,7778 5937,7798 5945,7826 5950,7840 5955,7855 5963,7879 5966,7893 5982,7963 6258,8474 6390,8678 6611,9021 6673,9212 6672,9542 6671,9794 6654,9862 6520,10177 6437,10371 6341,10617 6307,10724 6272,10831 6197,11021 6139,11147 5989,11476 5812,12432 5808,12928 5808,12986 5784,13064 5756,13102 5727,13140 5704,13221 5704,13284 5704,13346 5674,13497 5637,13621 5369,14518 5367,15965 5633,16967 5716,17282 5721,17532 5651,17866 5622,18002 5598,18185 5598,18272 5598,18359 5577,18471 5552,18519 5266,19076 5178,19871 5298,20831 5396,21619 5367,22868 5248,22964 5195,23007 5151,23167 5164,23264 5208,23567 4851,24578 4601,24857 4512,24957 4545,25166 4644,25134 4679,25123 4727,25138 4752,25169 4777,25199 4825,25214 4859,25203 4894,25192 4932,25199 4944,25218 4965,25252 5190,25247 5414,25206 5501,25190 5548,25203 5607,25258 5658,25305 5722,25327 5791,25320 5880,25311 5915,25277 6010,25098 Z"/>
       </g>
      </g>
      <g class="com.sun.star.drawing.ClosedBezierShape">
       <g id="id4">
        <rect class="BoundingBox" stroke="none" fill="none" x="7503" y="1867" width="472" height="351"/>
        <path fill="rgb(0,0,0)" stroke="none" d="M 7559,1891 C 7752,1817 7959,1922 7972,2099 7979,2199 7971,2205 7836,2215 7733,2223 7667,2205 7598,2151 7493,2068 7471,1925 7559,1891 Z"/>
       </g>
      </g>
      <g class="com.sun.star.drawing.ClosedBezierShape">
       <g id="id5">
        <rect class="BoundingBox" stroke="none" fill="none" x="7680" y="1977" width="180" height="122"/>
        <path fill="rgb(0,0,0)" stroke="none" d="M 7805,2026 C 7724,1966 7680,1962 7680,2012 7680,2052 7827,2119 7856,2092 7866,2083 7843,2053 7805,2026 Z"/>
       </g>
      </g>
      <g class="com.sun.star.drawing.ClosedBezierShape">
       <g id="id6">
        <rect class="BoundingBox" stroke="none" fill="none" x="8723" y="1874" width="470" height="349"/>
        <path fill="rgb(0,0,0)" stroke="none" d="M 8745,2178 C 8725,2154 8717,2089 8728,2035 8750,1918 8867,1861 9053,1877 9154,1885 9181,1903 9190,1970 9208,2097 9071,2222 8912,2222 8840,2222 8765,2203 8745,2178 Z"/>
       </g>
      </g>
      <g class="com.sun.star.drawing.ClosedBezierShape">
       <g id="id7">
        <rect class="BoundingBox" stroke="none" fill="none" x="8843" y="1988" width="177" height="115"/>
        <path fill="rgb(0,0,0)" stroke="none" d="M 8991,2053 C 9046,1998 9015,1974 8920,1999 8878,2010 8843,2040 8843,2065 8843,2119 8932,2112 8991,2053 Z"/>
       </g>
      </g>
      <g class="com.sun.star.drawing.ClosedBezierShape">
       <g id="id8">
        <rect class="BoundingBox" stroke="none" fill="none" x="4719" y="18848" width="30" height="90"/>
        <path fill="rgb(0,0,0)" stroke="none" d="M 4719,18887 C 4721,18845 4729,18837 4740,18865 4751,18891 4749,18921 4738,18933 4726,18945 4718,18924 4719,18887 Z"/>
       </g>
      </g>
      <g class="com.sun.star.drawing.ClosedBezierShape">
       <g id="id9">
        <rect class="BoundingBox" stroke="none" fill="none" x="14041" y="7095" width="88" height="30"/>
        <path fill="rgb(0,0,0)" stroke="none" d="M 14058,7102 C 14083,7092 14114,7093 14125,7105 14137,7116 14116,7125 14079,7123 14038,7121 14030,7113 14058,7102 Z"/>
       </g>
      </g>
     </g>
    </g>
   </g>
  </g>
 </g>
</svg>